<svg width="160" height="31" viewBox="0 0 160 31" xmlns="http://www.w3.org/2000/svg"><title>Shape</title><path d="M155.22 22.485V.504h4.7v21.98h-4.7zm-8.382-7.728V6.385h4.73v16.1h-4.73v-7.728zm0-12.07V.505h4.73V4.6h-4.73V2.687zM136.36 22.863c-3.044 0-4.508-1.36-4.837-1.618l-.06 1.24h-4.465V.505h4.525v7.148c.216-.158 1.682-1.634 4.89-1.634 4.195 0 7.693 3.642 7.693 8.418 0 4.777-3.73 8.426-7.745 8.426zm-1.01-12.458c-2.264 0-4.004 1.743-4.004 4.032 0 2.26 1.71 4.035 4.005 4.035 2.242 0 3.97-1.773 3.97-4.048 0-2.25-1.705-4.018-3.97-4.018zm-19.573 12.46c-4.806 0-8.5-3.784-8.5-8.428 0-4.653 3.694-8.423 8.5-8.423 4.818 0 8.494 3.77 8.494 8.423 0 4.644-3.675 8.427-8.493 8.427zm.017-12.485c-2.277 0-3.92 1.82-3.92 4.056 0 2.236 1.643 4.052 3.92 4.052 2.31 0 3.937-1.816 3.937-4.052 0-2.235-1.627-4.057-3.936-4.057zM99.97 5.882h-.212l-4.02 16.602h-5.144l-3.95-16.602h-.22v16.602h-4.58V.505h7.71l3.64 16.047h.16L97.075.504h7.477v21.98H99.97v-16.6zm-26.508 7.755c0-2.17-1.035-3.466-2.924-3.466-1.845 0-2.948 1.223-2.948 3.466v8.847h-4.66v-16.1h4.406V7.92c.486-.426 2.005-1.907 4.812-1.907 3.333 0 5.98 2.477 5.98 6.373v10.1H73.46v-8.848zm-21.628 9.225c-4.807 0-8.474-3.778-8.474-8.427 0-4.64 3.667-8.418 8.474-8.418 4.825 0 8.506 3.778 8.506 8.418 0 4.65-3.68 8.427-8.506 8.427zm.037-12.484c-2.293 0-3.936 1.826-3.936 4.056 0 2.236 1.643 4.052 3.937 4.052 2.285 0 3.94-1.816 3.94-4.052 0-2.23-1.655-4.057-3.94-4.057zm-4.54 20.537h-6.607L32.29 22.23l-4.494 5.87h-5.48l7.01-8.864-3.062-3.12-4.915 6.37h-5.453l7.434-9.4-6.584-6.7h6.538l2.904 3.04 5.358-6.987h5.468l-7.85 10.005 3.052 3.095 7.052-9.154h5.475l-9.534 12.2 12.12 12.33zM.504.504h14.313V4.6H5.373v4.56H14.4v3.98H5.373v5.25h9.443v4.095H.503V.505z" fill="#DC241F" fill-rule="evenodd"/></svg>