<svg id="Layer_1" data-name="Layer 1" xmlns="http://www.w3.org/2000/svg" viewBox="0 0 18.84 23.1"><defs><style>.cls-1{fill:#4170b7}</style></defs><title>refinery-phone</title><path class="cls-1" d="M18.8 19.5l-2.9-4.2a1.54 1.54 0 0 0-2.2-.5L11.8 16h-.2l-.1.1c-.2 0-1.1-.2-3.4-3.4-2-3-2-4.2-1.9-4.6.2 0 .2-.1.2-.1l2-1.3a1.58 1.58 0 0 0 .5-2.2L6.1.5V.4A2.22 2.22 0 0 0 4.8 0a4 4 0 0 0-2.5 1l-.2.1A14.71 14.71 0 0 0 0 7v.2A22.73 22.73 0 0 0 3.5 15l1 1.4a21.63 21.63 0 0 0 5.8 6l.1.1a15 15 0 0 0 4 .6 15 15 0 0 0 2.2-.2l.2-.1c2.5-1.6 2-3.3 2-3.3zm-2.5 2.3a11.08 11.08 0 0 1-1.9.2 13.16 13.16 0 0 1-3.6-.5A25.09 25.09 0 0 1 5 15.4l-.3-.4A25.37 25.37 0 0 1 1 7.1a14 14 0 0 1 1.9-5.3C4.5.6 5.2 1 5.4 1.1l2.7 4a.54.54 0 0 1-.2.8L6 7.1a2.26 2.26 0 0 0-.6.7c-.4 1.1.2 2.9 2 5.6s3.1 3.8 4.2 3.8a.89.89 0 0 0 .8-.4l1.8-1.2a.54.54 0 0 1 .8.2l2.8 4c0 .2 0 1.1-1.5 2z"/></svg>