<svg id="Layer_1" data-name="Layer 1" xmlns="http://www.w3.org/2000/svg" viewBox="0 0 85.61 65.4"><defs><style>.cls-1{stroke:#2c72d9;stroke-miterlimit:10}</style></defs><title>refinery-briefcase</title><path class="cls-1" d="M84.2 34.7a1 1 0 0 0-1 1v26.2a1 1 0 0 1-1 1H3.5a1 1 0 0 1-1-1V35.7a1 1 0 0 0-1-1 1.08 1.08 0 0 0-1 1v26.2a3 3 0 0 0 3 3h78.6a3 3 0 0 0 3-3V35.7a.92.92 0 0 0-.9-1z"/><path class="cls-1" d="M82.1 14.6H3.5a3 3 0 0 0-3 3v12.1a1 1 0 0 0 1 1h27.2v7.1a3 3 0 0 0 3 3h22.2a3 3 0 0 0 3-3v-7.1h27.2a1 1 0 0 0 1-1V17.6a2.89 2.89 0 0 0-3-3zM54.9 37.8a1 1 0 0 1-1 1H31.7a1 1 0 0 1-1-1v-7.1h24.2v7.1zm28.3-9.1H2.5V17.6a1 1 0 0 1 1-1h78.6a1 1 0 0 1 1 1v11.1h.1zM31.7.5a3 3 0 0 0-3 3v8.1a1 1 0 0 0 1 1 1.08 1.08 0 0 0 1-1V3.5a1 1 0 0 1 1-1h22.2a1 1 0 0 1 1 1v8.1a1 1 0 0 0 1 1 1.08 1.08 0 0 0 1-1V3.5a3 3 0 0 0-3-3H31.7z"/></svg>