<?xml version="1.0" standalone="no"?>
<!DOCTYPE svg PUBLIC "-//W3C//DTD SVG 1.1//EN" "http://www.w3.org/Graphics/SVG/1.1/DTD/svg11.dtd" >
<svg>
<metadata>
Created by FontForge 20110222 at Sun Oct 13 12:53:01 2013
 By Ubuntu
Copyright (c) 2010, Sebastian Kosch (sebastian@aldusleaf.org),
with Reserved Font Name "Crimson Text".
This Font Software is licensed under the SIL Open Font License, Version 1.1.
This license is available with a FAQ at: http://scripts.sil.org/OFL
</metadata>
<defs>
<font id="CrimsonText-SemiboldItalic" horiz-adv-x="0" >
  <font-face 
    font-family="Crimson Text"
    font-weight="600"
    font-style="italic"
    font-stretch="normal"
    units-per-em="1024"
    panose-1="2 0 7 3 0 0 0 0 0 0"
    ascent="717"
    descent="-307"
    x-height="442"
    cap-height="662"
    bbox="-92 -245 1195 1049"
    underline-thickness="50"
    underline-position="-100"
    slope="-11"
    unicode-range="U+0020-F89F"
  />
<missing-glyph horiz-adv-x="374" 
d="M34 0v682h272v-682h-272zM68 34h204v614h-204v-614z" />
    <glyph glyph-name=".notdef" horiz-adv-x="374" 
d="M34 0v682h272v-682h-272zM68 34h204v614h-204v-614z" />
    <glyph glyph-name=".null" 
 />
    <glyph glyph-name="nonmarkingreturn" horiz-adv-x="341" 
 />
    <glyph glyph-name="space" unicode=" " horiz-adv-x="156" 
 />
    <glyph glyph-name="exclam" unicode="!" horiz-adv-x="220" 
d="M2 51q3 30 24.5 50t48.5 20q24 0 38 -18t11 -42q-3 -30 -24 -51.5t-49 -21.5q-23 0 -37.5 18t-11.5 45zM179 636q19 0 30 -15.5t8 -39.5q-1 -12 -18.5 -74.5t-47 -164t-42.5 -146.5q-3 -12 -13.5 -19.5t-18.5 -7.5q-6 0 -6 20q2 37 16.5 179t25.5 208q5 23 24 41.5
t42 18.5z" />
    <glyph glyph-name="quotedbl" unicode="&#x22;" horiz-adv-x="178" 
d="M132 698q-24 0 -45.5 -22.5t-24.5 -39.5q0 -13 2 -45.5t2 -68t-4 -75.5q-1 -6 4.5 -9.5t11.5 -3.5q16 0 20 15q8 29 32 91t30 93q6 44 0.5 54.5t-28.5 10.5zM130 698q23 0 28.5 -10.5t-0.5 -54.5q-6 -31 -30 -93t-32 -91q-4 -15 -20 -15q-6 0 -11.5 3.5t-4.5 9.5
q4 40 4 75.5t-2 68t-2 45.5q3 17 24.5 39.5t45.5 22.5z" />
    <glyph glyph-name="numbersign" unicode="#" horiz-adv-x="443" 
d="M353 376h74q7 0 7 -6q0 -13 -8.5 -34.5t-16.5 -21.5h-74l-30 -80h74q7 0 7 -6q0 -13 -8.5 -34.5t-16.5 -21.5h-74l-52 -148q-3 -8 -35 -8q-25 0 -25 5q2 2 2 3l52 148h-82l-52 -148q-3 -8 -35 -8q-25 0 -25 5q2 2 2 3l52 148h-74q-7 0 -7 6q0 13 8.5 34.5t16.5 21.5h74
l30 80h-74q-7 0 -7 6q0 13 8.5 34.5t16.5 21.5h74l52 148q3 8 38 8q22 0 22 -6q-2 -1 -2 -2l-52 -148h82l52 148q3 8 38 8q22 0 22 -6q-2 -1 -2 -2zM277 314h-82l-30 -80h82z" />
    <glyph glyph-name="dollar" unicode="$" horiz-adv-x="439" 
d="M233 245l-74 -206h12q46 0 80.5 36.5t34.5 85.5q0 37 -36 69q-1 1 -8.5 7.5t-8.5 7.5zM142 -8l-20 -54q-1 -4 -12 -4q-19 0 -31 15l17 49q-37 6 -87 18q-1 13 -1 34q0 48 6 120q1 8 21 8q14 0 20 -5q0 -36 14 -70.5t46 -51.5l80 223q-4 4 -24.5 20t-24.5 19
q-69 57 -69 120q0 87 68.5 145t151.5 58q19 0 28 -1l18 50q1 5 11 5q20 0 33 -17l-17 -47q36 -10 57 -13q-3 -25 -6 -55l-4.5 -45l-3 -30t-3 -21t-3.5 -6q-17 0 -25 5q-5 2 -5 11q0 52 -30 88l-72 -201q6 -4 31 -23t29 -22q58 -45 58 -111q0 -78 -64 -144q-30 -30 -74 -48.5
t-89 -18.5h-24zM237 389l70 197q-12 3 -24 3q-50 0 -77 -33.5t-27 -72.5t31 -68q2 -3 7.5 -8.5t12 -11t7.5 -6.5z" />
    <glyph glyph-name="percent" unicode="%" horiz-adv-x="644" 
d="M473 286q-35 0 -58 -39.5t-30 -92.5q-3 -28 -1.5 -55t15.5 -47.5t38 -20.5q34 0 55.5 39.5t29.5 93.5q2 27 1.5 54t-13.5 47.5t-37 20.5zM487 318q58 0 89 -41.5t25 -100.5q-6 -69 -58.5 -123.5t-118.5 -54.5q-58 0 -90.5 41.5t-26.5 100.5q6 70 59 124t121 54zM636 640
q-576 -630 -582 -636q-12 -12 -33 -12q-23 0 -25 12l583 638q12 12 20 12q28 0 37 -14zM231 626q-35 0 -57.5 -39.5t-30.5 -92.5q-2 -28 -1 -55t15 -47.5t38 -20.5q34 0 55.5 40t28.5 93q3 27 2.5 54t-13.5 47.5t-37 20.5zM244 658q58 0 89.5 -42t25.5 -101q-6 -69 -59 -123
t-119 -54q-58 0 -90 41t-26 100q6 70 59 124.5t120 54.5z" />
    <glyph glyph-name="ampersand" unicode="&#x26;" horiz-adv-x="649" 
d="M292 635q46 0 80 -25t34 -67q0 -29 -21.5 -55.5t-38.5 -26.5q-11 0 -11 8q0 1 4.5 14.5t4.5 30.5q0 32 -21.5 52.5t-52.5 20.5q-46 0 -76 -34.5t-30 -82.5q0 -46 30 -72q21 6 40 6q27 0 49.5 -12t22.5 -32q0 -19 -19.5 -29.5t-44.5 -10.5q-38 0 -62 21q-59 -50 -59 -137
q0 -71 44 -120.5t117 -49.5q80 0 138.5 60t58.5 143q0 38 -18.5 66.5t-51.5 28.5q-26 0 -45.5 -14t-19.5 -38q0 -19 29 -26q41 -10 41 -37q0 -43 -38 -53q-23 0 -50.5 27.5t-27.5 65.5q0 55 43 92t101 37q15 0 38 -1t38 -1q34 0 60 15.5t26 44.5q0 14 -10 23.5t-23 9.5
q-11 0 -25.5 -10t-25.5 -10q-15 0 -25.5 12t-10.5 28q0 26 24 45q65 0 100.5 -25.5t35.5 -72.5q0 -44 -30 -72t-80 -28q-6 0 -26 2q56 -50 56 -122q0 -99 -90 -168.5t-204 -69.5q-101 0 -176.5 59t-75.5 151q0 61 41 114t89 71q-44 49 -44 98q0 70 59.5 113t128.5 43z" />
    <glyph glyph-name="quotesingle" unicode="'" horiz-adv-x="176" 
d="M130 698q23 0 28.5 -10.5t-0.5 -54.5q-6 -31 -30 -93t-32 -91q-4 -15 -22 -15q-6 0 -10.5 3.5t-3.5 9.5q4 40 4 75.5t-2 68t-2 45.5q3 17 24.5 39.5t45.5 22.5z" />
    <glyph glyph-name="parenleft" unicode="(" horiz-adv-x="331" 
d="M337 720q-29 -16 -66.5 -70.5t-72.5 -129.5t-59 -174.5t-24 -192.5q0 -96 21 -168t42 -85v-6q-1 -6 -6 -14.5t-10 -8.5q-15 0 -36.5 23.5t-43 63.5t-36.5 102.5t-15 129.5q0 105 38 212.5t89 180.5t100 119t74 46q7 0 7 -20v-6q0 -2 -2 -2z" />
    <glyph glyph-name="parenright" unicode=")" horiz-adv-x="322" 
d="M297 428q0 -91 -26 -180.5t-64.5 -155t-81.5 -117t-77.5 -78t-51.5 -26.5q-7 0 -7 18v5q0 4 3 6q19 9 54 56t73 119.5t66 180.5t28 218q0 92 -18 159.5t-44 86.5q-1 0 -1 2q1 6 6.5 16t10.5 10q24 0 53.5 -39.5t53 -116t23.5 -164.5z" />
    <glyph glyph-name="asterisk" unicode="*" horiz-adv-x="377" 
d="M219 515q8 0 22 18.5t28 41t34 41t38 18.5q25 0 25 -29q0 -26 -33 -47.5t-66 -37t-33 -28.5q0 -9 19 -14.5t42.5 -9.5t42.5 -16t19 -31q0 -15 -13.5 -27.5t-28.5 -12.5q-18 0 -37 20.5t-34.5 41.5t-25.5 21t-13 -17.5t-6 -51t-10 -55.5q-12 -40 -42 -40q-11 0 -19.5 8.5
t-8.5 21.5q0 22 33.5 72.5t33.5 61.5q0 9 -9 9q-8 0 -54 -21.5t-67 -21.5q-13 0 -22 7.5t-9 19.5q0 9 3.5 18.5t18.5 19t40 9.5q16 0 42.5 -3.5t35.5 -3.5q24 0 24 13q0 10 -26 48t-26 62q0 19 11.5 31.5t27.5 12.5q12 0 19 -6.5t10 -20.5t3.5 -24.5t0.5 -30.5q0 -67 10 -67
z" />
    <glyph glyph-name="plus" unicode="+" horiz-adv-x="482" 
d="M240 470q2 9 27 13.5t37 4.5q6 0 8.5 -2.5t1.5 -6.5q-23 -130 -35 -192q-2 -5 3 -5h177q4 0 4 -14q0 -25 -23 -50h-173q-4 0 -4 -4l-35 -184q-1 -7 -21.5 -12.5t-36.5 -5.5q-8 0 -12 3t-3 6l36 192q0 5 -4 5h-175q-4 0 -4 14q0 22 24 50h171q4 0 4 4q6 29 16 88.5
t17 95.5z" />
    <glyph glyph-name="comma" unicode="," horiz-adv-x="245" 
d="M5 -138q0 2 22 19.5t44 47.5t22 64q0 12 -7 36.5t-7 34.5q0 29 25.5 48t59.5 19q20 0 28 -5q3 -18 3 -28q0 -48 -21 -90q-37 -101 -152 -174q-5 2 -11 11.5t-6 16.5z" />
    <glyph glyph-name="hyphen" unicode="-" horiz-adv-x="327" 
d="M54 264l226 12q7 0 7 -12q0 -11 -9 -33.5t-16 -23.5l-226 -11q-5 0 -5 15q0 10 8 31t15 22z" />
    <glyph glyph-name="period" unicode="." horiz-adv-x="196" 
d="M145 62q-3 -29 -25 -51.5t-49 -22.5q-24 0 -38.5 18t-11.5 44q3 29 25 50t49 21q24 0 38.5 -17t11.5 -42z" />
    <glyph glyph-name="slash" unicode="/" horiz-adv-x="485" 
d="M493 755l-424 -767q-3 -6 -20 -14t-39 -8q-11 0 -17 6l425 767q12 22 47 22q22 0 28 -6z" />
    <glyph glyph-name="zero" unicode="0" horiz-adv-x="488" 
d="M302 582q-54 0 -102.5 -99.5t-60.5 -230.5q-12 -93 5 -152t53 -59q55 0 101 104t59 231q12 94 -3 150t-52 56zM310 625q77 0 120.5 -77t30.5 -191q-13 -139 -96.5 -249.5t-177.5 -110.5q-77 0 -121.5 77.5t-31.5 191.5q13 140 97.5 249.5t178.5 109.5z" />
    <glyph glyph-name="one" unicode="1" horiz-adv-x="286" 
d="M273 637q9 0 9 -19q-16 -31 -28 -94l-76 -394q-8 -46 -8 -70q0 -17 17.5 -25t29.5 -8q1 0 1 -5q0 -15 -5 -25q-13 1 -34 2.5t-39 2.5t-34 1t-34.5 -1t-40.5 -2.5t-35 -2.5q-2 2 -2 7q0 23 8 23q10 0 31.5 8t25.5 16q8 13 21 73l64 323q6 30 6 46q0 17 -10 17
q-14 0 -72 -30q-10 4 -10 20q0 6 4 10q207 127 211 127z" />
    <glyph glyph-name="two" unicode="2" horiz-adv-x="444" 
d="M248 563q-34 0 -63 -18.5t-46 -36.5t-19 -18q-12 0 -12 19q0 13 4 17q33 40 91.5 76t108.5 36q56 0 87 -33.5t31 -88.5q0 -53 -25.5 -107.5t-77.5 -112t-97.5 -99.5t-117.5 -102q-2 -2 -2 -7q0 -4 4 -4h172q13 0 24.5 3.5t18 6.5t13.5 12t9.5 12t8.5 15.5t7 13.5
q5 9 25 9q10 0 13 -7q-6 -15 -28 -67t-32 -82l-135 1q-202 -1 -209 -1q-7 10 -7 21q0 2 2 12q308 299 322 431q0 11 1 10q1 -6 1 -13v19q0 37 -19 60t-53 23z" />
    <glyph glyph-name="three" unicode="3" horiz-adv-x="426" 
d="M313 638q35 0 62 -27t21 -76q-1 -14 -3.5 -26.5t-8 -24t-9.5 -20t-13 -19.5t-13 -16.5t-15.5 -16t-15 -13.5t-16 -13.5t-14.5 -11.5q33 0 71.5 -41t31.5 -105q-10 -97 -97 -164.5t-194 -67.5q-40 0 -66 10t-35 24q-2 5 -2 21q0 21 13.5 35t31.5 14q19 0 46 -29t51 -29
q61 0 100.5 45.5t45.5 112.5q6 51 -18 83.5t-64 32.5q-25 0 -68 -7q-5 9 -3 21q0 10 6 19q70 15 114 58.5t50 98.5q4 29 -13.5 47.5t-41.5 18.5q-26 0 -54 -13t-46 -26t-22 -13q-8 0 -8 16q0 14 4 18q75 84 192 84z" />
    <glyph glyph-name="four" unicode="4" horiz-adv-x="444" 
d="M419 644q5 0 8.5 -4.5t2.5 -9.5l-75 -380q-2 -8 7 -8h41q8 0 8 -14q0 -26 -12 -50h-52q-5 0 -6 -6l-33 -170q-26 -6 -54 -6q-42 0 -39 10l32 167q0 5 -6 5h-228q-8 8 -8 23q0 11 2 21l384 405q17 17 28 17zM303 464q2 8 -2 8l-2 -2l-204 -216q-2 -2 -2 -5q0 -7 4 -7h156
q8 3 10 8z" />
    <glyph glyph-name="five" unicode="5" horiz-adv-x="436" 
d="M402 546h-61q-93 0 -119.5 -1.5t-28.5 -8.5l-46 -135q49 7 82 7q69 0 119 -53.5t43 -122.5q-11 -96 -91 -166t-199 -70q-40 0 -66 10t-35 24q-2 5 -2 21q0 21 14 35t31 14q19 0 45.5 -29t50.5 -29q66 0 102 41.5t41 100.5q7 61 -21 101t-74 40q-29 0 -63 -5l-35 -5
q-6 0 -12 14q4 10 32.5 98t48.5 146.5t23 58.5q216 0 242 6q5 -9 2 -24q-4 -39 -23 -68z" />
    <glyph glyph-name="six" unicode="6" horiz-adv-x="443" 
d="M188 332q0 13 26.5 24t47.5 11q56 0 93 -41.5t37 -102.5q0 -86 -70 -157.5t-152 -71.5q-67 0 -108.5 47.5t-41.5 119.5q0 38 11.5 83t41.5 100t74.5 106.5t116.5 102t162 86.5q14 -4 14 -27q-202 -86 -280 -270q-42 -99 -42 -206q0 -43 16 -69.5t49 -26.5q42 0 75.5 53
t33.5 127q0 85 -58 91q-28 6 -40 5q-6 3 -6 16z" />
    <glyph glyph-name="seven" unicode="7" horiz-adv-x="469" 
d="M33 -11q-12 0 -19.5 7.5t-7.5 18.5q0 7 4 13l363 500q-21 0 -123 -0.5t-119 -0.5q-8 0 -15.5 -2.5t-14 -8.5t-11.5 -10.5t-10 -13.5t-7.5 -13t-7 -13t-4.5 -10h-10q-13 0 -18 6q8 25 27 74.5t24 66.5q3 12 20 12h303q14 0 37 1.5t24 1.5q6 0 6 -5q0 -15 -40 -71
l-394 -552q-3 -1 -7 -1z" />
    <glyph glyph-name="eight" unicode="8" horiz-adv-x="438" 
d="M172 37q30 0 52.5 15t32.5 37.5t14.5 41.5t4.5 33q0 12 -2.5 23t-8 21.5t-9.5 18t-14 17t-14 13.5t-16 14t-14 12q-6 6 -9 6t-6 -3q-32 -17 -52 -68t-20 -97q0 -38 16 -61t45 -23zM282 588q-42 0 -66.5 -42.5t-24.5 -79.5q0 -47 59 -93q7 -5 10 -5t7 4q40 38 53.5 72
t13.5 76q0 31 -13.5 49.5t-38.5 18.5zM285 633q65 0 104.5 -30.5t39.5 -84.5q0 -107 -132 -180q-2 0 -2 -1.5t1 -2.5t13.5 -12.5t22.5 -23t22.5 -28.5t19.5 -37.5t7 -41.5q0 -72 -67 -134.5t-154 -62.5q-64 0 -106 35t-42 97q0 51 26.5 93.5t54.5 63t60 35.5q5 2 1 6
q-2 2 -14.5 15t-21 24.5t-17 34.5t-8.5 48q0 80 60 133.5t132 53.5z" />
    <glyph glyph-name="nine" unicode="9" horiz-adv-x="435" 
d="M258 300q0 -12 -27 -23t-48 -11q-57 0 -93.5 41.5t-36.5 102.5q0 86 70 158t152 72q66 0 108 -48t42 -120q0 -38 -11.5 -83t-41.5 -100t-74.5 -106.5t-116.5 -102t-162 -86.5q-14 4 -14 28q202 86 280 269q42 99 42 206q0 97 -64 97q-42 0 -76 -53.5t-34 -127.5
q0 -85 59 -91q28 -6 39 -5q7 -3 7 -17z" />
    <glyph glyph-name="colon" unicode=":" horiz-adv-x="218" 
d="M69 352q0 31 24.5 55.5t53.5 24.5q22 0 35.5 -15t13.5 -38q0 -31 -23.5 -57t-51.5 -26q-23 0 -37.5 16t-14.5 40zM10 43q0 31 24 56t53 25q22 0 35.5 -15.5t13.5 -38.5q0 -31 -23.5 -56.5t-51.5 -25.5q-22 0 -36.5 16t-14.5 39z" />
    <glyph glyph-name="semicolon" unicode=";" horiz-adv-x="174" 
d="M108 185q1 4 7 17t10 23.5t6 22t-5 13.5q-14 7 -29 1.5t-24 -20.5q-17 -16 -21 -38t10 -32q20 -6 46 13zM44 170q2 29 7.5 43.5t20.5 32.5q1 0 9.5 5t12.5 7t12 4t16 1t16 -5q3 -14 -2 -25.5t-14 -14.5q-5 -3 3 -17t-3 -20q-8 -5 -6.5 -20.5t-7.5 -15.5
q-11 -11 -19.5 -26.5t-19.5 -26t-35 -21.5h-1q-8 0 -3.5 7t-3.5 10q-4 1 -4 5t2.5 11t6 15.5t7.5 22.5t6 28z" />
    <glyph glyph-name="less" unicode="&#x3c;" horiz-adv-x="433" 
d="M89 209l270 -163q2 -2 2 -6q0 -8 -11 -31t-15 -23q-2 0 -4 1l-312 190q-13 8 -9 33q2 21 22 31l383 187l4 2q6 0 6 -40q0 -18 -5 -21z" />
    <glyph glyph-name="equal" unicode="=" horiz-adv-x="521" 
d="M50 178h403q7 0 7 -13t-8.5 -30.5t-15.5 -20.5h-403q-7 0 -7 13t8.5 30.5t15.5 20.5zM77 319h403q7 0 7 -13t-8.5 -30.5t-15.5 -20.5h-403q-7 0 -7 13t8.5 30.5t15.5 20.5z" />
    <glyph glyph-name="greater" unicode="&#x3e;" horiz-adv-x="438" 
d="M339 209l-269 160l-1 7q5 17 14 35.5t12 18.5l4 -2l309 -187q14 -7 12 -22q-6 -32 -25 -42l-384 -190q-4 -2 -6 -2q-5 0 -5 54q0 2 1 4t3 3h1z" />
    <glyph glyph-name="question" unicode="?" horiz-adv-x="327" 
d="M11 41q0 32 22.5 56t50.5 24q22 0 37 -15t15 -38q0 -31 -24 -55.5t-52 -24.5q-21 0 -35 15t-14 38zM164 205q0 -10 -11 -17q-24 0 -65.5 32.5t-41.5 69.5q0 60 55 93l110 65q52 28 52 67q0 25 -14 41t-41 16q-18 0 -38 -23t-34 -23q-24 0 -35.5 20.5t-6.5 46.5
q24 45 78 45q62 0 107.5 -40.5t45.5 -96.5q0 -82 -59 -119q-41 -28 -110 -66q-36 -20 -36 -50q0 -18 22 -38t22 -23z" />
    <glyph glyph-name="at" unicode="@" horiz-adv-x="748" 
d="M313 -170q-78 -1 -140.5 30.5t-98 82.5t-49 115t-1.5 127q35 180 163.5 286.5t289.5 106.5q88 0 148.5 -54t80.5 -132t4 -159q-26 -131 -88 -188.5t-129 -57.5q-46 0 -71.5 30t-18.5 63q0 1 -2 0t-3 -2q-18 -26 -64 -55.5t-84 -29.5q-49 0 -68 45.5t-8 102.5
q21 107 107.5 188t204.5 81l86 -9q-11 -31 -17 -53l-62 -214q-30 -103 18 -103q33 0 60 20t43.5 52t25.5 59t14 52q25 130 -28 220t-169 90q-128 0 -233 -85.5t-130 -215.5q-30 -158 31 -253.5t227 -95.5q32 0 67 13v-9q-3 -17 -31 -31t-75 -17zM421 176l43 146q7 25 -1 31
q-4 2 -11 3q-54 13 -112 -45.5t-79 -167.5q-18 -90 27 -90q33 0 80 49.5t53 73.5z" />
    <glyph glyph-name="A" unicode="A" horiz-adv-x="648" 
d="M323 231q-37 0 -94 -3q-4 0 -6 -4q-5 -9 -27.5 -45t-29.5 -48q-31 -52 -31 -71q0 -16 24 -24.5t36 -8.5q2 0 2 -5q0 -13 -6 -25q-11 1 -39.5 3.5t-52.5 2.5q-25 0 -60.5 -2.5t-48.5 -3.5q-2 4 -2 7q0 23 6 23q11 0 37.5 10t34.5 21q14 17 50 78l277 474q31 54 52 54
q6 0 10 -4l94 -524q3 -16 14 -73q3 -15 23.5 -25.5t30.5 -10.5q2 0 2 -6q0 -16 -4 -24q-111 6 -114 6q-11 0 -125 -6q-1 1 -1 6q0 24 6 24q10 0 30 7.5t25 15.5q6 12 6 30q0 9 -20 143q0 5 -5 5q-18 3 -94 3zM335 285q29 0 72 3q4 0 4 4q-3 20 -17 103t-16 97l-115 -202v-2
q30 -3 72 -3z" />
    <glyph glyph-name="B" unicode="B" horiz-adv-x="560" 
d="M407 217q0 106 -116 106q-64 0 -67 -15l-41 -212q-3 -15 -3 -26q0 -14 13.5 -18t52.5 -4q49 0 72 11q35 16 62 57t27 101zM522 221q0 -91 -76.5 -156t-197.5 -65h-70q-69 1 -70 1q-22 0 -114 -4q-2 2 -2 9q0 21 6 21q11 0 34.5 8t28.5 17q14 27 26 90l73 376q10 54 10 85
q0 5 -11 11t-26 11.5t-17 6.5t-2 6q0 16 8 24q56 -5 118 -5q54 0 89 1t49 1q66 0 119 -33.5t53 -102.5q0 -19 -4 -36.5t-11 -32t-16 -27.5t-19 -23t-20 -18t-18.5 -14t-15.5 -10t-11 -6l-4 -2q28 -5 59.5 -42t31.5 -91zM437 523q0 88 -88 88q-63 0 -67 -15l-42 -210
q-3 -14 52 -14q145 0 145 151z" />
    <glyph glyph-name="C" unicode="C" horiz-adv-x="610" 
d="M404 667q85 0 210 -37q0 -6 -7 -67t-9 -69q-3 -15 -25 -15q-9 0 -13 3q-1 18 -6 36.5t-20 43.5t-50 40.5t-86 15.5q-100 0 -177.5 -109t-77.5 -256q0 -93 44.5 -152t129.5 -59q83 0 136 34q21 14 38 35t25 35t9 14q4 0 13.5 -6t10.5 -12q-1 -2 -10.5 -27.5t-18.5 -47
t-15 -27.5q-22 -21 -81 -33.5t-125 -12.5q-125 0 -199.5 78.5t-74.5 190.5q0 99 53.5 193t142 152.5t183.5 58.5z" />
    <glyph glyph-name="D" unicode="D" horiz-adv-x="686" 
d="M403 658q131 0 198 -72t67 -182q0 -68 -26.5 -138.5t-74.5 -131t-125 -99t-169 -38.5q-18 0 -71 2.5t-87 2.5l-121 -5q-2 2 -2 9q0 21 7 21q10 0 34.5 8.5t28.5 16.5q14 30 24 86l74 380q12 61 10 85q-1 8 -22.5 18.5t-31.5 10.5q-1 0 -1 4q0 20 6 26q57 -4 119 -4h163z
M399 608q-95 0 -108 -16q-17 -19 -25 -70l-74 -384q-13 -65 -4 -74q13 -16 110 -16q101 0 168 91.5t82 237.5q11 100 -26 165.5t-123 65.5z" />
    <glyph glyph-name="E" unicode="E" horiz-adv-x="544" 
d="M240 658q46 -1 149.5 2.5t148.5 3.5q-2 -22 -2 -65q0 -13 0.5 -38.5t0.5 -38.5q-5 -5 -20 -5q-12 0 -12 7q-12 89 -105 89h-45q-65 0 -69 -13q-16 -45 -20 -72l-30 -165q0 -2 2.5 -3.5t8.5 -2t12.5 -1t14.5 -0.5h62q45 0 56.5 9t32.5 57q3 8 15 8q13 0 17 -6l-36 -190
q-4 -4 -18 -4q-12 0 -13 8q-2 47 -14 59q-10 9 -86 9q-66 0 -68 -8l-29 -152q-9 -43 -9 -72q0 -17 8.5 -21t51.5 -4h35q73 0 115 21q16 8 40 34.5t42 61.5q3 6 14 6q20 0 24 -6q-74 -143 -83 -169q-53 0 -165 2.5t-151 2.5l-121 -5q-2 2 -2 9q0 21 7 21q10 0 34.5 8.5
t28.5 16.5q14 30 24 86l74 380q12 61 10 85q-1 8 -22.5 18.5t-31.5 10.5q-1 0 -1 4q0 20 6 26q57 -4 119 -4z" />
    <glyph glyph-name="F" unicode="F" horiz-adv-x="532" 
d="M115 3l-121 -6q-2 2 -2 9q0 21 7 21q10 0 34.5 8.5t28.5 16.5q14 30 24 86l74 380q12 61 10 85q-1 8 -22.5 18.5t-31.5 10.5q-1 0 -1 4q0 20 6 26q57 -4 119 -4q44 -1 147.5 2.5t148.5 3.5q-2 -22 -2 -65q0 -13 1 -38.5t1 -38.5q-5 -5 -20 -5q-12 0 -12 7q-12 89 -106 89
h-44q-66 0 -70 -13q-14 -40 -19 -72l-31 -165q0 -2 2.5 -3.5t8.5 -2t12.5 -1t14.5 -0.5h62q45 0 57 9t33 57q3 8 14 8q14 0 18 -6l-37 -190q-4 -4 -17 -4t-14 8q-2 48 -13 59q-10 9 -86 9q-67 0 -69 -8l-31 -164q-8 -44 -8 -73q0 -14 19 -22.5t32.5 -10t21.5 -1.5q2 0 2 -12
q0 -13 -6 -19q-130 7 -135 7z" />
    <glyph glyph-name="G" unicode="G" horiz-adv-x="645" 
d="M406 667q85 0 210 -37q-3 -22 -6.5 -57.5t-6 -60t-3.5 -29.5q-2 -9 -20 -9q-14 0 -20 6q0 14 -2.5 28t-12.5 35.5t-26 36.5t-47 26.5t-72 11.5q-52 0 -96.5 -28t-73 -70t-49 -92.5t-29.5 -93.5t-9 -74q0 -91 44.5 -154.5t127.5 -63.5q68 0 99 23q8 6 10 19q16 82 22 119
q4 24 4 41q0 12 -28 19.5t-41 7.5q-2 0 -2 6q0 17 7 24q115 -5 132 -5q20 0 115 5q0 -30 -7 -30q-27 0 -56 -17q-14 -9 -17 -24q-6 -34 -14 -84q-5 -32 -5 -44v-27q0 -19 -28 -31q-40 -18 -59 -25t-70.5 -17t-111.5 -10q-105 0 -172 80.5t-67 193.5q0 99 52.5 192t141.5 151
t186 58z" />
    <glyph glyph-name="H" unicode="H" horiz-adv-x="709" 
d="M368 368q121 0 122 6l28 146q10 52 10 84q0 14 -19 21t-33 7q-2 0 -2 5q0 17 8 25q105 -5 120 -5q19 0 114 5v-5q0 -25 -6 -25q-8 0 -32.5 -8.5t-28.5 -15.5q-13 -29 -25 -89l-74 -380q-12 -57 -12 -85q0 -11 21.5 -19t30.5 -8q2 0 2 -5q0 -13 -7 -25q-111 6 -115 6
q-25 0 -67 -3t-51 -3q-2 2 -2 7q0 23 6 23q11 0 34 7t28 16q16 32 26 88l32 168l1 1q0 7 -124 7q-80 0 -104.5 -1.5t-25.5 -8.5l-32 -165q-11 -61 -11 -85q0 -11 21.5 -19t30.5 -8q2 0 2 -5q0 -13 -7 -25q-111 6 -115 6q-25 0 -67 -3t-51 -3q-2 2 -2 7q0 23 6 23
q12 0 34.5 6.5t27.5 15.5q16 31 26 89l74 382q10 52 10 82q0 13 -20 21.5t-32 8.5q-2 0 -2 4q0 19 7 26q105 -5 115 -5q24 0 119 5v-4q0 -26 -7 -26q-8 0 -32.5 -8.5t-28.5 -15.5q-16 -35 -25 -89l-27 -143v-1q0 -7 131 -7z" />
    <glyph glyph-name="I" unicode="I" horiz-adv-x="350" 
d="M264 519l-73 -380q-11 -61 -11 -85q0 -11 21.5 -19t30.5 -8q2 0 2 -5q0 -13 -7 -25q-111 6 -115 6q-25 0 -67 -3t-51 -3q-2 2 -2 7q0 23 6 23q12 0 34.5 6.5t27.5 15.5q16 31 26 89l74 382q10 52 10 82q0 13 -20 21.5t-32 8.5q-2 0 -2 4q0 19 7 26q105 -5 115 -5
q24 0 119 5v-4q0 -26 -7 -26q-8 0 -32.5 -8.5t-28.5 -15.5q-10 -22 -25 -89z" />
    <glyph glyph-name="J" unicode="J" horiz-adv-x="431" 
d="M158 94l82 426q10 52 10 82q0 13 -20 21.5t-32 8.5q-2 0 -2 4q0 18 8 26q105 -5 114 -5q25 0 120 5v-4q0 -7 -2.5 -16.5t-5.5 -9.5q-8 0 -32 -8.5t-28 -15.5q-12 -27 -26 -89l-78 -407q-12 -65 -39.5 -120.5t-56.5 -90.5t-65 -64t-59.5 -41.5t-44.5 -21.5q-13 5 -13 20
q0 12 2 16q133 102 168 284z" />
    <glyph glyph-name="K" unicode="K" horiz-adv-x="691" 
d="M264 519l-73 -380q-11 -61 -11 -85q0 -11 21.5 -19t30.5 -8q2 0 2 -5q0 -13 -7 -25q-111 6 -114 6q-25 0 -67.5 -3t-51.5 -3q-2 2 -2 7q0 23 6 23q12 0 34.5 6.5t27.5 15.5q16 31 26 89l74 382q10 52 10 82q0 13 -20 21.5t-32 8.5q-2 0 -2 4q0 19 7 26q105 -5 115 -5
q24 0 119 5v-4q0 -26 -7 -26q-8 0 -32.5 -8.5t-28.5 -15.5q-10 -22 -25 -89zM228 330q80 51 274 254q21 21 21 32q0 16 -49 16q-5 0 -5 11t5 19q68 -4 113 -4q35 0 111 4q0 -30 -8 -30q-75 -8 -108 -42l-230 -235q-7 -7 -7 -16q0 -5 5 -13l179 -234q24 -33 56 -48t55 -15
q2 0 2 -7q0 -10 -6 -22q-18 -3 -67 -3q-107 0 -149 63z" />
    <glyph glyph-name="L" unicode="L" horiz-adv-x="528" 
d="M240 658q42 0 118 4v-4q0 -7 -2.5 -16.5t-5.5 -9.5q-8 0 -32 -8.5t-28 -15.5q-18 -39 -26 -89l-73 -380q-8 -37 -8 -65q0 -17 9 -21t52 -4h35q73 0 115 21q16 8 40 34.5t42 61.5q3 6 14 6q20 0 24 -6q-74 -143 -83 -169q-53 0 -165 2.5t-151 2.5l-121 -5q-2 2 -2 9
q0 21 7 21q10 0 34.5 8.5t28.5 16.5q14 30 24 86l74 380q12 61 10 85q-1 8 -22.5 18.5t-31.5 10.5q-1 0 -1 4q0 20 6 26q73 -4 119 -4z" />
    <glyph glyph-name="M" unicode="M" horiz-adv-x="856" 
d="M623 536l56 125q24 -3 69 -3q38 0 114 4q0 -30 -8 -30q-32 0 -48 -22q-14 -18 -23 -88q-38 -348 -42 -397q-4 -38 -4 -63q0 -31 53 -35q2 0 2 -9q0 -11 -7 -21q-111 6 -113 6q-25 0 -68.5 -3t-51.5 -3q-2 3 -2 7q0 23 6 23q11 0 36 7t30 16q12 20 20 88l34 326q2 20 2 44
q0 8 -4 8q-2 0 -5 -5l-247 -480q-5 -9 -18.5 -21t-25.5 -12q-4 0 -8 2l-88 525q-1 4 -2 4t-3 -4q-105 -379 -111 -411q-12 -50 -12 -52q0 -14 32.5 -24.5t43.5 -10.5q2 0 2 -5q0 -13 -6 -25q-92 5 -115 5q-11 0 -118 -5q-2 4 -2 9q0 21 7 21q14 0 47.5 11t42.5 26
q8 12 20 55l116 430q10 40 10 56q0 12 -26 19.5t-41 7.5q-1 0 -1 6q0 18 7 24q84 -4 104 -4q17 0 93 4q4 -39 76 -466h1q3 0 3 2q151 293 173 338z" />
    <glyph glyph-name="N" unicode="N" horiz-adv-x="763" 
d="M243 658q53 0 93 4q3 -13 9 -29.5t15.5 -39t18 -42t23.5 -50t24.5 -50.5t28 -56.5t27.5 -54.5t29.5 -58t27.5 -55q5 13 10 41l48 250q10 58 10 74t-30.5 28t-45.5 12q-2 0 -2 6q0 19 7 24q84 -4 117 -4q41 0 117 4q0 -30 -7 -30q-11 0 -41.5 -9.5t-42.5 -22.5
q-15 -23 -26 -82l-75 -380q-7 -33 -14.5 -85t-8.5 -55q-4 -4 -18 -4q-11 0 -25 22q-213 426 -261 536l-82 -411q-10 -50 -10 -72q0 -20 30 -31t44 -11q2 0 2 -5q0 -13 -6 -25q-93 5 -116 5q-11 0 -118 -5q-2 4 -2 8q0 5 1.5 10t3 8.5t2.5 3.5q15 0 46.5 9t41.5 24
q11 19 25 84l76 382q8 40 8 75q0 14 -27.5 22.5t-42.5 8.5q-3 0 -3 6q0 19 7 24q80 -4 112 -4z" />
    <glyph glyph-name="O" unicode="O" horiz-adv-x="656" 
d="M374 618q-94 0 -162 -109.5t-68 -256.5q0 -92 37 -152t109 -60q69 0 123.5 64t80.5 148t26 163q0 89 -36.5 146t-109.5 57zM398 667q104 0 172 -75.5t68 -187.5q0 -106 -53 -202t-139.5 -154t-181.5 -58q-106 0 -172 76t-66 192q0 104 54.5 199.5t140.5 152.5t177 57z
" />
    <glyph glyph-name="P" unicode="P" horiz-adv-x="537" 
d="M369 662q38 0 76 -14t68.5 -51t30.5 -90q0 -86 -67 -152.5t-161 -66.5q-47 0 -67 15q-2 4 -2 9q0 14 8 18q20 -2 28 -2q62 0 105 52.5t43 137.5q0 45 -23 71.5t-63 26.5q-66 0 -69 -22l-90 -460q-9 -48 -9 -72q0 -14 19 -22.5t33.5 -10.5t21.5 -2q2 0 2 -12t-6 -18
q-111 6 -125 6q-20 0 -41.5 -1t-48 -2.5t-42.5 -2.5q-2 4 -2 11q0 5 2.5 12t4.5 7q14 0 35.5 5.5t26.5 17.5q9 18 24 88l79 400q7 35 7 62q0 13 -20.5 22.5t-30.5 9.5q-2 0 -2 6q0 18 8 24q105 -5 115 -5q27 0 66 2.5t66 2.5z" />
    <glyph glyph-name="Q" unicode="Q" horiz-adv-x="624" 
d="M384 618q-62 0 -115.5 -50.5t-84 -134.5t-30.5 -181q0 -92 36.5 -152t109.5 -60q52 0 97 37t73 94.5t43.5 121.5t15.5 122q0 89 -36 146t-109 57zM407 667q104 0 172 -75.5t68 -187.5q0 -105 -53.5 -201t-137.5 -154q-34 -23 -87 -47t-100 -33q32 -5 92 -28.5t123.5 -44
t115.5 -20.5q37 0 77 19t61 37q24 -8 24 -22q-20 -26 -84 -64.5t-128 -38.5q-52 0 -108 14.5t-102.5 34t-120 46t-141.5 44.5q0 4 7 14.5t13 12.5l133 21q-89 15 -142 88t-53 176q0 78 32.5 153.5t84 131.5t119.5 90t135 34z" />
    <glyph glyph-name="R" unicode="R" horiz-adv-x="621" 
d="M237 657q28 0 65.5 2.5t64.5 2.5q39 0 77.5 -12.5t70 -47t31.5 -83.5q0 -66 -45.5 -121.5t-97.5 -74.5q-8 -3 -4 -13q42 -131 122 -228q20 -24 46.5 -38.5t47.5 -15.5q0 -14 -9 -30q-4 0 -20.5 -1t-24.5 -1q-73 0 -114 35t-85 119l-65 136q-9 16 -48 16q-14 0 -18.5 -0.5
t-9 -4t-6.5 -11.5l-28 -147q-10 -55 -10 -85q0 -11 21 -19t30 -8q2 0 2 -5q0 -13 -7 -25q-7 0 -41 3t-60 3q-20 0 -41.5 -1t-48 -2.5t-42.5 -2.5q-2 4 -2 11q0 5 2.5 12t4.5 7q14 0 35.5 5.5t26.5 17.5q9 18 24 88l79 400q7 35 7 62q0 13 -20.5 22.5t-30.5 9.5q-2 0 -2 6
q0 18 8 24q105 -5 115 -5zM345 613q-42 0 -55 -5t-16 -20l-40 -210q0 -1 -0.5 -2t-0.5 -2q0 -24 74 -24q48 0 86.5 50.5t38.5 121.5q0 45 -23 68t-64 23z" />
    <glyph glyph-name="S" unicode="S" horiz-adv-x="455" 
d="M314 668q30 0 76 -11.5t64 -14.5q-2 -18 -5.5 -45.5t-6 -45.5t-5 -36.5t-4.5 -27.5t-4 -9q-9 0 -18 3q-13 2 -13 15q0 43 -27.5 82.5t-70.5 39.5q-52 0 -81 -35.5t-29 -75.5q0 -52 78 -113q10 -8 49 -36t53 -41t30 -42t16 -62q0 -89 -72 -155t-168 -66q-58 0 -162 25
q5 80 5 85q0 17 -0.5 46.5t-0.5 30.5q0 8 21 8q12 0 21 -9q0 -49 29 -93t89 -44q56 0 91 42t35 87q0 14 -5.5 27.5t-12 23t-21.5 23t-22 19.5t-26.5 20.5t-24.5 17.5q-27 21 -41 33t-32.5 32.5t-26.5 41.5t-8 46q0 92 71.5 153t158.5 61z" />
    <glyph glyph-name="T" unicode="T" horiz-adv-x="576" 
d="M155 138l70 359q13 63 13 88q0 10 -4 15t-23.5 8t-59.5 3q-46 0 -71.5 -19t-49.5 -74q-3 -6 -9 -6q-18 0 -23 8l47 152q35 -10 62 -10q40 0 102 -3.5t100 -3.5t102 3.5t104 3.5q26 0 66 10l-12 -153q-9 -7 -26 -7q-8 0 -8 5q-1 54 -21.5 74t-62.5 20q-86 0 -94 -17
q-12 -26 -26 -94l-70 -361q-10 -55 -10 -85q0 -11 20.5 -19t29.5 -8q2 0 2 -5q0 -15 -6 -25q-111 6 -116 6q-25 0 -67 -3t-51 -3q-1 1 -1 7q0 23 7 23q11 0 33.5 6.5t27.5 15.5q14 28 25 89z" />
    <glyph glyph-name="U" unicode="U" horiz-adv-x="667" 
d="M90 520q10 52 10 82q0 13 -20 21.5t-31 8.5q-1 0 -1 4q0 20 6 26q105 -5 116 -5q23 0 118 5v-4q0 -26 -7 -26q-8 0 -32.5 -8.5t-28.5 -15.5q-6 -14 -24 -89l-44 -222q-10 -52 -10 -95q0 -140 122 -140q76 0 126.5 45t73.5 165l46 242q14 71 13 92q-1 12 -30 19t-45 7
q-1 0 -1 6q0 17 7 24q84 -4 107 -4q38 0 114 4q0 -30 -7 -30q-10 0 -42.5 -7t-36.5 -13q-8 -17 -25 -98l-46 -238q-30 -157 -100.5 -217.5t-187.5 -60.5q-90 0 -142 51.5t-52 153.5q0 38 12 101z" />
    <glyph glyph-name="V" unicode="V" horiz-adv-x="599" 
d="M190 655q36 0 126 5q1 -2 1 -4q0 -8 -2.5 -18t-5.5 -10q-25 0 -43.5 -9t-20.5 -27q-1 -11 6 -50l69 -374l218 370q19 33 22 58q1 14 -16 23t-41 9q-2 0 -2 6q0 18 7 26q82 -4 99 -4q13 0 105 4q1 -5 0 -10q-3 -22 -7 -22q-19 0 -45.5 -12t-43.5 -42l-326 -551
q-21 -35 -42 -35q-10 0 -14 10l-96 532q-2 11 -15 69q-4 14 -24 21.5t-32 7.5q-3 0 -3 7q0 17 8 25q98 -5 118 -5z" />
    <glyph glyph-name="W" unicode="W" horiz-adv-x="994" 
d="M183 654q4 0 118 6v-4q0 -8 -2 -18t-5 -10q-18 0 -33.5 -9t-17.5 -27q0 -8 6 -34l115 -406q5 4 49 67t57 84l-67 241q-13 46 -22 59q-7 10 -22 17.5t-27 7.5q-2 0 -1 12q1 16 7 20q7 0 49 -3t68 -3q18 0 36.5 1t40.5 2.5t35 2.5v-4q0 -8 -2.5 -18t-5.5 -10
q-19 0 -33.5 -9.5t-16.5 -24.5q-1 -11 6 -34l38 -139l74 117q25 41 27 56q1 13 -12 21.5t-24.5 10.5t-17.5 2q-2 0 -2 8q0 18 7 24q87 -6 102 -6q21 0 39 1t37.5 2.5l32.5 2.5q1 -9 -1.5 -20.5t-5.5 -11.5q-15 0 -39.5 -10.5t-33.5 -20.5q-26 -26 -70 -93l-96 -146
q55 -197 60 -206q1 0 56 90.5t115 187.5t68 109q24 40 25 55q1 12 -11.5 21t-23.5 11t-18 2q-2 0 -2 10q0 16 8 22q87 -6 102 -6q21 0 39 1t37 2.5t33 2.5q0 -32 -7 -32q-16 0 -39.5 -10t-32.5 -20q-32 -31 -71 -94l-303 -485q-10 -16 -21.5 -24t-18.5 -8t-9 5l-69 247
l-149 -220q-22 -32 -40 -32q-5 0 -8 5l-145 526q-16 57 -31 87q-6 10 -23 16.5t-27 6.5q-3 0 -1 12q1 16 6 20q9 0 49 -3t65 -3z" />
    <glyph glyph-name="X" unicode="X" horiz-adv-x="709" 
d="M287 654q15 0 129 6v-3v-3q0 -8 -2.5 -17t-5.5 -9q-15 0 -36 -7.5t-22 -22.5q-1 -12 4 -24q72 -168 73 -168q1 2 17.5 19.5t28 29t30.5 32.5t32.5 36t27 31t21 27t7.5 16q1 13 -18.5 22t-41.5 9q-2 0 -2 8q0 18 8 24q102 -6 112 -6q22 0 41.5 1t42 2.5t34.5 2.5v-5
q0 -8 -2.5 -17.5t-4.5 -9.5q-13 0 -45.5 -9t-48.5 -26l-218 -237q111 -264 123 -284q13 -22 40 -33t40 -11q1 0 0 -13q-1 -11 -4 -19q-102 6 -123 6q-23 0 -45.5 -1t-49.5 -2.5t-46 -2.5q-1 2 -1 9t2.5 15t5.5 8q12 0 33.5 9t22.5 21q2 8 -1 15l-87 207q-36 -39 -109.5 -124
t-74.5 -96q-2 -17 17.5 -24.5t41.5 -7.5q3 0 2 -14q-1 -12 -5 -18q-56 4 -112 4q-52 0 -118 -4q-2 6 -1 10q1 22 6 22q14 0 44.5 8.5t44.5 23.5q241 273 241 274l-81 194q-16 37 -25 54t-21 28q-8 7 -25 12.5t-26 5.5q-2 0 -2 8q0 18 8 24q10 0 53.5 -3t70.5 -3z" />
    <glyph glyph-name="Y" unicode="Y" horiz-adv-x="592" 
d="M197 654q15 0 129 6v-7q0 -8 -2.5 -16.5t-5.5 -8.5q-14 0 -35.5 -8t-22.5 -24q-1 -9 3 -22l67 -195q6 8 35 46t44.5 58t37.5 49.5t32.5 46.5t10.5 23q1 11 -16.5 18.5t-41.5 7.5q-2 0 -2 8q0 18 7 24q93 -6 102 -6q15 0 113 6q1 -5 0 -12q-1 -20 -7 -20q-13 0 -39.5 -9
t-41.5 -24q-20 -22 -121 -155.5t-103 -145.5l-30 -152q-10 -53 -10 -88q1 -10 23.5 -18t29.5 -8q3 0 1 -11q-1 -13 -5 -21q-2 1 -47 4t-69 3q-25 0 -69.5 -3t-54.5 -4q-2 3 -1 12q2 20 7 20q11 0 36 8t29 16q13 24 24 86l30 156q1 5 -18.5 66.5t-39.5 121.5l-20 59
q-17 53 -38 69q-9 6 -25.5 12t-25.5 6q-2 0 -2 7q0 19 8 25q10 0 53.5 -3t70.5 -3z" />
    <glyph glyph-name="Z" unicode="Z" horiz-adv-x="581" 
d="M314 656h104q66 0 204 10q3 -1 4 -14.5t0 -18.5q-2 -4 -114.5 -142.5t-224.5 -274.5l-113 -137q-8 -10 -8 -16q-1 -9 10 -9h179q108 0 161 109q3 7 20 7t22 -6q-8 -17 -22.5 -48t-20.5 -45t-14 -34t-14 -37h-471q-5 9 -4 22q1 14 8 21l458 561h-100q-57 -1 -99.5 -17.5
t-56.5 -40.5q-23 -1 -38 -10t-22.5 -19.5t-21.5 -35.5q-5 -1 -11.5 -1t-8.5 1q1 10 7 43t11 52q7 10 9 16.5t6.5 26.5t12.5 45q9 -3 69 -5.5t79 -2.5z" />
    <glyph glyph-name="bracketleft" unicode="[" horiz-adv-x="351" 
d="M176 755q84 0 184 16q4 0 4 -7q0 -9 -5.5 -20t-13.5 -15q-13 -7 -45.5 -14t-58.5 -7q-9 0 -9 -9l-145 -749q0 -8 5 -8q45 0 95 -25q6 -3 6.5 -13.5t-3 -19t-6.5 -8.5q-105 18 -175 18q-13 0 -13 17v6l158 815q0 2 1.5 6.5t7 10.5t13.5 6z" />
    <glyph glyph-name="backslash" unicode="\" horiz-adv-x="226" 
d="M35 761q42 0 46 -22l126 -726q0 -1 0.5 -3t0.5 -4q0 -20 -10.5 -32t-22.5 -13l-23 2l-137 792q12 6 20 6z" />
    <glyph glyph-name="bracketright" unicode="]" horiz-adv-x="351" 
d="M340 755q13 0 13 -17v-6l-158 -815q0 -2 -1.5 -6.5t-7 -10.5t-13.5 -6q-71 0 -182 -18q-4 0 -4 12q0 23 16 29q59 25 105 25q8 0 8 8l146 749q0 9 -6 9q-26 0 -55.5 7t-39.5 14q-6 3 -7.5 13.5t1.5 19.5t7 9q96 -16 178 -16z" />
    <glyph glyph-name="asciicircum" unicode="^" horiz-adv-x="341" 
d="M35 499q2 3 28 25t64.5 63t69.5 90l2.5 5l2 4t1.5 2t2.5 1.5t3.5 0.5q10 0 13 -6.5t12 -35t25 -60.5q7 -13 21.5 -34t26 -36.5t11.5 -17.5q-9 -28 -17 -28q-13 0 -50.5 41.5t-57.5 76.5q-34 -39 -87 -78.5t-64 -39.5q-7 0 -7 27z" />
    <glyph glyph-name="underscore" unicode="_" horiz-adv-x="531" 
d="M34 -36q0 5 8.5 28t15.5 23h416q4 0 4 -6q0 -12 -16 -47q-1 -3 -3 -4.5t-3 -1.5h-2h-414z" />
    <glyph glyph-name="grave" unicode="`" horiz-adv-x="200" 
d="M38 656q0 10 11 20t34 10q24 0 30 -8q12 -19 26.5 -52.5t24 -58t9.5 -26.5q0 -5 -5.5 -11t-10.5 -6q-11 0 -65 52.5t-54 79.5z" />
    <glyph glyph-name="a" unicode="a" horiz-adv-x="450" 
d="M337 442q49 0 83 -18l-59 -307q-3 -9 -3 -24q0 -25 10 -25t27 13.5t27.5 24.5t15.5 16q2 0 9 -9.5t7 -13.5q-11 -24 -62.5 -65t-87.5 -41q-19 0 -31.5 14.5t-12.5 38.5q0 11 4 33q3 16 4 21q-9 -16 -20.5 -31.5t-28 -34t-37 -29.5t-40.5 -11q-49 0 -77.5 40t-28.5 101
q0 70 41.5 141t112.5 118.5t147 47.5zM287 387q-57 0 -104.5 -86.5t-47.5 -162.5q0 -78 41 -78q34 0 72.5 72t53.5 149l19 96q-9 10 -34 10z" />
    <glyph glyph-name="b" unicode="b" horiz-adv-x="401" 
d="M314 442q46 0 70.5 -36.5t24.5 -101.5q0 -129 -84.5 -220.5t-174.5 -91.5q-43 0 -75 31t-32 83q0 19 5 44l78 402q10 44 10 56q0 20 -56 20q-2 0 -2 7q0 13 8 21q31 2 76.5 13.5t69.5 20.5q7 -4 7 -20q0 -12 -15 -82l-52 -264q33 54 71.5 86t70.5 32zM274 372
q-32 0 -75.5 -71t-56.5 -139q-11 -48 -1.5 -84.5t39.5 -36.5q51 0 91 82.5t40 164.5q0 84 -37 84z" />
    <glyph glyph-name="c" unicode="c" horiz-adv-x="348" 
d="M264 442q59 0 100 -40q4 -16 4 -26q0 -22 -11 -37t-29 -15q-14 0 -24 11t-14.5 24t-14 24t-23.5 11q-26 0 -54 -32.5t-47 -86.5t-19 -109q0 -104 64 -104q22 0 46 14t34.5 24.5l17.5 17.5q2 0 9 -9.5t7 -13.5q-13 -26 -60.5 -63.5t-91.5 -37.5q-63 0 -94.5 42t-31.5 115
q0 68 33.5 136t88 111.5t110.5 43.5z" />
    <glyph glyph-name="d" unicode="d" horiz-adv-x="464" 
d="M327 441h8l1 1l24 120q6 34 6 46q0 20 -55 20q-3 0 -3 7q0 13 8 21q31 2 77.5 13.5t69.5 20.5q8 -4 8 -20q0 -5 -3 -20t-7.5 -34.5t-5.5 -27.5l-91 -471q-3 -9 -3 -24q0 -25 10 -25t27 13.5t27.5 24.5t15.5 16q2 0 9 -9.5t7 -13.5q-12 -24 -63 -65t-87 -41
q-19 0 -31.5 14.5t-12.5 38.5q0 12 4 34q1 6 4 21q-9 -15 -19.5 -30t-27.5 -34.5t-37.5 -31t-40.5 -11.5q-51 0 -79 40t-28 101q0 69 39.5 139t107.5 117.5t141 49.5zM318 350q3 16 -5 26.5t-22 10.5q-40 0 -76.5 -43.5t-56.5 -101t-20 -105.5q0 -77 41 -77q34 0 72 71
t54 151z" />
    <glyph glyph-name="e" unicode="e" horiz-adv-x="356" 
d="M268 442q48 0 77.5 -24.5t29.5 -59.5q0 -47 -47.5 -90t-101.5 -65t-86 -22q-4 0 -4 -23q0 -96 64 -96q22 0 46 14t34.5 24.5l17.5 17.5q2 0 9 -9.5t7 -13.5q-13 -26 -60.5 -63.5t-91.5 -37.5q-62 0 -94 41.5t-32 116.5q0 67 33.5 134.5t88 111.5t110.5 44zM258 394
q-36 0 -74.5 -60.5t-38.5 -105.5q0 -4 4 -4q41 0 87 45.5t46 90.5q0 15 -6 24.5t-18 9.5z" />
    <glyph glyph-name="f" unicode="f" horiz-adv-x="473" 
d="M481 697q64 0 88 -33q0 -83 -48 -83q-13 0 -23 11t-16 24t-16.5 23.5t-22.5 10.5q-32 0 -65 -61t-52 -165v-2q0 -4 3 -4h115q8 0 8 -14q0 -18 -13 -38h-118q-6 0 -7 -8l-57 -301q-14 -74 -41 -131t-61 -88.5t-68.5 -46.5t-68.5 -15q-35 0 -58 12.5t-27 27.5
q-1 31 11.5 51.5t36.5 20.5q11 0 20 -10t14.5 -22.5t16 -23t24.5 -10.5q19 0 36 19t29.5 50t20.5 59.5t13 57.5l66 350v2q0 6 -3 6h-62q-4 0 -4 6q0 10 17.5 28t35.5 18h23q5 0 7 13q21 119 90 192.5t156 73.5z" />
    <glyph glyph-name="g" unicode="g" horiz-adv-x="449" 
d="M308 -108q0 49 -141 82q-17 -7 -28 -12t-26 -14.5t-23 -23t-8 -28.5q0 -76 114 -76q53 0 82.5 21t29.5 51zM264 393q-27 0 -47 -26.5t-29.5 -62.5t-9.5 -72q0 -32 13 -51.5t37 -19.5q27 0 47 26.5t29 60t9 64.5q0 34 -13 57.5t-36 23.5zM283 442q27 0 63 -13t71 -13h48
q7 0 7 -11q1 -21 -10 -35h-53q-6 0 -6 -6q0 -1 1 -9t2.5 -19.5t1.5 -23.5q0 -35 -10 -64.5t-26 -50t-29.5 -32t-27.5 -21.5q-16 -9 -49.5 -23.5t-54.5 -26t-21 -22.5q0 -7 21 -14t51.5 -15t60.5 -20t51 -34t21 -52q0 -65 -62 -114t-177 -49q-70 0 -115.5 28.5t-45.5 72.5
q0 68 130 115q-10 2 -25 13q-25 18 -25 40q0 17 35 40t73 36q-41 7 -70 41t-29 79q0 82 60 142.5t139 60.5z" />
    <glyph glyph-name="h" unicode="h" horiz-adv-x="465" 
d="M349 442q68 0 68 -88q0 -36 -15 -108l-26 -129q-3 -9 -3 -24q0 -25 10 -25t27 13.5t27.5 24.5t14.5 16q3 0 9.5 -9.5t6.5 -13.5q-11 -24 -62 -65t-88 -41q-18 0 -30.5 14.5t-12.5 40.5q0 20 9 63l28 142q9 46 9 56q0 42 -24 42q-18 0 -50.5 -40.5t-63.5 -102.5t-41 -116
l-20 -92q-16 -5 -43 -5t-47 5q111 577 111 581q3 25 -20 37q0 3 -2.5 5t-7 3.5t-8 2.5t-8 2t-6.5 1q-1 7 3 14q14 4 44 14t43 16q11 0 28 1.5t23.5 2t16.5 -0.5q1 -4 0 -14t-3.5 -24t-2.5 -16t-8 -43t-16 -85t-9 -49q7 14 -1 -22q-4 -22 -18 -79q-6 -27 -7 -30q10 21 -1 -19
q-8 -28 -8 -27q22 45 79 108t95 63z" />
    <glyph glyph-name="i" unicode="i" horiz-adv-x="280" 
d="M192 442q18 0 30.5 -14.5t12.5 -39.5t-8 -64l-41 -207q-2 -9 -2 -24q0 -25 10 -25t27 13.5t27.5 24.5t15.5 16q2 0 9 -9.5t7 -13.5q-12 -24 -63 -65t-87 -41q-19 0 -31.5 14.5t-12.5 40.5q0 22 8 63l39 199q4 21 4 32q0 24 -10 24q-12 0 -33 -19t-31 -31q-2 0 -9 10
t-7 14q11 23 60.5 62.5t84.5 39.5zM222 666q20 0 33.5 -14.5t13.5 -35.5q0 -29 -19.5 -51t-46.5 -22q-20 0 -33 15.5t-13 37.5q0 28 19 49t46 21z" />
    <glyph glyph-name="j" unicode="j" horiz-adv-x="317" 
d="M240 442q19 0 31 -14.5t12 -39.5q0 -24 -8 -64l-47 -242q-24 -125 -76 -195q-28 -38 -74.5 -70.5t-76.5 -42.5q-3 1 -7 11.5t-4 16.5q59 44 91 102.5t51 156.5l50 249q3 22 3 32q0 24 -10 24q-12 0 -33 -19t-31 -31q-2 0 -9 10t-7 14q11 23 61 62.5t84 39.5zM276 668
q21 0 34.5 -15.5t13.5 -36.5q0 -29 -20 -50.5t-46 -21.5q-21 0 -33.5 15t-12.5 37q0 29 19 50.5t45 21.5z" />
    <glyph glyph-name="k" unicode="k" horiz-adv-x="475" 
d="M352 442q38 0 67.5 -22.5t29.5 -57.5q0 -63 -56.5 -106.5t-128.5 -53.5q42 -71 71.5 -106t49.5 -35q18 0 38.5 17.5t28.5 30.5q3 0 12 -9t9 -12q-8 -23 -46 -57.5t-77 -34.5q-13 0 -25.5 4t-25 13.5t-23 19t-22.5 25.5t-20 26.5t-19 29.5t-16.5 28t-16 28t-12.5 24
l-38 -194q-17 -6 -44 -6q-20 0 -46 6l106 552q10 44 10 56q0 20 -56 20q-2 0 -2 7q0 13 8 21q31 2 76.5 13.5t69.5 20.5q7 -4 7 -20q0 -3 -15 -82l-48 -254q6 10 16.5 24t30.5 35t48.5 35t58.5 14zM312 382q-24 0 -55.5 -30t-52 -63.5t-20.5 -46.5q0 -6 18 -6q5 0 20.5 2.5
t40 8.5t44.5 21t25 36q11 16 4.5 47t-24.5 31z" />
    <glyph glyph-name="l" unicode="l" horiz-adv-x="238" 
d="M54 111l88 453q6 31 6 44q0 20 -55 20q-3 0 -3 7q0 13 8 21q31 2 77 13.5t70 20.5q8 -4 8 -20q0 -8 -15 -82l-92 -471q-2 -11 -2 -24q0 -25 10 -25q9 0 26 13.5t27.5 24.5t15.5 16q2 0 9 -9.5t7 -13.5q-11 -24 -62.5 -65t-87.5 -41q-19 0 -31 14.5t-12 40.5q0 22 8 63z
" />
    <glyph glyph-name="m" unicode="m" horiz-adv-x="725" 
d="M378 442q74 0 74 -102q0 -11 -9 -61q30 54 81.5 108.5t85.5 54.5q72 0 72 -88q0 -36 -16 -108l-26 -129q-2 -9 -2 -24q0 -25 10 -25q9 0 26 13.5t27.5 24.5t15.5 16q2 0 9 -9.5t7 -13.5q-11 -24 -62.5 -65t-87.5 -41q-19 0 -31 14.5t-12 40.5q0 20 8 63l29 142q9 41 9 56
q0 21 -5 31.5t-19 10.5q-30 0 -83.5 -87t-68.5 -164l-20 -100q-26 -4 -46 -4q-25 0 -46 4l52 263q7 34 7 48q0 40 -25 40q-19 0 -51.5 -43t-61 -103.5t-37.5 -108.5l-20 -96q-23 -5 -45 -5q-21 0 -46 5l60 310q4 22 4 32q0 24 -10 24q-12 0 -33.5 -19t-30.5 -31
q-3 0 -9.5 10t-6.5 14q11 23 60.5 62.5t83.5 39.5q19 0 31.5 -14.5t12.5 -39.5q0 -19 -7 -59l-12 -59q31 57 80.5 114.5t83.5 57.5z" />
    <glyph glyph-name="n" unicode="n" horiz-adv-x="502" 
d="M188 442q19 0 31.5 -14.5t12.5 -39.5q0 -19 -7 -59q-1 -4 -2 -10t-3.5 -19t-4 -21.5l-1.5 -8.5q22 45 78.5 108.5t94.5 63.5q68 0 68 -88q0 -36 -15 -108l-26 -129q-3 -9 -3 -24q0 -25 10 -25t27 13.5t27.5 24.5t14.5 16q3 0 9.5 -9.5t6.5 -13.5q-11 -24 -62 -65t-88 -41
q-18 0 -30.5 14.5t-12.5 40.5q0 20 9 63l29 142q8 41 8 56q0 42 -24 42q-18 0 -50.5 -40.5t-63.5 -102.5t-41 -116l-20 -92q-16 -5 -43 -5t-47 5l60 310q4 22 4 32q0 24 -10 24q-12 0 -33.5 -19t-30.5 -31q-3 0 -9.5 10t-6.5 14q11 23 60.5 62.5t83.5 39.5z" />
    <glyph glyph-name="o" unicode="o" horiz-adv-x="402" 
d="M262 395q-31 0 -59.5 -42.5t-44.5 -102.5t-16 -116q1 -43 14 -67.5t36 -24.5q32 0 60 44.5t42.5 104t13.5 111.5q0 44 -12 68.5t-34 24.5zM273 442q68 0 101.5 -42.5t33.5 -115.5q0 -71 -33 -138.5t-86.5 -109.5t-110.5 -42q-69 0 -102.5 42t-33.5 114q0 68 33 136
t87 112t111 44z" />
    <glyph glyph-name="p" unicode="p" horiz-adv-x="468" 
d="M321 374q-23 0 -47 -18t-41 -44l-40 -210q-11 -54 33 -54q32 0 66 37t56 96t22 117q0 33 -12 54.5t-37 21.5zM364 442q50 0 77 -42.5t27 -99.5q0 -111 -87.5 -208t-168.5 -97q-24 0 -39 10l-26 -135q-3 -14 -3 -25q0 -25 18 -29q15 -4 42 -4q4 0 4 -9q0 -15 -4 -22h-74
q-62 -1 -134 -9q-4 2 -4 8q0 19 5 24q31 0 45 16q7 10 14 46l71 366l-43 -39q-8 11 -8 25q0 6 5 11q46 48 56 57l30 152q22 5 45 5q25 0 46 -7q-12 -56 -13 -59q2 1 11.5 11t15 15t17 13.5t21.5 13t24.5 8.5t29.5 4z" />
    <glyph glyph-name="q" unicode="q" horiz-adv-x="415" 
d="M292 387q-38 0 -73.5 -40.5t-56 -97t-20.5 -105.5q0 -83 40 -83q33 0 73 67.5t53 131.5l23 116q-7 11 -39 11zM342 442q52 0 88 -18l-82 -426q-1 -6 -12.5 -71t-11.5 -67q0 -16 4.5 -23t20.5 -9q5 -19 19 -23q3 -1 7 -1q1 -6 -1 -12q-16 -9 -27 -11q-55 0 -117 -5
q-66 3 -75 3q0 15 2 16l1 1q30 12 38 44q2 0 14 23.5t25 53t15 43.5q-2 -5 -3 5q-1 5 -3 22q-7 71 -19 71q-31 -11 -51.5 -16t-44.5 -1t-38 23q-6 16 -12.5 24t-11 9.5t-8.5 1t-7 -1.5t-5 1t-3 10t-1 24q0 73 42.5 145t112.5 118.5t144 46.5z" />
    <glyph glyph-name="r" unicode="r" horiz-adv-x="405" 
d="M192 442q19 0 31 -14.5t12 -39.5q0 -26 -5 -54q-12 -62 -13 -64q28 64 73 118t86 54q36 0 61 -36q0 -83 -49 -83q-12 0 -27 17.5t-29 17.5q-17 0 -48 -41t-60 -103.5t-40 -116.5l-18 -97q-22 -4 -45 -4q-24 0 -47 4l60 310q3 22 3 32q0 24 -10 24q-12 0 -33 -19t-31 -31
q-2 0 -9 10t-7 14q11 23 61 62.5t84 39.5z" />
    <glyph glyph-name="s" unicode="s" horiz-adv-x="322" 
d="M238 444q60 0 94 -34q8 -12 8 -29q0 -23 -10.5 -37.5t-27.5 -14.5q-20 0 -43 34t-51 34q-20 0 -30 -12t-10 -33q0 -22 19 -52.5t42.5 -57t43 -61t19.5 -63.5q0 -55 -45 -90t-111 -35q-60 0 -95 35q-7 10 -7 26q0 23 10.5 38.5t26.5 15.5q14 0 25.5 -11t18.5 -23.5
t20.5 -23t30.5 -10.5q20 0 31 12t11 32q0 28 -31 68.5t-62 85t-31 81.5q0 48 45 86.5t109 38.5z" />
    <glyph glyph-name="t" unicode="t" horiz-adv-x="277" 
d="M154 534q2 12 68 12q15 0 25 -2l-25 -120h90q7 0 7 -14q0 -19 -11 -36h-95l-50 -257q-3 -9 -3 -24q0 -25 10 -25t27 13.5t27.5 24.5t15.5 16q2 0 9 -9.5t7 -13.5q-11 -24 -62.5 -65t-87.5 -41q-19 0 -31.5 14.5t-12.5 40.5q0 22 9 63l51 263h-64q-3 0 -3 12q0 10 4.5 22
t8.5 16h64z" />
    <glyph glyph-name="u" unicode="u" horiz-adv-x="492" 
d="M183 442q19 0 31 -14.5t12 -39.5q0 -29 -8 -64l-29 -142q-8 -43 -8 -56q0 -42 24 -42q17 0 49 40.5t61.5 102.5t40.5 117l19 91q17 5 44 5q26 0 46 -5l-61 -318q-2 -11 -2 -24q0 -25 10 -25q9 0 26 13.5t27.5 24.5t15.5 16q2 0 9 -9.5t7 -13.5q-11 -24 -62.5 -65
t-87.5 -41q-19 0 -31 14.5t-12 40.5q0 16 7 58q1 4 2 10t3.5 19t4 21.5l1.5 8.5q-13 -26 -40.5 -64t-65 -73t-63.5 -35q-68 0 -68 87q0 37 15 108l24 122q4 18 4 32q0 24 -10 24q-12 0 -33 -19t-31 -31q-2 0 -9 10t-7 14q11 23 61 62.5t84 39.5z" />
    <glyph glyph-name="v" unicode="v" horiz-adv-x="429" 
d="M184 442q19 0 31.5 -14.5t12.5 -39.5t-7 -59l-31 -158q-6 -30 -6 -50q0 -46 34 -46q29 0 66 38t63.5 91.5t26.5 93.5q0 24 -16 49t-16 43q0 23 16.5 37.5t39.5 14.5q22 0 35 -10q12 -20 12 -58q0 -64 -29.5 -134t-71.5 -122t-88.5 -86t-81.5 -34q-38 0 -62 24.5t-24 65.5
q0 27 4 48l34 174q4 16 4 32q0 24 -10 24q-12 0 -33 -19t-31 -31q-2 0 -9 10t-7 14q11 23 60.5 62.5t83.5 39.5z" />
    <glyph glyph-name="w" unicode="w" horiz-adv-x="659" 
d="M184 442q19 0 31.5 -14.5t12.5 -39.5t-7 -59l-31 -158q-6 -30 -6 -50q0 -46 34 -46q24 0 52 22.5t52 62.5q18 158 34 220t52 62q47 0 47 -58q0 -63 -39 -188q-5 -32 -5 -48q0 -43 7 -58t28 -15q28 0 64 38t61 91t25 94q0 23 -17 49.5t-17 44.5q0 23 17 36.5t39 13.5
q24 0 36 -10q12 -20 12 -58q0 -85 -47 -175t-109 -145.5t-108 -55.5q-39 0 -63 23.5t-25 65.5q-79 -89 -140 -89q-38 0 -62 24.5t-24 65.5q0 27 4 48l34 174q4 16 4 32q0 24 -10 24q-12 0 -33 -19t-31 -31q-2 0 -9 10t-7 14q11 23 60.5 62.5t83.5 39.5z" />
    <glyph glyph-name="x" unicode="x" horiz-adv-x="489" 
d="M215 442q38 0 62 -82l18 -62l51 84q36 60 89 60q37 0 65 -19q7 -14 7 -27q0 -19 -12 -33t-31 -14q-15 0 -31 12.5t-28 12.5q-17 0 -29 -22l-64 -111l41 -141q4 -12 11 -21t14 -9q15 0 36.5 18t28.5 30q3 0 10 -9t7 -13q-7 -22 -54 -61.5t-84 -39.5q-38 0 -62 83l-21 73
l-58 -97q-37 -60 -89 -60q-38 0 -65 19q-7 13 -7 27q0 19 11.5 33t30.5 14q15 0 31.5 -12.5t28.5 -12.5q16 0 28 22l73 123l-39 129q-9 32 -25 32q-15 0 -36.5 -18.5t-28.5 -30.5q-3 0 -10 9t-7 13q7 22 54.5 61.5t83.5 39.5z" />
    <glyph glyph-name="y" unicode="y" horiz-adv-x="484" 
d="M213 442q20 0 36.5 -26t27 -68.5t17.5 -87.5t11 -94t5.5 -75.5t1.5 -43.5q28 34 65 106.5t37 125.5q0 59 -31 111q3 22 19.5 37t37.5 15q25 0 37.5 -21.5t12.5 -45.5q0 -76 -32.5 -164t-85 -163t-113 -138t-121 -99.5t-104.5 -36.5q-26 0 -43 12.5t-17 35.5q0 28 20 44
q33 -12 72 -12q79 0 130 70q22 30 22 111q0 86 -14.5 181t-42.5 136q-10 7 -39 -9q-5 0 -12 -2t-13.5 -5t-12 -5.5t-6.5 -2.5q2 5 24 32t55.5 54.5t55.5 27.5z" />
    <glyph glyph-name="z" unicode="z" horiz-adv-x="419" 
d="M188 442q23 0 76.5 -12t87.5 -12q15 0 36 12t35 12q15 0 15 -30q0 -3 -75 -82.5t-150.5 -157.5l-75.5 -78q3 0 18.5 7t25.5 7q26 0 65.5 -14.5t59.5 -14.5q13 0 27.5 13.5t25.5 29t13 16.5q6 2 11 -6t7 -18q-6 -13 -15 -29.5t-24 -37.5t-35 -35t-40 -14q-22 0 -76 12.5
t-88 12.5q-16 0 -40.5 -12.5t-35.5 -12.5q-8 0 -12.5 9t-5.5 17q0 4 75.5 84.5t151 159.5l75.5 79q-1 0 -8.5 -4t-15.5 -7t-14 -3q-25 0 -61 14.5t-56 14.5q-14 0 -28.5 -13.5t-25 -29t-13.5 -17.5q-6 -2 -11.5 6t-8.5 17q13 34 46 75.5t64 41.5z" />
    <glyph glyph-name="braceleft" unicode="{" horiz-adv-x="312" 
d="M15 22q0 45 33 115.5t33 96.5q0 9 -3.5 17t-7 12.5t-13 9.5t-13.5 7t-17 6.5t-16 5.5q-1 4 1 16.5t7 19.5q54 14 76.5 36t22.5 74q0 15 -3 46t-3 48q0 97 67 157.5t143 60.5q3 0 3 -5q0 -6 -4 -15.5t-9 -10.5q-8 -1 -23.5 -7.5t-36.5 -21.5t-35.5 -47t-14.5 -74
q0 -15 2.5 -42.5t2.5 -43.5q0 -80 -37.5 -127.5t-67.5 -47.5q22 0 39.5 -25.5t17.5 -62.5q0 -47 -35 -117.5t-35 -106.5q0 -37 21.5 -62.5t43.5 -27.5q6 -2 5 -16.5t-7 -14.5q-54 0 -95.5 42t-41.5 105z" />
    <glyph glyph-name="bar" unicode="|" horiz-adv-x="229" 
d="M163 757q19 18 52 18q19 0 18 -9l-168 -872q-7 -6 -25.5 -12t-33.5 -6q-5 0 -9.5 2.5t-3.5 6.5q135 702 170 872z" />
    <glyph glyph-name="braceright" unicode="}" horiz-adv-x="317" 
d="M-10 -125q-3 0 -3 5t4 15t9 11q7 0 19 5t28.5 17t30.5 28.5t23.5 43.5t9.5 59q0 14 -3 40t-3 42q0 75 36 121t68 46q-22 0 -39 26.5t-17 64.5q0 46 36 123t36 112q0 36 -22 59.5t-44 25.5q-6 1 -5 16t6 15q57 0 99.5 -37t42.5 -102q0 -47 -35.5 -120.5t-35.5 -100.5
t17.5 -40t50.5 -22q1 -2 1 -7q0 -21 -7 -29q-4 -1 -17.5 -5t-17.5 -5.5t-14.5 -6t-14.5 -7.5t-11.5 -9t-10 -12.5t-6.5 -16t-5.5 -21t-1.5 -25.5t2.5 -43t2.5 -44q0 -65 -36.5 -118t-83.5 -78.5t-89 -25.5z" />
    <glyph glyph-name="asciitilde" unicode="~" horiz-adv-x="534" 
d="M186 356q44 0 104 -26t104 -26q17 0 35 7.5t28 14t31 22.5q5 -5 5 -13q0 -29 -43.5 -58t-91.5 -29q-44 0 -106 26t-106 26q-6 0 -11.5 -0.5t-11.5 -2.5t-10 -3t-10.5 -5t-9 -5t-10 -6.5t-9 -6.5t-10.5 -7.5t-10 -7.5q-6 6 -6 13q0 31 49 59t89 28z" />
    <glyph glyph-name="uni00A0" unicode="&#xa0;" horiz-adv-x="146" 
 />
    <glyph glyph-name="exclamdown" unicode="&#xa1;" horiz-adv-x="224" 
d="M209 378q-3 -30 -24.5 -50t-48.5 -20q-24 0 -38 18t-11 42q3 30 24 51.5t49 21.5q23 0 37.5 -18t11.5 -45zM32 -208q-19 0 -30 16t-8 40q1 12 19 75.5t47.5 163.5t42.5 147q3 12 13.5 19t18.5 7q6 0 6 -20q-2 -37 -16.5 -179t-25.5 -208q-5 -24 -24 -42.5t-43 -18.5z" />
    <glyph glyph-name="cent" unicode="&#xa2;" horiz-adv-x="415" 
d="M14 165q0 109 79.5 195t176.5 86h13q14 40 17 50q12 6 37 6q7 0 11 -3.5t2 -7.5l-19 -51q27 -6 52.5 -22t26.5 -36q0 -7 -3.5 -19.5t-18 -27t-36.5 -14.5q-10 0 -17.5 6.5t-17 20.5t-12.5 18l-112 -313q14 -5 36 -5q28 0 55 14t40 28l13 13q9 0 9 -7q0 -17 -3 -24
q-12 -20 -61.5 -49.5t-101.5 -29.5h-8q-14 -40 -17 -51q-10 -5 -39 -5q-3 0 -7.5 3t-3.5 6l20 54q-52 15 -81.5 59.5t-29.5 105.5zM122 173q0 -62 30 -92l113 315q-10 2 -18 2q-38 0 -68 -41.5t-43.5 -92t-13.5 -91.5z" />
    <glyph glyph-name="sterling" unicode="&#xa3;" horiz-adv-x="457" 
d="M363 636q33 0 60.5 -9.5t34.5 -26.5q-13 -71 -53 -71q-20 0 -39 28.5t-37 28.5q-53 0 -82.5 -49t-35.5 -114q-3 -26 -1 -61q0 -3 3 -3h151q7 0 7 -14q0 -24 -17 -41h-139q-5 0 -5 -3q0 -22 -5 -45q-17 -84 -88 -167q31 17 78 17q27 0 63.5 -16.5t50.5 -16.5q11 0 21 3
t16.5 6t17 12t13.5 12t15.5 16t14.5 16q3 0 8 -5t5 -10q0 -4 -1 -5q-10 -21 -25.5 -45t-47.5 -51t-65 -27q-32 0 -86 15.5t-75 15.5q-17 0 -34 -4t-25.5 -8t-23 -12t-16.5 -9q-13 3 -21 10.5t-8 13.5l5 5q40 31 74 88.5t44 127.5q6 44 6 62q0 4 -4 4h-72q-3 6 -3 16
q0 12 6.5 25.5t13.5 13.5h57q3 0 3 4q0 23 4 49q9 105 74 164.5t163 59.5z" />
    <glyph glyph-name="currency" unicode="&#xa4;" horiz-adv-x="475" 
d="M257 458q-48 0 -78.5 -66t-30.5 -132q0 -45 18 -73.5t51 -28.5q48 0 79 65t31 131q0 45 -18.5 74.5t-51.5 29.5zM275 497q58 0 97 -39l61 52q1 1 4 1q8 0 17 -16t10 -31l-61 -51q13 -33 13 -67q0 -85 -60 -152l36 -52q1 -1 1 -3q0 -8 -18 -22t-34 -18l-35 53
q-51 -32 -105 -32q-60 0 -100 38l-58 -49q-1 -1 -4 -1q-8 0 -17.5 16t-10.5 31l59 49q-12 28 -12 65q0 85 63 155l-36 54q-1 1 -1 2q0 8 17.5 22t33.5 18l36 -54q50 31 104 31z" />
    <glyph glyph-name="yen" unicode="&#xa5;" horiz-adv-x="593" 
d="M43 108q-5 0 -5 10q0 9 5.5 22.5t11.5 17.5h100l9 48h-104q-5 0 -5 10q0 9 5.5 22.5t11.5 17.5h101q0 1 2 9t2 13q0 3 -2 11l-72 239q-14 47 -40 66q-22 16 -49 16q-3 0 -3 8q0 16 8 22q110 -5 122 -5q43 0 136 5v-4q0 -7 -2.5 -16.5t-5.5 -9.5q-14 0 -34 -8t-20 -26
q0 -7 5 -22l56 -178q2 -3 3 -3q5 0 7 5q152 182 152 206q0 12 -20.5 19t-42.5 7q-2 0 -2 6q0 19 7 24q85 -5 107 -5q21 0 114 5q0 -29 -6 -29q-9 0 -39.5 -10t-42.5 -22q-21 -21 -124.5 -150.5t-107.5 -152.5l-4 -20h109q4 0 4 -10q0 -9 -5.5 -22.5t-11.5 -17.5h-105l-9 -48
h110q4 0 4 -10q0 -9 -5.5 -22.5t-11.5 -17.5h-107q-6 -32 -6 -55q0 -11 21 -19t29 -8q2 0 2 -4q0 -14 -6 -26q-12 1 -32.5 2.5t-38 2.5t-35.5 1q-19 0 -39.5 -1t-45.5 -2.5t-39 -2.5q-2 2 -2 7q0 7 3 15t5 8q10 0 32.5 8t27.5 16q13 23 20 58h-102z" />
    <glyph glyph-name="brokenbar" unicode="&#xa6;" horiz-adv-x="229" 
d="M162 753q18 17 52 17q20 0 19 -8l-70 -363q-7 -6 -25.5 -12.5t-33.5 -6.5q-5 0 -9 3t-3 7q35 193 70 363zM64 248q19 18 52 18q20 0 19 -9l-70 -363q-7 -6 -25.5 -12t-33.5 -6q-5 0 -9.5 2.5t-3.5 6.5z" />
    <glyph glyph-name="section" unicode="&#xa7;" horiz-adv-x="386" 
d="M289 652q32 0 51.5 -12t25.5 -26q-7 -65 -43 -65q-9 0 -17 8.5t-13.5 19t-16.5 19t-25 8.5q-30 0 -51.5 -20t-21.5 -54q0 -27 18 -48.5t44 -37.5t52 -33.5t44 -44.5t18 -62q0 -56 -28.5 -101t-58.5 -67q2 -10 2 -18q0 -72 -46.5 -121t-120.5 -49q-33 0 -53 11t-25 25
q2 23 13 44.5t30 21.5q15 0 33 -27.5t41 -27.5q27 0 49 20.5t22 53.5q0 27 -18 49.5t-44 39t-51.5 34.5t-43.5 45.5t-18 62.5q0 45 22 89.5t64 74.5q-1 5 -1 16q0 74 47 123t120 49zM101 357q0 -31 20.5 -55t46.5 -37.5t53 -38t38 -54.5q31 24 31 68q0 30 -20.5 54.5
t-46 39.5t-53 39t-37.5 53q-32 -26 -32 -69z" />
    <glyph glyph-name="dieresis" unicode="&#xa8;" horiz-adv-x="367" 
d="M295 593q20 0 33 -16.5t13 -37.5q0 -29 -20 -50t-48 -21q-19 0 -30.5 16t-11.5 37q0 29 18 50.5t46 21.5zM105 593q20 0 33 -16.5t13 -37.5q0 -29 -20 -50t-48 -21q-19 0 -30.5 16t-11.5 37q0 29 18 50.5t46 21.5z" />
    <glyph glyph-name="copyright" unicode="&#xa9;" horiz-adv-x="567" 
d="M313 481q44 0 87 -12q1 0 1 -7q0 -46 -5 -61q-1 -4 -8 -4q-6 0 -12 2q-1 18 -16 35t-51 17q-39 0 -64.5 -47t-25.5 -99q0 -34 14.5 -55t44.5 -21q35 0 53 15q4 3 8 7t7 7.5t5.5 6.5t4.5 5l1 2q1 0 2 0.5t2 0.5q9 0 12 -5q-1 -7 -10.5 -26t-16.5 -23q-37 -20 -92 -20
q-44 0 -72 31.5t-28 78.5q0 63 47 117.5t112 54.5zM329 569q-100 0 -180.5 -83.5t-80.5 -190.5q0 -79 48 -130.5t124 -51.5q100 0 180.5 84t80.5 191q0 79 -48 130t-124 51zM338 615q91 0 149 -61.5t58 -155.5q0 -129 -97 -229t-217 -100q-91 0 -148 61.5t-57 155.5
q0 129 96 229t216 100z" />
    <glyph glyph-name="ordfeminine" unicode="&#xaa;" horiz-adv-x="348" 
d="M232 555q20 0 42 -4t27 -8l-38 -201q-3 -15 -3 -22q0 -21 15 -21q8 0 23 22l16 22q3 0 8 -5.5t6 -11.5q-9 -22 -33.5 -49.5t-53.5 -27.5q-37 0 -43 44v12t0.5 11.5t0.5 7.5v2l-2 -2q-17 -25 -47 -50.5t-57 -25.5q-66 0 -66 72q0 73 70.5 154t134.5 81zM217 521
q-34 0 -75.5 -66.5t-41.5 -116.5q0 -44 24 -44q22 0 52 46t39 95l11 64q2 8 2 12q0 10 -11 10z" />
    <glyph glyph-name="guillemotleft" unicode="&#xab;" horiz-adv-x="470" 
d="M436 423q6 -1 14.5 -7t8.5 -13q0 -4 -2.5 -7.5t-19.5 -19.5t-55 -48l-91 -80l58 -81q7 -9 17 -22t14.5 -19t9.5 -13t7 -11t2 -7q0 -14 -32 -22q-5 7 -22.5 25.5t-58 56t-85.5 72.5q-5 2 -5 10q0 18 13 31q143 82 227 155zM261 423q8 -2 15 -8.5t7 -11.5q0 -4 -2.5 -7.5
t-19.5 -19.5t-55 -48l-91 -80l58 -81q8 -10 17.5 -22t14.5 -18.5t9.5 -13t6.5 -10.5t2 -7q0 -12 -32 -23q-5 7 -22.5 25.5t-58 56t-85.5 72.5q-5 3 -5 10q0 18 13 31q58 33 114.5 71.5t82.5 58.5t31 25z" />
    <glyph glyph-name="logicalnot" unicode="&#xac;" horiz-adv-x="510" 
d="M52 424h416q11 0 9 -12l-47 -246q-16 -10 -47 -10q-6 0 -11 2.5t-4 6.5l36 185l1 1q0 9 -9 9h-364l-3 14q0 8 8.5 29t14.5 21z" />
    <glyph glyph-name="registered" unicode="&#xae;" horiz-adv-x="566" 
d="M335 636q-100 0 -180.5 -83.5t-80.5 -190.5q0 -79 48 -130.5t124 -51.5q100 0 180.5 84t80.5 191q0 79 -48 130t-124 51zM344 682q91 0 149 -61.5t58 -155.5q0 -129 -97 -229t-217 -100q-91 0 -148 61.5t-57 155.5q0 129 96 229t216 100zM303 530q-13 0 -18 -2
q-5 -1 -7 -9l-15 -77q-1 -2 -1 -6q0 -9 26 -9q22 0 35 20.5t13 45.5q0 37 -33 37zM315 554q30 0 53.5 -14.5t23.5 -44.5q0 -27 -17 -50t-43 -35q-2 -2 -2 -3v-2q8 -30 29 -68q26 -50 51 -50q0 -7 -3 -13q-3 -2 -15 -2q-40 0 -58 15.5t-34 49.5q-7 15 -14 34t-10 25
q-2 7 -13 7q-8 0 -9 -7l-16 -82q-1 -3 -1 -12q0 -6 3 -8q9 -8 18 -8q1 0 1 -2q0 -6 -3 -12q-5 0 -23 2t-29 2t-31 -2t-27 -2v8q0 4 2 6q21 4 27 12q6 11 10 33l31 167q5 22 5 30q0 5 -8 8.5t-14 3.5q-1 0 -1 4q0 6 2 10q34 -2 52 -2q12 0 31 1t32 1z" />
    <glyph glyph-name="macron" unicode="&#xaf;" horiz-adv-x="321" 
d="M68 597h216q6 0 6 -15q0 -7 -6.5 -25t-14.5 -23h-214q-7 0 -7 19q0 9 6.5 23.5t13.5 20.5z" />
    <glyph glyph-name="degree" unicode="&#xb0;" horiz-adv-x="249" 
d="M145 594q-27 0 -46 -21.5t-19 -48.5q0 -20 11.5 -33t31.5 -13q26 0 45 21.5t19 48.5q0 20 -11 33t-31 13zM153 634q33 0 53.5 -22.5t20.5 -56.5q0 -46 -35 -82t-77 -36q-33 0 -54 23t-21 57q0 47 36 82t77 35z" />
    <glyph glyph-name="plusminus" unicode="&#xb1;" horiz-adv-x="508" 
d="M19 102h427q4 0 4 -14q0 -25 -23 -50h-428q-4 0 -4 13q0 23 24 51zM77 404h172q4 0 4 4q6 29 16 88.5t17 95.5q2 9 27 13.5t37 4.5q6 0 8.5 -2.5t1.5 -5.5q-23 -130 -35 -192q-2 -6 3 -6h177q4 0 4 -13q0 -25 -24 -51h-172q-4 0 -4 -4l-35 -184q-1 -7 -21.5 -12.5
t-36.5 -5.5q-8 0 -12 3.5t-3 6.5l36 192q0 4 -4 4h-175q-5 0 -5 14q0 22 24 50zM19 102q-24 -28 -24 -51q0 -13 4 -13h428q23 25 23 50q0 14 -4 14h-427zM77 404q-24 -28 -24 -50q0 -14 5 -14h175q4 0 4 -4l-36 -192q-1 -3 3 -6.5t12 -3.5q16 0 36.5 5.5t21.5 12.5
q22 112 35 184q0 4 4 4h172q24 26 24 51q0 13 -4 13h-177q-5 0 -3 6l35 192q1 3 -1.5 5.5t-8.5 2.5q-12 0 -37 -4.5t-27 -13.5q-7 -36 -17 -95.5t-16 -88.5q0 -4 -4 -4h-172z" />
    <glyph glyph-name="uni00B2" unicode="&#xb2;" horiz-adv-x="316" 
d="M213 646q38 0 60 -23.5t22 -60.5q0 -40 -29 -84.5t-60 -72t-70 -56.5t-41 -31q-1 -1 -1 -3q0 -1 1 -1h116q18 0 30 11t18.5 22t10.5 11q11 0 16 -5q-17 -30 -43 -99h-103h-121q-6 6 -6 20q0 4 4 14q199 184 199 254q0 20 -10 34t-31 14q-14 0 -33.5 -11t-33.5 -22
t-16 -11t-6 8t-4 13q0 7 3 12q11 18 50 42.5t78 24.5z" />
    <glyph glyph-name="uni00B3" unicode="&#xb3;" horiz-adv-x="294" 
d="M106 282q40 0 65 35t25 74q0 51 -55 51q-13 0 -35 -3q-4 8 -4 15q0 11 8 15q29 6 50 19t29.5 28.5t12 26.5t3.5 20q0 15 -10 24t-23 9q-21 0 -45.5 -18.5t-26.5 -18.5q-5 0 -9 12t-1 15q21 25 55.5 42.5t68.5 17.5q23 0 43.5 -15.5t20.5 -44.5q0 -34 -26 -62.5t-58 -45.5
q23 0 50 -20.5t27 -56.5q0 -58 -55.5 -106.5t-135.5 -48.5q-22 0 -45 8t-24 19q0 15 12 29t27 14q12 0 26 -17t30 -17z" />
    <glyph glyph-name="acute" unicode="&#xb4;" horiz-adv-x="239" 
d="M188 686q35 0 35 -22q0 -23 -79.5 -81.5t-91.5 -58.5q-4 0 -7.5 6.5t-3.5 10.5q0 6 43.5 60.5t62.5 72.5q13 12 41 12z" />
    <glyph glyph-name="uni00B5" unicode="&#xb5;" horiz-adv-x="447" 
d="M169 442q9 0 29 -14.5t18 -23.5q-9 -46 -49 -148l-11 -33q-13 -59 -8 -102.5t28 -43.5q70 0 130 136q0 2 13 56t25 107l12 53q14 13 31 13q19 -2 36.5 -15t14.5 -23q-6 -38 -53 -158l-9 -23q-16 -61 -13.5 -106t31.5 -45q15 0 33 10.5t27 20.5q2 0 7 -11q2 -8 -1 -16
q-15 -33 -44 -56.5t-56 -23.5q-29 1 -39.5 39t-6.5 93q-37 -62 -74.5 -99.5t-79.5 -37.5q-7 0 -12 1.5t-9 5.5t-6.5 7.5t-5 10t-4 10.5t-3 13t-2 12.5t-1.5 13t-1 11.5q0 -3 -8.5 -42t-15 -76t-5 -82t16.5 -68q-3 -9 -20 -20.5t-29 -11.5q-21 0 -34 27t-13 67q0 64 83 334
q3 14 9 51t6 43q7 27 25 124q5 6 17.5 13t20.5 7z" />
    <glyph glyph-name="paragraph" unicode="&#xb6;" horiz-adv-x="389" 
d="M175 274l-42 -221q-1 -3 2 -5.5t6 -2.5q7 -7 18 2q16 29 32 113q8 27 24 124q-2 2 -14 0q-4 0 -14.5 -3.5t-11.5 -6.5zM183 652q27 0 51 -2t51 -2q28 0 55.5 1.5t41.5 2.5l13 2q1 -2 -0.5 -10t-3.5 -10q-2 -1 -9 -5t-13 -8t-9 -7q-8 -5 -22 -23t-19 -39q-3 -13 -10 -46.5
t-13 -65.5t-11.5 -61.5t-5.5 -30.5q0 -4 2 -4l22 5q0 -1 10 -2.5t10 -2.5q0 -11 -11 -19q-6 -14 -25 -20q-1 0 -8 -2t-7 -3q-4 -14 -13.5 -63.5t-9.5 -58.5q-2 -21 -2.5 -71.5t3.5 -68.5q1 -5 15 -11t14 -7q0 -7 -3 -13q-14 -1 -37 -4t-40 -4q-67 1 -132 0q-10 1 -26.5 7.5
t-25.5 5.5q4 0 14.5 4t11.5 8q2 5 5 18t7.5 31l7.5 30q3 0 19 21t18 26q6 14 13 68t4 56q-39 1 -58 30t-16 72q-16 35 2.5 101.5t59 120.5t80.5 54zM239 596l-5 -23q-5 -23 -11.5 -55.5t-13.5 -68t-13.5 -67.5t-9.5 -48q0 -4 7 -4q21 0 29 5q6 2 7 7q44 227 47 256
q0 3 -5 6.5t-11 3.5q-19 0 -21 -12z" />
    <glyph glyph-name="periodcentered" unicode="&#xb7;" horiz-adv-x="197" 
d="M31 251q0 31 23.5 55t52.5 24q21 0 35 -15t14 -37q0 -31 -23.5 -56.5t-51.5 -25.5q-22 0 -36 16t-14 39z" />
    <glyph glyph-name="cedilla" unicode="&#xb8;" horiz-adv-x="245" 
d="M125 -3h27l-21 -27q18 1 22 1q18 0 29.5 -12.5t11.5 -31.5q0 -31 -30 -63t-86 -32q-28 0 -41 9q-2 6 -2 17q0 10 6 16t12 6q7 0 19.5 -8.5t22.5 -8.5q22 0 36 12.5t14 29.5q0 11 -6.5 18t-16.5 7q-11 0 -30 -7q-2 0 -6 6t-3 9q3 6 18.5 27t23.5 32z" />
    <glyph glyph-name="uni00B9" unicode="&#xb9;" horiz-adv-x="252" 
d="M56 573q167 77 168 77q3 0 6 -9t3 -13q-24 -72 -26 -82l-40 -210q-4 -20 -4 -25q0 -10 5 -17q4 -5 20 -9.5t23 -4.5q2 0 2 -6q0 -16 -6 -22q-10 0 -42.5 2t-49.5 2t-54.5 -2t-45.5 -2q-1 1 -1 5q0 6 2.5 14t4.5 8q9 0 28.5 5t23.5 10q11 15 16 41l36 186q4 28 4 31
q0 12 -10 12q-6 0 -58 -19q-3 1 -6 6.5t-3 10.5q0 9 4 11z" />
    <glyph glyph-name="ordmasculine" unicode="&#xba;" horiz-adv-x="314" 
d="M186 520q-27 0 -55.5 -48.5t-28.5 -104.5q0 -84 40 -84q26 0 54.5 50t28.5 104q0 83 -39 83zM200 555q41 0 70 -34t29 -78q0 -77 -49.5 -136t-121.5 -59q-42 0 -70.5 34.5t-28.5 79.5q0 74 53.5 133.5t117.5 59.5z" />
    <glyph glyph-name="guillemotright" unicode="&#xbb;" horiz-adv-x="470" 
d="M98 423q12 -16 61.5 -64.5t105.5 -90.5q4 -8 4 -14q0 -21 -12 -26q-66 -39 -122 -77.5t-80 -57.5t-24 -20q-6 1 -14.5 7t-8.5 12t11 16.5t66 58.5l90 81l-60 81q-48 62 -48 70q0 12 31 24zM274 423q6 -8 27 -30t61 -59t79 -66q4 -5 4 -13q0 -22 -13 -27
q-63 -38 -119 -76.5t-81 -58t-25 -20.5q-6 1 -14.5 7t-8.5 12t11 16.5t66 58.5l90 81l-59 81q-49 62 -49 70q0 16 31 24z" />
    <glyph glyph-name="onequarter" unicode="&#xbc;" horiz-adv-x="603" 
d="M48 573q167 77 168 77q3 0 6 -9t3 -13q0 -1 -3.5 -10t-7.5 -19t-8.5 -25t-7.5 -28l-40 -210q-3 -15 -3 -25q0 -12 4 -17t20 -9.5t23 -4.5q3 0 3 -6q0 -16 -6 -22q-9 0 -42.5 2t-50.5 2q-18 0 -55 -2t-45 -2v5q0 22 6 22q9 0 28.5 5t23.5 10q11 15 16 41l36 186q4 28 4 31
q0 12 -9 12q-6 0 -58 -19q-3 1 -6.5 7t-3.5 10q0 8 5 11zM571 617l-445 -631q-6 0 -20.5 6t-14.5 13q0 4 2 6l445 632q4 1 19 -6t15 -14q0 -5 -1 -6zM543 389q8 8 17 8q21 0 20 -7l-46 -229v-1q0 -2 4 -2h22q7 0 7 -13q0 -28 -11 -37h-28q-2 0 -4 -6l-21 -101q-10 -5 -35 -5
q-7 0 -13.5 0.5t-11 1.5t-7.5 2t-4.5 2t-1.5 2l19 100l1 1q0 3 -4 3h-142q-7 7 -6 24zM372 158h82q5 0 6 4l24 114q0 6 -2 6l-2 -1l-110 -116q-1 -1 -1 -3q0 -4 3 -4z" />
    <glyph glyph-name="onehalf" unicode="&#xbd;" horiz-adv-x="662" 
d="M556 393q38 0 60.5 -23.5t22.5 -60.5q0 -40 -29 -84.5t-60 -72t-70 -56.5t-41 -31t-2 -4t2 -2h116q18 0 30 11.5t18 22.5t10 11q14 0 17 -4q-16 -28 -43 -100l-104 1q-118 -1 -120 -1q-7 7 -7 21q0 3 4 13q200 185 200 254q0 20 -10.5 34.5t-31.5 14.5q-14 0 -33 -11.5
t-33 -22.5t-16 -11t-6 8.5t-4 13.5q0 8 3 12q11 19 50 43t77 24zM48 573q167 77 168 77q3 0 6 -9t3 -13q0 -1 -3.5 -10t-7.5 -19t-8.5 -25t-7.5 -28l-40 -210q-3 -15 -3 -25q0 -12 4 -17t20 -9.5t23 -4.5q3 0 3 -6q0 -16 -6 -22q-9 0 -42.5 2t-50.5 2q-18 0 -55 -2t-45 -2v5
q0 22 6 22q9 0 28.5 5t23.5 10q11 15 16 41l36 186q4 28 4 31q0 12 -9 12q-6 0 -58 -19q-3 1 -6.5 7t-3.5 10q0 8 5 11zM571 617l-445 -631q-6 0 -20.5 6t-14.5 13q0 4 2 6l445 632q4 1 19 -6t15 -14q0 -5 -1 -6z" />
    <glyph glyph-name="threequarters" unicode="&#xbe;" horiz-adv-x="618" 
d="M100 282q40 0 65 35t25 74q0 51 -55 51q-13 0 -35 -3q-4 8 -4 15q0 11 8 15q29 6 50 19t29.5 28.5t12 26.5t3.5 20q0 15 -10 24t-23 9q-21 0 -45.5 -18.5t-26.5 -18.5q-5 0 -8.5 12t-1.5 15q21 25 55.5 42.5t68.5 17.5q23 0 43.5 -15.5t20.5 -44.5q0 -34 -26 -62.5
t-58 -45.5q23 0 50 -20.5t27 -56.5q0 -58 -55.5 -106.5t-135.5 -48.5q-22 0 -45 8t-24 19q0 15 11.5 29t26.5 14q13 0 27 -17t30 -17zM586 617l-445 -631q-6 0 -20.5 6t-14.5 13q0 4 2 6l445 632q4 1 19 -6t15 -14q0 -5 -1 -6zM558 389q8 8 17 8q21 0 20 -7l-46 -229v-1
q0 -2 4 -2h22q7 0 7 -13q0 -28 -11 -37h-28q-2 0 -4 -6l-21 -101q-10 -5 -35 -5q-7 0 -13.5 0.5t-11 1.5t-7.5 2t-4.5 2t-1.5 2l19 100l1 1q0 3 -4 3h-142q-7 7 -6 24zM387 158h82q5 0 6 4l24 114q0 6 -2 6l-2 -1l-110 -116q-1 -1 -1 -3q0 -4 3 -4z" />
    <glyph glyph-name="questiondown" unicode="&#xbf;" horiz-adv-x="334" 
d="M317 388q0 -32 -23 -55.5t-51 -23.5q-22 0 -36.5 14.5t-14.5 37.5q0 31 23.5 56t51.5 25q21 0 35.5 -15.5t14.5 -38.5zM163 224q0 11 12 18q24 0 65.5 -32.5t41.5 -69.5q0 -63 -55 -94l-110 -64q-52 -28 -52 -68q0 -25 14 -41t41 -16q18 0 38 23.5t34 23.5q24 0 35 -21
t6 -47q-24 -45 -78 -45q-62 0 -107.5 40.5t-45.5 96.5q0 83 59 120q33 22 110 65q36 20 36 51q0 13 -11 26t-22 21.5t-11 12.5z" />
    <glyph glyph-name="Agrave" unicode="&#xc0;" horiz-adv-x="648" 
d="M475 715q-20 0 -100 29.5t-80 47.5q0 15 19 23t45 8q15 0 25 -5q26 -16 65 -49.5t39 -39.5q0 -5 -4.5 -9.5t-8.5 -4.5zM323 231q-37 0 -94 -3q-4 0 -6 -4q-5 -9 -27.5 -45t-29.5 -48q-31 -52 -31 -71q0 -16 24 -24.5t36 -8.5q2 0 2 -5q0 -13 -6 -25q-11 1 -39.5 3.5
t-52.5 2.5q-25 0 -60.5 -2.5t-48.5 -3.5q-2 4 -2 7q0 23 6 23q11 0 37.5 10t34.5 21q14 17 50 78l277 474q31 54 52 54q6 0 10 -4l94 -524q3 -16 14 -73q3 -15 23.5 -25.5t30.5 -10.5q2 0 2 -6q0 -16 -4 -24q-111 6 -114 6q-11 0 -125 -6q-1 1 -1 6q0 24 6 24q10 0 30 7.5
t25 15.5q6 12 6 30q0 9 -20 143q0 5 -5 5q-18 3 -94 3zM335 285q29 0 72 3q4 0 4 4q-3 20 -17 103t-16 97l-115 -202v-2q30 -3 72 -3z" />
    <glyph glyph-name="Aacute" unicode="&#xc1;" horiz-adv-x="648" 
d="M414 715q-4 0 -8.5 5t-4.5 10q0 6 39 39t66 49q10 5 24 5q26 0 45.5 -8t19.5 -23q0 -18 -80.5 -47.5t-100.5 -29.5zM323 231q-37 0 -94 -3q-4 0 -6 -4q-5 -9 -27.5 -45t-29.5 -48q-31 -52 -31 -71q0 -16 24 -24.5t36 -8.5q2 0 2 -5q0 -13 -6 -25q-11 1 -39.5 3.5
t-52.5 2.5q-25 0 -60.5 -2.5t-48.5 -3.5q-2 4 -2 7q0 23 6 23q11 0 37.5 10t34.5 21q14 17 50 78l277 474q31 54 52 54q6 0 10 -4l94 -524q3 -16 14 -73q3 -15 23.5 -25.5t30.5 -10.5q2 0 2 -6q0 -16 -4 -24q-111 6 -114 6q-11 0 -125 -6q-1 1 -1 6q0 24 6 24q10 0 30 7.5
t25 15.5q6 12 6 30q0 9 -20 143q0 5 -5 5q-18 3 -94 3zM335 285q29 0 72 3q4 0 4 4q-3 20 -17 103t-16 97l-115 -202v-2q30 -3 72 -3z" />
    <glyph glyph-name="Acircumflex" unicode="&#xc2;" horiz-adv-x="648" 
d="M537 728q-19 0 -106 60q-30 -18 -76 -39t-55 -21q-12 0 -6 19q1 1 29 20.5t55 40.5q33 25 55 47q11 9 14 9q8 0 13 -9q2 -4 13 -20t19 -26q14 -17 28.5 -31.5t22.5 -22t9 -8.5q-5 -19 -15 -19zM323 231q-37 0 -94 -3q-4 0 -6 -4q-5 -9 -27.5 -45t-29.5 -48
q-31 -52 -31 -71q0 -16 24 -24.5t36 -8.5q2 0 2 -5q0 -13 -6 -25q-11 1 -39.5 3.5t-52.5 2.5q-25 0 -60.5 -2.5t-48.5 -3.5q-2 4 -2 7q0 23 6 23q11 0 37.5 10t34.5 21q14 17 50 78l277 474q31 54 52 54q6 0 10 -4l94 -524q3 -16 14 -73q3 -15 23.5 -25.5t30.5 -10.5
q2 0 2 -6q0 -16 -4 -24q-111 6 -114 6q-11 0 -125 -6q-1 1 -1 6q0 24 6 24q10 0 30 7.5t25 15.5q6 12 6 30q0 9 -20 143q0 5 -5 5q-18 3 -94 3zM335 285q29 0 72 3q4 0 4 4q-3 20 -17 103t-16 97l-115 -202v-2q30 -3 72 -3z" />
    <glyph glyph-name="Atilde" unicode="&#xc3;" horiz-adv-x="648" 
d="M276 738q-8 0 -3 19q5 21 24 44q43 46 86 46q33 0 79 -30.5t79 -30.5q17 0 44.5 25.5t29.5 25.5q7 0 3 -20q-2 -17 -25 -44q-39 -45 -84 -45q-34 0 -79 30.5t-79 30.5q-16 0 -44 -25.5t-31 -25.5zM323 231q-37 0 -94 -3q-4 0 -6 -4q-5 -9 -27.5 -45t-29.5 -48
q-31 -52 -31 -71q0 -16 24 -24.5t36 -8.5q2 0 2 -5q0 -13 -6 -25q-11 1 -39.5 3.5t-52.5 2.5q-25 0 -60.5 -2.5t-48.5 -3.5q-2 4 -2 7q0 23 6 23q11 0 37.5 10t34.5 21q14 17 50 78l277 474q31 54 52 54q6 0 10 -4l94 -524q3 -16 14 -73q3 -15 23.5 -25.5t30.5 -10.5
q2 0 2 -6q0 -16 -4 -24q-111 6 -114 6q-11 0 -125 -6q-1 1 -1 6q0 24 6 24q10 0 30 7.5t25 15.5q6 12 6 30q0 9 -20 143q0 5 -5 5q-18 3 -94 3zM335 285q29 0 72 3q4 0 4 4q-3 20 -17 103t-16 97l-115 -202v-2q30 -3 72 -3z" />
    <glyph glyph-name="Adieresis" unicode="&#xc4;" horiz-adv-x="648" 
d="M500 790q4 25 25 43.5t45 18.5t37.5 -18t8.5 -44q-4 -25 -25 -43.5t-45 -18.5t-37.5 18t-8.5 44zM310 790q5 26 25 44t44 18t38 -18t9 -44q-4 -25 -25.5 -43.5t-45.5 -18.5t-37 18t-8 44zM323 231q-37 0 -94 -3q-4 0 -6 -4q-5 -9 -27.5 -45t-29.5 -48q-31 -52 -31 -71
q0 -16 24 -24.5t36 -8.5q2 0 2 -5q0 -13 -6 -25q-11 1 -39.5 3.5t-52.5 2.5q-25 0 -60.5 -2.5t-48.5 -3.5q-2 4 -2 7q0 23 6 23q11 0 37.5 10t34.5 21q14 17 50 78l277 474q31 54 52 54q6 0 10 -4l94 -524q3 -16 14 -73q3 -15 23.5 -25.5t30.5 -10.5q2 0 2 -6q0 -16 -4 -24
q-111 6 -114 6q-11 0 -125 -6q-1 1 -1 6q0 24 6 24q10 0 30 7.5t25 15.5q6 12 6 30q0 9 -20 143q0 5 -5 5q-18 3 -94 3zM335 285q29 0 72 3q4 0 4 4q-3 20 -17 103t-16 97l-115 -202v-2q30 -3 72 -3z" />
    <glyph glyph-name="Aring" unicode="&#xc5;" horiz-adv-x="648" 
d="M464 817q-27 0 -46 -21.5t-19 -48.5q0 -20 11.5 -33t31.5 -13q26 0 45 21.5t19 48.5q0 20 -11 33t-31 13zM472 857q33 0 53.5 -22.5t20.5 -56.5q0 -46 -35 -82t-77 -36q-33 0 -54 23t-21 57q0 47 36 82t77 35zM323 231q-37 0 -94 -3q-4 0 -6 -4q-5 -9 -27.5 -45
t-29.5 -48q-31 -52 -31 -71q0 -16 24 -24.5t36 -8.5q2 0 2 -5q0 -13 -6 -25q-11 1 -39.5 3.5t-52.5 2.5q-25 0 -60.5 -2.5t-48.5 -3.5q-2 4 -2 7q0 23 6 23q11 0 37.5 10t34.5 21q14 17 50 78l277 474q31 54 52 54q6 0 10 -4l94 -524q3 -16 14 -73q3 -15 23.5 -25.5
t30.5 -10.5q2 0 2 -6q0 -16 -4 -24q-111 6 -114 6q-11 0 -125 -6q-1 1 -1 6q0 24 6 24q10 0 30 7.5t25 15.5q6 12 6 30q0 9 -20 143q0 5 -5 5q-18 3 -94 3zM335 285q29 0 72 3q4 0 4 4q-3 20 -17 103t-16 97l-115 -202v-2q30 -3 72 -3z" />
    <glyph glyph-name="AE" unicode="&#xc6;" horiz-adv-x="873" 
d="M553 657q41 0 150.5 3.5t161.5 3.5q-1 -16 -2.5 -45t-2.5 -52.5t-1 -43.5q-5 -5 -20 -5q-12 0 -12 7q-4 47 -32.5 67.5t-64.5 20.5h-55q-68 0 -72 -13q-8 -26 -14 -88l-16 -154v-1q0 -7 36 -7h41q54 0 66 8t31 58q3 7 16 7q14 0 17 -5q-5 -21 -12.5 -89t-9.5 -101
q-4 -4 -18 -4q-12 0 -13 7q-1 11 -2 19t-2 13.5t-2.5 10t-2 7t-2.5 4.5l-2.5 2.5t-3.5 2.5l-2 2q-11 8 -86 8q-54 0 -55 -10l-14 -142q-6 -65 -4 -82t62 -17h20q67 0 113 23q35 18 71 94q3 6 15 6q20 0 24 -6q-56 -117 -74 -169q-52 0 -153 2.5t-142 2.5l-128 -6q-2 4 -2 12
q0 7 3 15.5t5 8.5q11 0 34.5 6.5t27.5 13.5q11 22 17 82q0 3 10 112q2 6 -6 6q-30 2 -77 2q-20 0 -80 -2q-4 0 -8 -4q-61 -85 -88 -117q-4 -6 -11 -15t-11 -14t-8.5 -12t-7.5 -11.5t-5.5 -9t-3.5 -8t-1 -6.5q0 -9 10 -15q24 -13 48 -13q1 0 1 -3q0 -15 -8 -28q-9 1 -41 3.5
t-56 2.5q-25 0 -61 -2.5t-49 -3.5q-2 4 -2 10q0 5 3 12.5t5 7.5q11 0 35 8.5t37 21.5q27 27 68 80l314 404q38 42 40 60q1 13 -7 18.5t-21 5.5q-5 0 -5 8q0 21 8 26h16q16 0 37.5 -0.5t35.5 -0.5zM483 508q-126 -159 -152 -196v-4q18 -2 61 -2q39 0 64 2q1 0 3 2t2 3z" />
    <glyph glyph-name="Ccedilla" unicode="&#xc7;" horiz-adv-x="610" 
d="M274 -30h24q22 0 34.5 -17t7.5 -41q-8 -41 -41.5 -66t-80.5 -25q-27 0 -42 15q0 6 2 18q4 16 14 16q4 0 18 -8t26 -8q22 0 35.5 10.5t16.5 25.5q3 16 -3.5 26.5t-18.5 10.5q-16 0 -33 -7q-2 0 -6.5 6.5t-2.5 9.5q8 11 25.5 36t18.5 27h29zM404 667q85 0 210 -37
q0 -6 -7 -67t-9 -69q-3 -15 -25 -15q-9 0 -13 3q-1 18 -6 36.5t-20 43.5t-50 40.5t-86 15.5q-100 0 -177.5 -109t-77.5 -256q0 -93 44.5 -152t129.5 -59q83 0 136 34q21 14 38 35t25 35t9 14q4 0 13.5 -6t10.5 -12q-1 -2 -10.5 -27.5t-18.5 -47t-15 -27.5q-22 -21 -81 -33.5
t-125 -12.5q-125 0 -199.5 78.5t-74.5 190.5q0 99 53.5 193t142 152.5t183.5 58.5z" />
    <glyph glyph-name="Egrave" unicode="&#xc8;" horiz-adv-x="544" 
d="M409 715q-20 0 -100 29.5t-80 47.5q0 15 19 23t45 8q15 0 25 -5q26 -16 65 -49.5t39 -39.5q0 -5 -4.5 -9.5t-8.5 -4.5zM240 658q46 -1 149.5 2.5t148.5 3.5q-2 -22 -2 -65q0 -13 0.5 -38.5t0.5 -38.5q-5 -5 -20 -5q-12 0 -12 7q-12 89 -105 89h-45q-65 0 -69 -13
q-16 -45 -20 -72l-30 -165q0 -2 2.5 -3.5t8.5 -2t12.5 -1t14.5 -0.5h62q45 0 56.5 9t32.5 57q3 8 15 8q13 0 17 -6l-36 -190q-4 -4 -18 -4q-12 0 -13 8q-2 47 -14 59q-10 9 -86 9q-66 0 -68 -8l-29 -152q-9 -43 -9 -72q0 -17 8.5 -21t51.5 -4h35q73 0 115 21q16 8 40 34.5
t42 61.5q3 6 14 6q20 0 24 -6q-74 -143 -83 -169q-53 0 -165 2.5t-151 2.5l-121 -5q-2 2 -2 9q0 21 7 21q10 0 34.5 8.5t28.5 16.5q14 30 24 86l74 380q12 61 10 85q-1 8 -22.5 18.5t-31.5 10.5q-1 0 -1 4q0 20 6 26q57 -4 119 -4z" />
    <glyph glyph-name="Eacute" unicode="&#xc9;" horiz-adv-x="544" 
d="M309 715q-4 0 -8.5 5t-4.5 10q0 6 39 39t66 49q10 5 24 5q26 0 45.5 -8t19.5 -23q0 -18 -80.5 -47.5t-100.5 -29.5zM240 658q46 -1 149.5 2.5t148.5 3.5q-2 -22 -2 -65q0 -13 0.5 -38.5t0.5 -38.5q-5 -5 -20 -5q-12 0 -12 7q-12 89 -105 89h-45q-65 0 -69 -13
q-16 -45 -20 -72l-30 -165q0 -2 2.5 -3.5t8.5 -2t12.5 -1t14.5 -0.5h62q45 0 56.5 9t32.5 57q3 8 15 8q13 0 17 -6l-36 -190q-4 -4 -18 -4q-12 0 -13 8q-2 47 -14 59q-10 9 -86 9q-66 0 -68 -8l-29 -152q-9 -43 -9 -72q0 -17 8.5 -21t51.5 -4h35q73 0 115 21q16 8 40 34.5
t42 61.5q3 6 14 6q20 0 24 -6q-74 -143 -83 -169q-53 0 -165 2.5t-151 2.5l-121 -5q-2 2 -2 9q0 21 7 21q10 0 34.5 8.5t28.5 16.5q14 30 24 86l74 380q12 61 10 85q-1 8 -22.5 18.5t-31.5 10.5q-1 0 -1 4q0 20 6 26q57 -4 119 -4z" />
    <glyph glyph-name="Ecircumflex" unicode="&#xca;" horiz-adv-x="544" 
d="M470 728q-19 0 -106 60q-30 -18 -76 -39t-55 -21q-12 0 -6 19q1 1 29 20.5t55 40.5q33 25 55 47q11 9 14 9q8 0 13 -9q2 -4 13 -20t19 -26q14 -17 28.5 -31.5t22.5 -22t9 -8.5q-5 -19 -15 -19zM240 658q46 -1 149.5 2.5t148.5 3.5q-2 -22 -2 -65q0 -13 0.5 -38.5
t0.5 -38.5q-5 -5 -20 -5q-12 0 -12 7q-12 89 -105 89h-45q-65 0 -69 -13q-16 -45 -20 -72l-30 -165q0 -2 2.5 -3.5t8.5 -2t12.5 -1t14.5 -0.5h62q45 0 56.5 9t32.5 57q3 8 15 8q13 0 17 -6l-36 -190q-4 -4 -18 -4q-12 0 -13 8q-2 47 -14 59q-10 9 -86 9q-66 0 -68 -8
l-29 -152q-9 -43 -9 -72q0 -17 8.5 -21t51.5 -4h35q73 0 115 21q16 8 40 34.5t42 61.5q3 6 14 6q20 0 24 -6q-74 -143 -83 -169q-53 0 -165 2.5t-151 2.5l-121 -5q-2 2 -2 9q0 21 7 21q10 0 34.5 8.5t28.5 16.5q14 30 24 86l74 380q12 61 10 85q-1 8 -22.5 18.5t-31.5 10.5
q-1 0 -1 4q0 20 6 26q57 -4 119 -4z" />
    <glyph glyph-name="Edieresis" unicode="&#xcb;" horiz-adv-x="544" 
d="M401 790q4 25 25 43.5t45 18.5t37.5 -18t8.5 -44q-4 -25 -25 -43.5t-45 -18.5t-37.5 18t-8.5 44zM211 790q5 26 25 44t44 18t38 -18t9 -44q-4 -25 -25.5 -43.5t-45.5 -18.5t-37 18t-8 44zM240 658q46 -1 149.5 2.5t148.5 3.5q-2 -22 -2 -65q0 -13 0.5 -38.5t0.5 -38.5
q-5 -5 -20 -5q-12 0 -12 7q-12 89 -105 89h-45q-65 0 -69 -13q-16 -45 -20 -72l-30 -165q0 -2 2.5 -3.5t8.5 -2t12.5 -1t14.5 -0.5h62q45 0 56.5 9t32.5 57q3 8 15 8q13 0 17 -6l-36 -190q-4 -4 -18 -4q-12 0 -13 8q-2 47 -14 59q-10 9 -86 9q-66 0 -68 -8l-29 -152
q-9 -43 -9 -72q0 -17 8.5 -21t51.5 -4h35q73 0 115 21q16 8 40 34.5t42 61.5q3 6 14 6q20 0 24 -6q-74 -143 -83 -169q-53 0 -165 2.5t-151 2.5l-121 -5q-2 2 -2 9q0 21 7 21q10 0 34.5 8.5t28.5 16.5q14 30 24 86l74 380q12 61 10 85q-1 8 -22.5 18.5t-31.5 10.5q-1 0 -1 4
q0 20 6 26q57 -4 119 -4z" />
    <glyph glyph-name="Igrave" unicode="&#xcc;" horiz-adv-x="350" 
d="M318 715q-20 0 -100 29.5t-80 47.5q0 15 19 23t45 8q15 0 25 -5q26 -16 65 -49.5t39 -39.5q0 -5 -4.5 -9.5t-8.5 -4.5zM264 519l-73 -380q-11 -61 -11 -85q0 -11 21.5 -19t30.5 -8q2 0 2 -5q0 -13 -7 -25q-111 6 -115 6q-25 0 -67 -3t-51 -3q-2 2 -2 7q0 23 6 23
q12 0 34.5 6.5t27.5 15.5q16 31 26 89l74 382q10 52 10 82q0 13 -20 21.5t-32 8.5q-2 0 -2 4q0 19 7 26q105 -5 115 -5q24 0 119 5v-4q0 -26 -7 -26q-8 0 -32.5 -8.5t-28.5 -15.5q-10 -22 -25 -89z" />
    <glyph glyph-name="Iacute" unicode="&#xcd;" horiz-adv-x="350" 
d="M186 715q-4 0 -8.5 5t-4.5 10q0 6 39 39t66 49q10 5 24 5q26 0 45.5 -8t19.5 -23q0 -18 -80.5 -47.5t-100.5 -29.5zM264 519l-73 -380q-11 -61 -11 -85q0 -11 21.5 -19t30.5 -8q2 0 2 -5q0 -13 -7 -25q-111 6 -115 6q-25 0 -67 -3t-51 -3q-2 2 -2 7q0 23 6 23
q12 0 34.5 6.5t27.5 15.5q16 31 26 89l74 382q10 52 10 82q0 13 -20 21.5t-32 8.5q-2 0 -2 4q0 19 7 26q105 -5 115 -5q24 0 119 5v-4q0 -26 -7 -26q-8 0 -32.5 -8.5t-28.5 -15.5q-10 -22 -25 -89z" />
    <glyph glyph-name="Icircumflex" unicode="&#xce;" horiz-adv-x="350" 
d="M367 728q-19 0 -106 60q-30 -18 -76 -39t-55 -21q-12 0 -6 19q1 1 29 20.5t55 40.5q33 25 55 47q11 9 14 9q8 0 13 -9q2 -4 13 -20t19 -26q14 -17 28.5 -31.5t22.5 -22t9 -8.5q-5 -19 -15 -19zM264 519l-73 -380q-11 -61 -11 -85q0 -11 21.5 -19t30.5 -8q2 0 2 -5
q0 -13 -7 -25q-111 6 -115 6q-25 0 -67 -3t-51 -3q-2 2 -2 7q0 23 6 23q12 0 34.5 6.5t27.5 15.5q16 31 26 89l74 382q10 52 10 82q0 13 -20 21.5t-32 8.5q-2 0 -2 4q0 19 7 26q105 -5 115 -5q24 0 119 5v-4q0 -26 -7 -26q-8 0 -32.5 -8.5t-28.5 -15.5q-10 -22 -25 -89z" />
    <glyph glyph-name="Idieresis" unicode="&#xcf;" horiz-adv-x="350" 
d="M295 790q4 25 25 43.5t45 18.5t37.5 -18t8.5 -44q-4 -25 -25 -43.5t-45 -18.5t-37.5 18t-8.5 44zM105 790q5 26 25 44t44 18t38 -18t9 -44q-4 -25 -25.5 -43.5t-45.5 -18.5t-37 18t-8 44zM264 519l-73 -380q-11 -61 -11 -85q0 -11 21.5 -19t30.5 -8q2 0 2 -5
q0 -13 -7 -25q-111 6 -115 6q-25 0 -67 -3t-51 -3q-2 2 -2 7q0 23 6 23q12 0 34.5 6.5t27.5 15.5q16 31 26 89l74 382q10 52 10 82q0 13 -20 21.5t-32 8.5q-2 0 -2 4q0 19 7 26q105 -5 115 -5q24 0 119 5v-4q0 -26 -7 -26q-8 0 -32.5 -8.5t-28.5 -15.5q-10 -22 -25 -89z" />
    <glyph glyph-name="Eth" unicode="&#xd0;" horiz-adv-x="690" 
d="M403 608q-94 0 -108 -16q-18 -22 -25 -70l-31 -156h115q6 0 6 -15q0 -13 -8 -30.5t-14 -22.5h-112l-30 -160q-13 -65 -4 -74q13 -16 110 -16q101 0 168 91.5t82 237.5q10 100 -27 165.5t-122 65.5zM407 658q131 0 198 -72t67 -182q0 -68 -26.5 -138.5t-74.5 -131
t-125 -99t-169 -38.5q-18 0 -71 2.5t-87 2.5l-121 -6q-2 2 -2 10q0 7 3 16.5t5 9.5q12 0 35 6t27 14q14 30 24 86l31 160h-68q-6 0 -6 14q0 13 8 31t14 23h65l30 152q12 61 10 85q-1 8 -22.5 16.5t-31.5 8.5q-1 0 -1 4q0 21 9 30q54 -4 116 -4h163z" />
    <glyph glyph-name="Ntilde" unicode="&#xd1;" horiz-adv-x="763" 
d="M264 738q-8 0 -3 19q5 21 24 44q43 46 86 46q33 0 79 -30.5t79 -30.5q17 0 44.5 25.5t29.5 25.5q7 0 3 -20q-2 -17 -25 -44q-39 -45 -84 -45q-34 0 -79 30.5t-79 30.5q-16 0 -44 -25.5t-31 -25.5zM243 658q53 0 93 4q3 -13 9 -29.5t15.5 -39t18 -42t23.5 -50t24.5 -50.5
t28 -56.5t27.5 -54.5t29.5 -58t27.5 -55q5 13 10 41l48 250q10 58 10 74t-30.5 28t-45.5 12q-2 0 -2 6q0 19 7 24q84 -4 117 -4q41 0 117 4q0 -30 -7 -30q-11 0 -41.5 -9.5t-42.5 -22.5q-15 -23 -26 -82l-75 -380q-7 -33 -14.5 -85t-8.5 -55q-4 -4 -18 -4q-11 0 -25 22
q-213 426 -261 536l-82 -411q-10 -50 -10 -72q0 -20 30 -31t44 -11q2 0 2 -5q0 -13 -6 -25q-93 5 -116 5q-11 0 -118 -5q-2 4 -2 8q0 5 1.5 10t3 8.5t2.5 3.5q15 0 46.5 9t41.5 24q11 19 25 84l76 382q8 40 8 75q0 14 -27.5 22.5t-42.5 8.5q-3 0 -3 6q0 19 7 24
q80 -4 112 -4z" />
    <glyph glyph-name="Ograve" unicode="&#xd2;" horiz-adv-x="656" 
d="M430 715q-20 0 -100 29.5t-80 47.5q0 15 19 23t45 8q15 0 25 -5q26 -16 65 -49.5t39 -39.5q0 -5 -4.5 -9.5t-8.5 -4.5zM374 618q-94 0 -162 -109.5t-68 -256.5q0 -92 37 -152t109 -60q69 0 123.5 64t80.5 148t26 163q0 89 -36.5 146t-109.5 57zM398 667q104 0 172 -75.5
t68 -187.5q0 -106 -53 -202t-139.5 -154t-181.5 -58q-106 0 -172 76t-66 192q0 104 54.5 199.5t140.5 152.5t177 57z" />
    <glyph glyph-name="Oacute" unicode="&#xd3;" horiz-adv-x="656" 
d="M325 715q-4 0 -8.5 5t-4.5 10q0 6 39 39t66 49q10 5 24 5q26 0 45.5 -8t19.5 -23q0 -18 -80.5 -47.5t-100.5 -29.5zM374 618q-94 0 -162 -109.5t-68 -256.5q0 -92 37 -152t109 -60q69 0 123.5 64t80.5 148t26 163q0 89 -36.5 146t-109.5 57zM398 667q104 0 172 -75.5
t68 -187.5q0 -106 -53 -202t-139.5 -154t-181.5 -58q-106 0 -172 76t-66 192q0 104 54.5 199.5t140.5 152.5t177 57z" />
    <glyph glyph-name="Ocircumflex" unicode="&#xd4;" horiz-adv-x="656" 
d="M515 728q-19 0 -106 60q-30 -18 -76 -39t-55 -21q-12 0 -6 19q1 1 29 20.5t55 40.5q33 25 55 47q11 9 14 9q8 0 13 -9q2 -4 13 -20t19 -26q14 -17 28.5 -31.5t22.5 -22t9 -8.5q-5 -19 -15 -19zM374 618q-94 0 -162 -109.5t-68 -256.5q0 -92 37 -152t109 -60
q69 0 123.5 64t80.5 148t26 163q0 89 -36.5 146t-109.5 57zM398 667q104 0 172 -75.5t68 -187.5q0 -106 -53 -202t-139.5 -154t-181.5 -58q-106 0 -172 76t-66 192q0 104 54.5 199.5t140.5 152.5t177 57z" />
    <glyph glyph-name="Otilde" unicode="&#xd5;" horiz-adv-x="656" 
d="M243 738q-8 0 -3 19q5 21 24 44q43 46 86 46q33 0 79 -30.5t79 -30.5q17 0 44.5 25.5t29.5 25.5q7 0 3 -20q-2 -17 -25 -44q-39 -45 -84 -45q-34 0 -79 30.5t-79 30.5q-16 0 -44 -25.5t-31 -25.5zM374 618q-94 0 -162 -109.5t-68 -256.5q0 -92 37 -152t109 -60
q69 0 123.5 64t80.5 148t26 163q0 89 -36.5 146t-109.5 57zM398 667q104 0 172 -75.5t68 -187.5q0 -106 -53 -202t-139.5 -154t-181.5 -58q-106 0 -172 76t-66 192q0 104 54.5 199.5t140.5 152.5t177 57z" />
    <glyph glyph-name="Odieresis" unicode="&#xd6;" horiz-adv-x="656" 
d="M455 790q4 25 25 43.5t45 18.5t37.5 -18t8.5 -44q-4 -25 -25 -43.5t-45 -18.5t-37.5 18t-8.5 44zM265 790q5 26 25 44t44 18t38 -18t9 -44q-4 -25 -25.5 -43.5t-45.5 -18.5t-37 18t-8 44zM374 618q-94 0 -162 -109.5t-68 -256.5q0 -92 37 -152t109 -60q69 0 123.5 64
t80.5 148t26 163q0 89 -36.5 146t-109.5 57zM398 667q104 0 172 -75.5t68 -187.5q0 -106 -53 -202t-139.5 -154t-181.5 -58q-106 0 -172 76t-66 192q0 104 54.5 199.5t140.5 152.5t177 57z" />
    <glyph glyph-name="multiply" unicode="&#xd7;" horiz-adv-x="410" 
d="M38 57q-6 0 -14 19.5t-8 31.5l153 135q2 2 2 3q0 3 -2 5l-98 133q0 10 18.5 31t23.5 21q3 0 7 -4l101 -136q2 -2 4 -2q1 0 2 1l154 137q4 4 6 4q5 0 13.5 -20t8.5 -33l-150 -134q-1 -1 -1 -3q0 -1 1 -2l97 -134q0 -10 -17.5 -31t-23.5 -21q-4 0 -6 4l-100 136q-2 2 -4 2
t-4 -2l-156 -138q-3 -3 -7 -3z" />
    <glyph glyph-name="Oslash" unicode="&#xd8;" horiz-adv-x="656" 
d="M374 618q-94 0 -162 -109.5t-68 -256.5q0 -68 23 -120l308 439q-37 47 -101 47zM398 667q66 0 121 -33l24 34q4 1 19 -6.5t15 -14.5q0 -4 -1 -6l-23 -33q85 -77 85 -204q0 -106 -53 -202t-139.5 -154t-181.5 -58q-67 0 -123 35l-21 -30q-7 0 -21 5.5t-14 12.5q0 4 3 7
l20 30q-82 76 -82 208q0 104 54.5 199.5t140.5 152.5t177 57zM290 40q69 0 123.5 64t80.5 148t26 163q0 66 -23 115l-309 -439q37 -51 102 -51z" />
    <glyph glyph-name="Ugrave" unicode="&#xd9;" horiz-adv-x="667" 
d="M407 715q-20 0 -100 29.5t-80 47.5q0 15 19 23t45 8q15 0 25 -5q26 -16 65 -49.5t39 -39.5q0 -5 -4.5 -9.5t-8.5 -4.5zM90 520q10 52 10 82q0 13 -20 21.5t-31 8.5q-1 0 -1 4q0 20 6 26q105 -5 116 -5q23 0 118 5v-4q0 -26 -7 -26q-8 0 -32.5 -8.5t-28.5 -15.5
q-6 -14 -24 -89l-44 -222q-10 -52 -10 -95q0 -140 122 -140q76 0 126.5 45t73.5 165l46 242q14 71 13 92q-1 12 -30 19t-45 7q-1 0 -1 6q0 17 7 24q84 -4 107 -4q38 0 114 4q0 -30 -7 -30q-10 0 -42.5 -7t-36.5 -13q-8 -17 -25 -98l-46 -238q-30 -157 -100.5 -217.5
t-187.5 -60.5q-90 0 -142 51.5t-52 153.5q0 38 12 101z" />
    <glyph glyph-name="Uacute" unicode="&#xda;" horiz-adv-x="667" 
d="M268 715q-4 0 -8.5 5t-4.5 10q0 6 39 39t66 49q10 5 24 5q26 0 45.5 -8t19.5 -23q0 -18 -80.5 -47.5t-100.5 -29.5zM90 520q10 52 10 82q0 13 -20 21.5t-31 8.5q-1 0 -1 4q0 20 6 26q105 -5 116 -5q23 0 118 5v-4q0 -26 -7 -26q-8 0 -32.5 -8.5t-28.5 -15.5
q-6 -14 -24 -89l-44 -222q-10 -52 -10 -95q0 -140 122 -140q76 0 126.5 45t73.5 165l46 242q14 71 13 92q-1 12 -30 19t-45 7q-1 0 -1 6q0 17 7 24q84 -4 107 -4q38 0 114 4q0 -30 -7 -30q-10 0 -42.5 -7t-36.5 -13q-8 -17 -25 -98l-46 -238q-30 -157 -100.5 -217.5
t-187.5 -60.5q-90 0 -142 51.5t-52 153.5q0 38 12 101z" />
    <glyph glyph-name="Ucircumflex" unicode="&#xdb;" horiz-adv-x="667" 
d="M483 728q-19 0 -106 60q-30 -18 -76 -39t-55 -21q-12 0 -6 19q1 1 29 20.5t55 40.5q33 25 55 47q11 9 14 9q8 0 13 -9q2 -4 13 -20t19 -26q14 -17 28.5 -31.5t22.5 -22t9 -8.5q-5 -19 -15 -19zM90 520q10 52 10 82q0 13 -20 21.5t-31 8.5q-1 0 -1 4q0 20 6 26
q105 -5 116 -5q23 0 118 5v-4q0 -26 -7 -26q-8 0 -32.5 -8.5t-28.5 -15.5q-6 -14 -24 -89l-44 -222q-10 -52 -10 -95q0 -140 122 -140q76 0 126.5 45t73.5 165l46 242q14 71 13 92q-1 12 -30 19t-45 7q-1 0 -1 6q0 17 7 24q84 -4 107 -4q38 0 114 4q0 -30 -7 -30
q-10 0 -42.5 -7t-36.5 -13q-8 -17 -25 -98l-46 -238q-30 -157 -100.5 -217.5t-187.5 -60.5q-90 0 -142 51.5t-52 153.5q0 38 12 101z" />
    <glyph glyph-name="Udieresis" unicode="&#xdc;" horiz-adv-x="667" 
d="M402 790q4 25 25 43.5t45 18.5t37.5 -18t8.5 -44q-4 -25 -25 -43.5t-45 -18.5t-37.5 18t-8.5 44zM212 790q5 26 25 44t44 18t38 -18t9 -44q-4 -25 -25.5 -43.5t-45.5 -18.5t-37 18t-8 44zM90 520q10 52 10 82q0 13 -20 21.5t-31 8.5q-1 0 -1 4q0 20 6 26q105 -5 116 -5
q23 0 118 5v-4q0 -26 -7 -26q-8 0 -32.5 -8.5t-28.5 -15.5q-6 -14 -24 -89l-44 -222q-10 -52 -10 -95q0 -140 122 -140q76 0 126.5 45t73.5 165l46 242q14 71 13 92q-1 12 -30 19t-45 7q-1 0 -1 6q0 17 7 24q84 -4 107 -4q38 0 114 4q0 -30 -7 -30q-10 0 -42.5 -7t-36.5 -13
q-8 -17 -25 -98l-46 -238q-30 -157 -100.5 -217.5t-187.5 -60.5q-90 0 -142 51.5t-52 153.5q0 38 12 101z" />
    <glyph glyph-name="Yacute" unicode="&#xdd;" horiz-adv-x="592" 
d="M280 715q-4 0 -8.5 5t-4.5 10q0 6 39 39t66 49q10 5 24 5q26 0 45.5 -8t19.5 -23q0 -18 -80.5 -47.5t-100.5 -29.5zM197 654q15 0 129 6v-7q0 -8 -2.5 -16.5t-5.5 -8.5q-14 0 -35.5 -8t-22.5 -24q-1 -9 3 -22l67 -195q6 8 35 46t44.5 58t37.5 49.5t32.5 46.5t10.5 23
q1 11 -16.5 18.5t-41.5 7.5q-2 0 -2 8q0 18 7 24q93 -6 102 -6q15 0 113 6q1 -5 0 -12q-1 -20 -7 -20q-13 0 -39.5 -9t-41.5 -24q-20 -22 -121 -155.5t-103 -145.5l-30 -152q-10 -53 -10 -88q1 -10 23.5 -18t29.5 -8q3 0 1 -11q-1 -13 -5 -21q-2 1 -47 4t-69 3
q-25 0 -69.5 -3t-54.5 -4q-2 3 -1 12q2 20 7 20q11 0 36 8t29 16q13 24 24 86l30 156q1 5 -18.5 66.5t-39.5 121.5l-20 59q-17 53 -38 69q-9 6 -25.5 12t-25.5 6q-2 0 -2 7q0 19 8 25q10 0 53.5 -3t70.5 -3z" />
    <glyph glyph-name="Thorn" unicode="&#xde;" horiz-adv-x="520" 
d="M337 524q77 0 125 -49.5t41 -122.5q-7 -85 -79.5 -146.5t-160.5 -61.5q-22 0 -42.5 4t-22.5 4q-3 0 -5 -4q-2 -6 -2 -10q-10 -44 -10 -86q0 -10 21 -17.5t29 -7.5q2 0 2 -10q0 -8 -6 -20q-111 6 -114 6q-25 0 -67.5 -3t-51.5 -3q-1 2 -1 11q0 19 6 19q14 0 35.5 5.5
t26.5 17.5q15 35 24 88l75 382q11 59 9 86q-1 9 -21 17.5t-31 8.5q-1 0 -1 9q0 14 7 21q105 -5 118 -5q21 0 116 5v-10q0 -20 -7 -20q-8 0 -33 -8.5t-28 -15.5q-9 -20 -23 -83q0 -5 3 -5q2 0 12 1t26 2t30 1zM319 481q-36 0 -49.5 -4.5t-17.5 -22.5l-46 -236q-1 -2 0 -4.5
t1 -4.5q0 -19 75 -19q42 0 76.5 44t38.5 101q7 61 -12 103.5t-66 42.5z" />
    <glyph glyph-name="germandbls" unicode="&#xdf;" horiz-adv-x="565" 
d="M411 695q61 0 106 -32.5t39 -89.5q-3 -29 -14 -53t-31 -42.5t-31.5 -26.5t-32.5 -21q-3 -2 -13 -8t-13.5 -8t-11.5 -8t-11 -10t-7.5 -10.5t-6 -13.5t-1.5 -16q0 -35 59 -80q40 -32 61.5 -60.5t21.5 -67.5q0 -57 -43.5 -104.5t-103.5 -47.5q-47 0 -84 14.5t-42 28.5
q7 76 48 76q15 0 25 -11.5t15 -25t15.5 -25t26.5 -11.5q22 0 35.5 17.5t16.5 33.5t3 29t-4 24t-13 22t-15.5 17.5t-20.5 18.5t-19 16q-2 1 -12 10.5t-12.5 12t-10.5 11t-10.5 13.5t-6.5 13.5t-5.5 16.5t-1.5 18q0 11 2 21.5t3.5 17.5t8 16t9 13.5t13.5 14t14 12.5t18 15
t19 15q61 49 70 129t-77 80q-68 0 -102 -175l-85 -440q-50 -260 -205 -260q-35 0 -58 13t-28 28q5 77 49 77q12 0 20 -11t11.5 -24.5t12.5 -24.5t23 -11q41 0 76 175q1 6 2 9l68 353v2l1 2q0 4 -4 4h-62q-4 0 -4 7q0 9 17.5 27t35.5 18h23q4 0 7 13q21 110 82 187t145 77z
" />
    <glyph glyph-name="agrave" unicode="&#xe0;" horiz-adv-x="450" 
d="M346 504q-16 0 -89 43t-73 67q0 14 17.5 25.5t35.5 11.5q10 0 17 -5q17 -16 61 -66.5t44 -55.5q0 -6 -4.5 -13t-8.5 -7zM337 442q49 0 83 -18l-59 -307q-3 -9 -3 -24q0 -25 10 -25t27 13.5t27.5 24.5t15.5 16q2 0 9 -9.5t7 -13.5q-11 -24 -62.5 -65t-87.5 -41
q-19 0 -31.5 14.5t-12.5 38.5q0 11 4 33q3 16 4 21q-9 -16 -20.5 -31.5t-28 -34t-37 -29.5t-40.5 -11q-49 0 -77.5 40t-28.5 101q0 70 41.5 141t112.5 118.5t147 47.5zM287 387q-57 0 -104.5 -86.5t-47.5 -162.5q0 -78 41 -78q34 0 72.5 72t53.5 149l19 96q-9 10 -34 10z
" />
    <glyph glyph-name="aacute" unicode="&#xe1;" horiz-adv-x="450" 
d="M236 504q-3 0 -7 6t-4 10q0 6 42.5 55.5t67.5 70.5q8 4 20 4q18 0 32 -10.5t14 -23.5q0 -24 -75.5 -68t-89.5 -44zM337 442q49 0 83 -18l-59 -307q-3 -9 -3 -24q0 -25 10 -25t27 13.5t27.5 24.5t15.5 16q2 0 9 -9.5t7 -13.5q-11 -24 -62.5 -65t-87.5 -41
q-19 0 -31.5 14.5t-12.5 38.5q0 11 4 33q3 16 4 21q-9 -16 -20.5 -31.5t-28 -34t-37 -29.5t-40.5 -11q-49 0 -77.5 40t-28.5 101q0 70 41.5 141t112.5 118.5t147 47.5zM287 387q-57 0 -104.5 -86.5t-47.5 -162.5q0 -78 41 -78q34 0 72.5 72t53.5 149l19 96q-9 10 -34 10z
" />
    <glyph glyph-name="acircumflex" unicode="&#xe2;" horiz-adv-x="450" 
d="M379 504q-7 0 -37 23.5t-50 42.5q-25 -19 -64.5 -42.5t-46.5 -23.5q-4 0 -5.5 8t0.5 13q2 2 11.5 10t25 22.5t32.5 31.5q32 32 50 55q10 10 14 10q3 0 8 -10q17 -33 26 -48q11 -18 23 -35t18.5 -25.5t7.5 -10.5q-5 -21 -13 -21zM337 442q49 0 83 -18l-59 -307
q-3 -9 -3 -24q0 -25 10 -25t27 13.5t27.5 24.5t15.5 16q2 0 9 -9.5t7 -13.5q-11 -24 -62.5 -65t-87.5 -41q-19 0 -31.5 14.5t-12.5 38.5q0 11 4 33q3 16 4 21q-9 -16 -20.5 -31.5t-28 -34t-37 -29.5t-40.5 -11q-49 0 -77.5 40t-28.5 101q0 70 41.5 141t112.5 118.5t147 47.5
zM287 387q-57 0 -104.5 -86.5t-47.5 -162.5q0 -78 41 -78q34 0 72.5 72t53.5 149l19 96q-9 10 -34 10z" />
    <glyph glyph-name="atilde" unicode="&#xe3;" horiz-adv-x="450" 
d="M241 600q28 0 66.5 -28.5t66.5 -28.5q14 0 38 23l24 23q6 0 6 -12q0 -19 -31 -53.5t-64 -34.5q-29 0 -67.5 28t-67.5 28q-13 0 -37 -24t-26 -24q-5 0 -5 13q0 25 32 57.5t65 32.5zM337 442q49 0 83 -18l-59 -307q-3 -9 -3 -24q0 -25 10 -25t27 13.5t27.5 24.5t15.5 16
q2 0 9 -9.5t7 -13.5q-11 -24 -62.5 -65t-87.5 -41q-19 0 -31.5 14.5t-12.5 38.5q0 11 4 33q3 16 4 21q-9 -16 -20.5 -31.5t-28 -34t-37 -29.5t-40.5 -11q-49 0 -77.5 40t-28.5 101q0 70 41.5 141t112.5 118.5t147 47.5zM287 387q-57 0 -104.5 -86.5t-47.5 -162.5
q0 -78 41 -78q34 0 72.5 72t53.5 149l19 96q-9 10 -34 10z" />
    <glyph glyph-name="adieresis" unicode="&#xe4;" horiz-adv-x="450" 
d="M378 628q20 0 33 -16.5t13 -37.5q0 -29 -20 -50t-48 -21q-19 0 -30.5 16t-11.5 37q0 29 18 50.5t46 21.5zM188 628q20 0 33 -16.5t13 -37.5q0 -29 -20 -50t-48 -21q-19 0 -30.5 16t-11.5 37q0 29 18 50.5t46 21.5zM337 442q49 0 83 -18l-59 -307q-3 -9 -3 -24
q0 -25 10 -25t27 13.5t27.5 24.5t15.5 16q2 0 9 -9.5t7 -13.5q-11 -24 -62.5 -65t-87.5 -41q-19 0 -31.5 14.5t-12.5 38.5q0 11 4 33q3 16 4 21q-9 -16 -20.5 -31.5t-28 -34t-37 -29.5t-40.5 -11q-49 0 -77.5 40t-28.5 101q0 70 41.5 141t112.5 118.5t147 47.5zM287 387
q-57 0 -104.5 -86.5t-47.5 -162.5q0 -78 41 -78q34 0 72.5 72t53.5 149l19 96q-9 10 -34 10z" />
    <glyph glyph-name="aring" unicode="&#xe5;" horiz-adv-x="450" 
d="M331 660q-27 0 -46 -21.5t-19 -48.5q0 -20 11.5 -33t31.5 -13q26 0 45 21.5t19 48.5q0 20 -11 33t-31 13zM339 700q33 0 53.5 -22.5t20.5 -56.5q0 -46 -35 -82t-77 -36q-33 0 -54 23t-21 57q0 47 36 82t77 35zM337 442q49 0 83 -18l-59 -307q-3 -9 -3 -24q0 -25 10 -25
t27 13.5t27.5 24.5t15.5 16q2 0 9 -9.5t7 -13.5q-11 -24 -62.5 -65t-87.5 -41q-19 0 -31.5 14.5t-12.5 38.5q0 11 4 33q3 16 4 21q-9 -16 -20.5 -31.5t-28 -34t-37 -29.5t-40.5 -11q-49 0 -77.5 40t-28.5 101q0 70 41.5 141t112.5 118.5t147 47.5zM287 387
q-57 0 -104.5 -86.5t-47.5 -162.5q0 -78 41 -78q34 0 72.5 72t53.5 149l19 96q-9 10 -34 10z" />
    <glyph glyph-name="ae" unicode="&#xe6;" horiz-adv-x="577" 
d="M453 394q-25 0 -53.5 -24.5t-41.5 -54.5q-14 -33 -14 -59q0 -4 5 -4q44 0 86 30.5t42 71.5q0 40 -24 40zM477 442q44 0 68 -27t24 -60q0 -44 -45 -81t-95.5 -54.5t-83.5 -17.5q-8 0 -8 -15q0 -67 23.5 -99t54.5 -32q19 0 40.5 17.5t36 35t15.5 17.5q2 -1 8 -11.5t6 -14.5
q-8 -24 -52.5 -65t-91.5 -41q-39 0 -69.5 21t-46.5 53q-42 -76 -132 -76q-47 0 -79.5 25t-32.5 66q0 24 8 44.5t25 35.5t32 26t42 20.5t40.5 14t42 11.5t33.5 8q9 3 11 15l12 66q3 10 3 25q0 19 -10.5 32t-26.5 13q-24 0 -46.5 -23.5t-28.5 -59.5q-3 -14 -18.5 -22.5
t-34.5 -8.5q-34 0 -34 26q0 41 65 89t130 48q67 0 85 -50q60 49 130 49zM227 128l11 61q-122 -25 -122 -90q0 -40 41 -40q26 0 45.5 21.5t24.5 47.5z" />
    <glyph glyph-name="ccedilla" unicode="&#xe7;" horiz-adv-x="348" 
d="M125 -1h27l-21 -27q18 1 22 1q18 0 29.5 -12.5t11.5 -31.5q0 -31 -30 -63t-86 -32q-28 0 -41 9q-2 6 -2 17q0 10 6 16t12 6q7 0 19.5 -8.5t22.5 -8.5q22 0 36 12.5t14 29.5q0 11 -6.5 18t-16.5 7q-11 0 -30 -7q-2 0 -6 6t-3 9q3 6 18.5 27t23.5 32zM264 442q59 0 100 -40
q4 -16 4 -26q0 -22 -11 -37t-29 -15q-14 0 -24 11t-14.5 24t-14 24t-23.5 11q-26 0 -54 -32.5t-47 -86.5t-19 -109q0 -104 64 -104q22 0 46 14t34.5 24.5l17.5 17.5q2 0 9 -9.5t7 -13.5q-13 -26 -60.5 -63.5t-91.5 -37.5q-63 0 -94.5 42t-31.5 115q0 68 33.5 136t88 111.5
t110.5 43.5z" />
    <glyph glyph-name="egrave" unicode="&#xe8;" horiz-adv-x="356" 
d="M295 504q-16 0 -89 43t-73 67q0 14 17.5 25.5t35.5 11.5q10 0 17 -5q17 -16 61 -66.5t44 -55.5q0 -6 -4.5 -13t-8.5 -7zM268 442q48 0 77.5 -24.5t29.5 -59.5q0 -47 -47.5 -90t-101.5 -65t-86 -22q-4 0 -4 -23q0 -96 64 -96q22 0 46 14t34.5 24.5l17.5 17.5q2 0 9 -9.5
t7 -13.5q-13 -26 -60.5 -63.5t-91.5 -37.5q-62 0 -94 41.5t-32 116.5q0 67 33.5 134.5t88 111.5t110.5 44zM258 394q-36 0 -74.5 -60.5t-38.5 -105.5q0 -4 4 -4q41 0 87 45.5t46 90.5q0 15 -6 24.5t-18 9.5z" />
    <glyph glyph-name="eacute" unicode="&#xe9;" horiz-adv-x="356" 
d="M216 504q-3 0 -7 6t-4 10q0 6 42.5 55.5t67.5 70.5q8 4 20 4q18 0 32 -10.5t14 -23.5q0 -24 -75.5 -68t-89.5 -44zM268 442q48 0 77.5 -24.5t29.5 -59.5q0 -47 -47.5 -90t-101.5 -65t-86 -22q-4 0 -4 -23q0 -96 64 -96q22 0 46 14t34.5 24.5l17.5 17.5q2 0 9 -9.5
t7 -13.5q-13 -26 -60.5 -63.5t-91.5 -37.5q-62 0 -94 41.5t-32 116.5q0 67 33.5 134.5t88 111.5t110.5 44zM258 394q-36 0 -74.5 -60.5t-38.5 -105.5q0 -4 4 -4q41 0 87 45.5t46 90.5q0 15 -6 24.5t-18 9.5z" />
    <glyph glyph-name="ecircumflex" unicode="&#xea;" horiz-adv-x="356" 
d="M332 504q-7 0 -37 23.5t-50 42.5q-25 -19 -64.5 -42.5t-46.5 -23.5q-4 0 -5.5 8t0.5 13q2 2 11.5 10t25 22.5t32.5 31.5q32 32 50 55q10 10 14 10q3 0 8 -10q17 -33 26 -48q11 -18 23 -35t18.5 -25.5t7.5 -10.5q-5 -21 -13 -21zM268 442q48 0 77.5 -24.5t29.5 -59.5
q0 -47 -47.5 -90t-101.5 -65t-86 -22q-4 0 -4 -23q0 -96 64 -96q22 0 46 14t34.5 24.5l17.5 17.5q2 0 9 -9.5t7 -13.5q-13 -26 -60.5 -63.5t-91.5 -37.5q-62 0 -94 41.5t-32 116.5q0 67 33.5 134.5t88 111.5t110.5 44zM258 394q-36 0 -74.5 -60.5t-38.5 -105.5q0 -4 4 -4
q41 0 87 45.5t46 90.5q0 15 -6 24.5t-18 9.5z" />
    <glyph glyph-name="edieresis" unicode="&#xeb;" horiz-adv-x="356" 
d="M324 628q20 0 33 -16.5t13 -37.5q0 -29 -20 -50t-48 -21q-19 0 -30.5 16t-11.5 37q0 29 18 50.5t46 21.5zM134 628q20 0 33 -16.5t13 -37.5q0 -29 -20 -50t-48 -21q-19 0 -30.5 16t-11.5 37q0 29 18 50.5t46 21.5zM268 442q48 0 77.5 -24.5t29.5 -59.5q0 -47 -47.5 -90
t-101.5 -65t-86 -22q-4 0 -4 -23q0 -96 64 -96q22 0 46 14t34.5 24.5l17.5 17.5q2 0 9 -9.5t7 -13.5q-13 -26 -60.5 -63.5t-91.5 -37.5q-62 0 -94 41.5t-32 116.5q0 67 33.5 134.5t88 111.5t110.5 44zM258 394q-36 0 -74.5 -60.5t-38.5 -105.5q0 -4 4 -4q41 0 87 45.5
t46 90.5q0 15 -6 24.5t-18 9.5z" />
    <glyph glyph-name="igrave" unicode="&#xec;" horiz-adv-x="279" 
d="M192 504q-16 0 -89 43t-73 67q0 14 17.5 25.5t35.5 11.5q10 0 17 -5q17 -16 61 -66.5t44 -55.5q0 -6 -4.5 -13t-8.5 -7zM144 442q29 0 47.5 -20.5t18.5 -63.5q0 -26 -43 -241q-1 -4 -1 -17q0 -34 20 -34q11 0 34 33l24 33q3 0 11 -9t10 -17q-13 -33 -49 -73.5t-79 -40.5
q-31 0 -48 22t-17 63q0 24 5 49l36 184q3 15 3 22q0 36 -24 36q-10 0 -33 -33l-23 -33q-3 0 -10.5 9t-9.5 17q13 33 49 73.5t79 40.5z" />
    <glyph glyph-name="iacute" unicode="&#xed;" horiz-adv-x="279" 
d="M106 504q-3 0 -7 6t-4 10q0 6 42.5 55.5t67.5 70.5q8 4 20 4q18 0 32 -10.5t14 -23.5q0 -24 -75.5 -68t-89.5 -44zM144 442q29 0 47.5 -20.5t18.5 -63.5q0 -26 -43 -241q-1 -4 -1 -17q0 -34 20 -34q11 0 34 33l24 33q3 0 11 -9t10 -17q-13 -33 -49 -73.5t-79 -40.5
q-31 0 -48 22t-17 63q0 24 5 49l36 184q3 15 3 22q0 36 -24 36q-10 0 -33 -33l-23 -33q-3 0 -10.5 9t-9.5 17q13 33 49 73.5t79 40.5z" />
    <glyph glyph-name="icircumflex" unicode="&#xee;" horiz-adv-x="279" 
d="M251 504q-7 0 -37 23.5t-50 42.5q-25 -19 -64.5 -42.5t-46.5 -23.5q-4 0 -5.5 8t0.5 13q2 2 11.5 10t25 22.5t32.5 31.5q32 32 50 55q10 10 14 10q3 0 8 -10q17 -33 26 -48q11 -18 23 -35t18.5 -25.5t7.5 -10.5q-5 -21 -13 -21zM144 442q29 0 47.5 -20.5t18.5 -63.5
q0 -26 -43 -241q-1 -4 -1 -17q0 -34 20 -34q11 0 34 33l24 33q3 0 11 -9t10 -17q-13 -33 -49 -73.5t-79 -40.5q-31 0 -48 22t-17 63q0 24 5 49l36 184q3 15 3 22q0 36 -24 36q-10 0 -33 -33l-23 -33q-3 0 -10.5 9t-9.5 17q13 33 49 73.5t79 40.5z" />
    <glyph glyph-name="idieresis" unicode="&#xef;" horiz-adv-x="279" 
d="M258 627q21 0 34.5 -15t13.5 -36q0 -29 -20 -51.5t-47 -22.5q-20 0 -33 16t-13 38q0 28 19 49.5t46 21.5zM94 628q21 0 34.5 -15.5t13.5 -36.5q0 -29 -20 -51t-47 -22q-21 0 -34 16t-13 38q0 28 19.5 49.5t46.5 21.5zM144 442q29 0 47.5 -20.5t18.5 -63.5q0 -26 -43 -241
q-1 -4 -1 -17q0 -34 20 -34q11 0 34 33l24 33q3 0 11 -9t10 -17q-13 -33 -49 -73.5t-79 -40.5q-31 0 -48 22t-17 63q0 24 5 49l36 184q3 15 3 22q0 36 -24 36q-10 0 -33 -33l-23 -33q-3 0 -10.5 9t-9.5 17q13 33 49 73.5t79 40.5z" />
    <glyph glyph-name="eth" unicode="&#xf0;" horiz-adv-x="420" 
d="M249 350q-43 0 -75 -37t-46 -87.5t-14 -102.5q0 -40 15.5 -59.5t39.5 -19.5q43 0 74 44t46 119q11 59 11 85q0 24 -15.5 41t-35.5 17zM233 398q43 0 68 -25l2 -1q4 0 4 17q0 102 -66 187l-104 -100q-9 3 -18 12.5t-9 17.5q0 5 3 8l98 95q-28 27 -68 49q0 10 8 21t19 13
q61 -34 78 -47l107 104q5 -2 15.5 -11.5t10.5 -16.5t-3 -11l-96 -94q124 -116 124 -285q0 -83 -24 -150t-61 -106.5t-78 -60t-80 -20.5q-64 0 -104.5 45t-40.5 114q0 94 67 169.5t148 75.5z" />
    <glyph glyph-name="ntilde" unicode="&#xf1;" horiz-adv-x="502" 
d="M223 600q28 0 66.5 -28.5t66.5 -28.5q14 0 38 23l24 23q6 0 6 -12q0 -19 -31 -53.5t-64 -34.5q-29 0 -67.5 28t-67.5 28q-13 0 -37 -24t-26 -24q-5 0 -5 13q0 25 32 57.5t65 32.5zM188 442q19 0 31.5 -14.5t12.5 -39.5q0 -19 -7 -59q-1 -4 -2 -10t-3.5 -19t-4 -21.5
l-1.5 -8.5q22 45 78.5 108.5t94.5 63.5q68 0 68 -88q0 -36 -15 -108l-26 -129q-3 -9 -3 -24q0 -25 10 -25t27 13.5t27.5 24.5t14.5 16q3 0 9.5 -9.5t6.5 -13.5q-11 -24 -62 -65t-88 -41q-18 0 -30.5 14.5t-12.5 40.5q0 20 9 63l29 142q8 41 8 56q0 42 -24 42
q-18 0 -50.5 -40.5t-63.5 -102.5t-41 -116l-20 -92q-16 -5 -43 -5t-47 5l60 310q4 22 4 32q0 24 -10 24q-12 0 -33.5 -19t-30.5 -31q-3 0 -9.5 10t-6.5 14q11 23 60.5 62.5t83.5 39.5z" />
    <glyph glyph-name="ograve" unicode="&#xf2;" horiz-adv-x="402" 
d="M306 504q-16 0 -89 43t-73 67q0 14 17.5 25.5t35.5 11.5q10 0 17 -5q17 -16 61 -66.5t44 -55.5q0 -6 -4.5 -13t-8.5 -7zM262 395q-31 0 -59.5 -42.5t-44.5 -102.5t-16 -116q1 -43 14 -67.5t36 -24.5q32 0 60 44.5t42.5 104t13.5 111.5q0 44 -12 68.5t-34 24.5zM273 442
q68 0 101.5 -42.5t33.5 -115.5q0 -71 -33 -138.5t-86.5 -109.5t-110.5 -42q-69 0 -102.5 42t-33.5 114q0 68 33 136t87 112t111 44z" />
    <glyph glyph-name="oacute" unicode="&#xf3;" horiz-adv-x="402" 
d="M206 504q-3 0 -7 6t-4 10q0 6 42.5 55.5t67.5 70.5q8 4 20 4q18 0 32 -10.5t14 -23.5q0 -24 -75.5 -68t-89.5 -44zM262 395q-31 0 -59.5 -42.5t-44.5 -102.5t-16 -116q1 -43 14 -67.5t36 -24.5q32 0 60 44.5t42.5 104t13.5 111.5q0 44 -12 68.5t-34 24.5zM273 442
q68 0 101.5 -42.5t33.5 -115.5q0 -71 -33 -138.5t-86.5 -109.5t-110.5 -42q-69 0 -102.5 42t-33.5 114q0 68 33 136t87 112t111 44z" />
    <glyph glyph-name="ocircumflex" unicode="&#xf4;" horiz-adv-x="402" 
d="M352 504q-7 0 -37 23.5t-50 42.5q-25 -19 -64.5 -42.5t-46.5 -23.5q-4 0 -5.5 8t0.5 13q2 2 11.5 10t25 22.5t32.5 31.5q32 32 50 55q10 10 14 10q3 0 8 -10q17 -33 26 -48q11 -18 23 -35t18.5 -25.5t7.5 -10.5q-5 -21 -13 -21zM262 395q-31 0 -59.5 -42.5t-44.5 -102.5
t-16 -116q1 -43 14 -67.5t36 -24.5q32 0 60 44.5t42.5 104t13.5 111.5q0 44 -12 68.5t-34 24.5zM273 442q68 0 101.5 -42.5t33.5 -115.5q0 -71 -33 -138.5t-86.5 -109.5t-110.5 -42q-69 0 -102.5 42t-33.5 114q0 68 33 136t87 112t111 44z" />
    <glyph glyph-name="otilde" unicode="&#xf5;" horiz-adv-x="402" 
d="M209 600q28 0 66.5 -28.5t66.5 -28.5q14 0 38 23l24 23q6 0 6 -12q0 -19 -31 -53.5t-64 -34.5q-29 0 -67.5 28t-67.5 28q-13 0 -37 -24t-26 -24q-5 0 -5 13q0 25 32 57.5t65 32.5zM262 395q-31 0 -59.5 -42.5t-44.5 -102.5t-16 -116q1 -43 14 -67.5t36 -24.5
q32 0 60 44.5t42.5 104t13.5 111.5q0 44 -12 68.5t-34 24.5zM273 442q68 0 101.5 -42.5t33.5 -115.5q0 -71 -33 -138.5t-86.5 -109.5t-110.5 -42q-69 0 -102.5 42t-33.5 114q0 68 33 136t87 112t111 44z" />
    <glyph glyph-name="odieresis" unicode="&#xf6;" horiz-adv-x="402" 
d="M356 628q20 0 33 -16.5t13 -37.5q0 -29 -20 -50t-48 -21q-19 0 -30.5 16t-11.5 37q0 29 18 50.5t46 21.5zM166 628q20 0 33 -16.5t13 -37.5q0 -29 -20 -50t-48 -21q-19 0 -30.5 16t-11.5 37q0 29 18 50.5t46 21.5zM262 395q-31 0 -59.5 -42.5t-44.5 -102.5t-16 -116
q1 -43 14 -67.5t36 -24.5q32 0 60 44.5t42.5 104t13.5 111.5q0 44 -12 68.5t-34 24.5zM273 442q68 0 101.5 -42.5t33.5 -115.5q0 -71 -33 -138.5t-86.5 -109.5t-110.5 -42q-69 0 -102.5 42t-33.5 114q0 68 33 136t87 112t111 44z" />
    <glyph glyph-name="divide" unicode="&#xf7;" horiz-adv-x="459" 
d="M273 494q19 0 31 -13t12 -33q0 -26 -17.5 -46.5t-42.5 -20.5q-18 0 -30 14.5t-12 34.5q0 25 17.5 44.5t41.5 19.5zM200 115q19 0 31 -13t12 -33q0 -26 -17.5 -46.5t-42.5 -20.5q-18 0 -30 14.5t-12 34.5q0 25 17.5 44.5t41.5 19.5zM27 282h427q4 0 4 -14q0 -29 -23 -54
h-428q-4 0 -4 14q0 26 24 54z" />
    <glyph glyph-name="oslash" unicode="&#xf8;" horiz-adv-x="406" 
d="M178 44q45 0 80.5 74t35.5 158q0 20 -1 30l-160 -226q15 -36 45 -36zM240 392q-45 0 -82 -74t-37 -156q0 -17 1 -26l159 226q-14 30 -41 30zM260 442q36 0 64 -19l14 19q4 1 19 -6.5t15 -14.5q0 -5 -1 -6l-16 -22q36 -49 36 -115q0 -113 -70.5 -198.5t-166.5 -85.5
q-37 0 -66 21l-16 -21q-7 0 -21 5.5t-14 12.5q0 3 3 6l19 27q-35 49 -35 117q0 109 70 194.5t166 85.5z" />
    <glyph glyph-name="ugrave" unicode="&#xf9;" horiz-adv-x="492" 
d="M327 504q-16 0 -89 43t-73 67q0 14 17.5 25.5t35.5 11.5q10 0 17 -5q17 -16 61 -66.5t44 -55.5q0 -6 -4.5 -13t-8.5 -7zM183 442q19 0 31 -14.5t12 -39.5q0 -29 -8 -64l-29 -142q-8 -43 -8 -56q0 -42 24 -42q17 0 49 40.5t61.5 102.5t40.5 117l19 91q17 5 44 5
q26 0 46 -5l-61 -318q-2 -11 -2 -24q0 -25 10 -25q9 0 26 13.5t27.5 24.5t15.5 16q2 0 9 -9.5t7 -13.5q-11 -24 -62.5 -65t-87.5 -41q-19 0 -31 14.5t-12 40.5q0 16 7 58q1 4 2 10t3.5 19t4 21.5l1.5 8.5q-13 -26 -40.5 -64t-65 -73t-63.5 -35q-68 0 -68 87q0 37 15 108
l24 122q4 18 4 32q0 24 -10 24q-12 0 -33 -19t-31 -31q-2 0 -9 10t-7 14q11 23 61 62.5t84 39.5z" />
    <glyph glyph-name="uacute" unicode="&#xfa;" horiz-adv-x="492" 
d="M235 504q-3 0 -7 6t-4 10q0 6 42.5 55.5t67.5 70.5q8 4 20 4q18 0 32 -10.5t14 -23.5q0 -24 -75.5 -68t-89.5 -44zM183 442q19 0 31 -14.5t12 -39.5q0 -29 -8 -64l-29 -142q-8 -43 -8 -56q0 -42 24 -42q17 0 49 40.5t61.5 102.5t40.5 117l19 91q17 5 44 5q26 0 46 -5
l-61 -318q-2 -11 -2 -24q0 -25 10 -25q9 0 26 13.5t27.5 24.5t15.5 16q2 0 9 -9.5t7 -13.5q-11 -24 -62.5 -65t-87.5 -41q-19 0 -31 14.5t-12 40.5q0 16 7 58q1 4 2 10t3.5 19t4 21.5l1.5 8.5q-13 -26 -40.5 -64t-65 -73t-63.5 -35q-68 0 -68 87q0 37 15 108l24 122
q4 18 4 32q0 24 -10 24q-12 0 -33 -19t-31 -31q-2 0 -9 10t-7 14q11 23 61 62.5t84 39.5z" />
    <glyph glyph-name="ucircumflex" unicode="&#xfb;" horiz-adv-x="492" 
d="M366 504q-7 0 -37 23.5t-50 42.5q-25 -19 -64.5 -42.5t-46.5 -23.5q-4 0 -5.5 8t0.5 13q2 2 11.5 10t25 22.5t32.5 31.5q32 32 50 55q10 10 14 10q3 0 8 -10q17 -33 26 -48q11 -18 23 -35t18.5 -25.5t7.5 -10.5q-5 -21 -13 -21zM183 442q19 0 31 -14.5t12 -39.5
q0 -29 -8 -64l-29 -142q-8 -43 -8 -56q0 -42 24 -42q17 0 49 40.5t61.5 102.5t40.5 117l19 91q17 5 44 5q26 0 46 -5l-61 -318q-2 -11 -2 -24q0 -25 10 -25q9 0 26 13.5t27.5 24.5t15.5 16q2 0 9 -9.5t7 -13.5q-11 -24 -62.5 -65t-87.5 -41q-19 0 -31 14.5t-12 40.5
q0 16 7 58q1 4 2 10t3.5 19t4 21.5l1.5 8.5q-13 -26 -40.5 -64t-65 -73t-63.5 -35q-68 0 -68 87q0 37 15 108l24 122q4 18 4 32q0 24 -10 24q-12 0 -33 -19t-31 -31q-2 0 -9 10t-7 14q11 23 61 62.5t84 39.5z" />
    <glyph glyph-name="udieresis" unicode="&#xfc;" horiz-adv-x="492" 
d="M374 628q20 0 33 -16.5t13 -37.5q0 -29 -20 -50t-48 -21q-19 0 -30.5 16t-11.5 37q0 29 18 50.5t46 21.5zM184 628q20 0 33 -16.5t13 -37.5q0 -29 -20 -50t-48 -21q-19 0 -30.5 16t-11.5 37q0 29 18 50.5t46 21.5zM183 442q19 0 31 -14.5t12 -39.5q0 -29 -8 -64l-29 -142
q-8 -43 -8 -56q0 -42 24 -42q17 0 49 40.5t61.5 102.5t40.5 117l19 91q17 5 44 5q26 0 46 -5l-61 -318q-2 -11 -2 -24q0 -25 10 -25q9 0 26 13.5t27.5 24.5t15.5 16q2 0 9 -9.5t7 -13.5q-11 -24 -62.5 -65t-87.5 -41q-19 0 -31 14.5t-12 40.5q0 16 7 58q1 4 2 10t3.5 19
t4 21.5l1.5 8.5q-13 -26 -40.5 -64t-65 -73t-63.5 -35q-68 0 -68 87q0 37 15 108l24 122q4 18 4 32q0 24 -10 24q-12 0 -33 -19t-31 -31q-2 0 -9 10t-7 14q11 23 61 62.5t84 39.5z" />
    <glyph glyph-name="yacute" unicode="&#xfd;" horiz-adv-x="484" 
d="M306 504q-3 0 -7 6t-4 10q0 6 42.5 55.5t67.5 70.5q8 4 20 4q18 0 32 -10.5t14 -23.5q0 -24 -75.5 -68t-89.5 -44zM213 442q20 0 36.5 -26t27 -68.5t17.5 -87.5t11 -94t5.5 -75.5t1.5 -43.5q28 34 65 106.5t37 125.5q0 59 -31 111q3 22 19.5 37t37.5 15q25 0 37.5 -21.5
t12.5 -45.5q0 -76 -32.5 -164t-85 -163t-113 -138t-121 -99.5t-104.5 -36.5q-26 0 -43 12.5t-17 35.5q0 28 20 44q33 -12 72 -12q79 0 130 70q22 30 22 111q0 86 -14.5 181t-42.5 136q-10 7 -39 -9q-5 0 -12 -2t-13.5 -5t-12 -5.5t-6.5 -2.5q2 5 24 32t55.5 54.5t55.5 27.5z
" />
    <glyph glyph-name="thorn" unicode="&#xfe;" horiz-adv-x="498" 
d="M331 371q-24 0 -49 -10t-39.5 -21t-15.5 -16l-38 -194q-5 -24 -5 -36q0 -24 13 -40t33 -16q53 0 99.5 81t46.5 193q0 27 -13.5 43t-31.5 16zM383 435q47 0 75 -34t28 -79q0 -79 -40.5 -156.5t-101.5 -124.5t-121 -47q-29 0 -46 10q-6 4 -8 4q-3 0 -6 -12l-23 -121
q-2 -14 -2 -29q0 -26 27 -32q9 -2 32 -2q6 0 6 -11q0 -13 -4 -19h-44q-71 0 -165 -10q-4 2 -4 14q0 16 5 16q28 0 38 12q6 8 19 61l79 405l-51 -30q-9 14 -9 28q0 6 5 9q47 35 66 47l41 216q9 39 9 56q0 22 -49 22q-4 0 -4 6t4 14t6 8q26 0 79.5 14.5t70.5 23.5h4q8 0 8 -16
q-18 -35 -29 -91l-40 -205q16 17 54.5 35t90.5 18z" />
    <glyph glyph-name="ydieresis" unicode="&#xff;" horiz-adv-x="484" 
d="M435 628q20 0 33 -16.5t13 -37.5q0 -29 -20 -50t-48 -21q-19 0 -30.5 16t-11.5 37q0 29 18 50.5t46 21.5zM245 628q20 0 33 -16.5t13 -37.5q0 -29 -20 -50t-48 -21q-19 0 -30.5 16t-11.5 37q0 29 18 50.5t46 21.5zM213 442q20 0 36.5 -26t27 -68.5t17.5 -87.5t11 -94
t5.5 -75.5t1.5 -43.5q28 34 65 106.5t37 125.5q0 59 -31 111q3 22 19.5 37t37.5 15q25 0 37.5 -21.5t12.5 -45.5q0 -76 -32.5 -164t-85 -163t-113 -138t-121 -99.5t-104.5 -36.5q-26 0 -43 12.5t-17 35.5q0 28 20 44q33 -12 72 -12q79 0 130 70q22 30 22 111q0 86 -14.5 181
t-42.5 136q-10 7 -39 -9q-5 0 -12 -2t-13.5 -5t-12 -5.5t-6.5 -2.5q2 5 24 32t55.5 54.5t55.5 27.5z" />
    <glyph glyph-name="Amacron" unicode="&#x100;" horiz-adv-x="648" 
d="M314 739q0 9 8.5 28.5t14.5 19.5h250q6 0 4 -8q-3 -12 -6.5 -21t-8 -16.5t-5.5 -9.5h-250q-7 0 -7 7zM323 231q-37 0 -94 -3q-4 0 -6 -4q-5 -9 -27.5 -45t-29.5 -48q-31 -52 -31 -71q0 -16 24 -24.5t36 -8.5q2 0 2 -5q0 -13 -6 -25q-11 1 -39.5 3.5t-52.5 2.5
q-25 0 -60.5 -2.5t-48.5 -3.5q-2 4 -2 7q0 23 6 23q11 0 37.5 10t34.5 21q14 17 50 78l277 474q31 54 52 54q6 0 10 -4l94 -524q3 -16 14 -73q3 -15 23.5 -25.5t30.5 -10.5q2 0 2 -6q0 -16 -4 -24q-111 6 -114 6q-11 0 -125 -6q-1 1 -1 6q0 24 6 24q10 0 30 7.5t25 15.5
q6 12 6 30q0 9 -20 143q0 5 -5 5q-18 3 -94 3zM335 285q29 0 72 3q4 0 4 4q-3 20 -17 103t-16 97l-115 -202v-2q30 -3 72 -3z" />
    <glyph glyph-name="amacron" unicode="&#x101;" horiz-adv-x="450" 
d="M183 513q12 48 22 48h212q7 0 4 -9q-5 -19 -15 -41l-8 -8h-212h-1.5t-1.5 2.5t0 7.5zM337 442q49 0 83 -18l-59 -307q-3 -9 -3 -24q0 -25 10 -25t27 13.5t27.5 24.5t15.5 16q2 0 9 -9.5t7 -13.5q-11 -24 -62.5 -65t-87.5 -41q-19 0 -31.5 14.5t-12.5 38.5q0 11 4 33
q3 16 4 21q-9 -16 -20.5 -31.5t-28 -34t-37 -29.5t-40.5 -11q-49 0 -77.5 40t-28.5 101q0 70 41.5 141t112.5 118.5t147 47.5zM287 387q-57 0 -104.5 -86.5t-47.5 -162.5q0 -78 41 -78q34 0 72.5 72t53.5 149l19 96q-9 10 -34 10z" />
    <glyph glyph-name="Abreve" unicode="&#x102;" horiz-adv-x="648" 
d="M462 782q25 0 50 15t38 37q0 2 6 2q5 -1 10 -8.5t4 -11.5q0 -1 -1 -3.5t-1 -3.5q-20 -35 -52 -58t-64 -23q-33 0 -56 22.5t-29 58.5q0 1 -0.5 3.5t-0.5 3.5q0 4 9.5 11.5t14.5 8.5q3 0 3 -2q5 -22 24.5 -37t44.5 -15zM323 231q-37 0 -94 -3q-4 0 -6 -4q-5 -9 -27.5 -45
t-29.5 -48q-31 -52 -31 -71q0 -16 24 -24.5t36 -8.5q2 0 2 -5q0 -13 -6 -25q-11 1 -39.5 3.5t-52.5 2.5q-25 0 -60.5 -2.5t-48.5 -3.5q-2 4 -2 7q0 23 6 23q11 0 37.5 10t34.5 21q14 17 50 78l277 474q31 54 52 54q6 0 10 -4l94 -524q3 -16 14 -73q3 -15 23.5 -25.5
t30.5 -10.5q2 0 2 -6q0 -16 -4 -24q-111 6 -114 6q-11 0 -125 -6q-1 1 -1 6q0 24 6 24q10 0 30 7.5t25 15.5q6 12 6 30q0 9 -20 143q0 5 -5 5q-18 3 -94 3zM335 285q29 0 72 3q4 0 4 4q-3 20 -17 103t-16 97l-115 -202v-2q30 -3 72 -3z" />
    <glyph glyph-name="abreve" unicode="&#x103;" horiz-adv-x="450" 
d="M309 555q26 0 50.5 17.5t37.5 47.5q0 4 4 4q5 0 12.5 -7t6.5 -11q0 -1 -1.5 -4t-1.5 -4q-17 -41 -50 -68.5t-69 -27.5q-37 0 -61 27.5t-24 69.5v7q1 4 11 11t15 7q4 0 4 -4q1 -29 20.5 -47t45.5 -18zM337 442q49 0 83 -18l-59 -307q-3 -9 -3 -24q0 -25 10 -25t27 13.5
t27.5 24.5t15.5 16q2 0 9 -9.5t7 -13.5q-11 -24 -62.5 -65t-87.5 -41q-19 0 -31.5 14.5t-12.5 38.5q0 11 4 33q3 16 4 21q-9 -16 -20.5 -31.5t-28 -34t-37 -29.5t-40.5 -11q-49 0 -77.5 40t-28.5 101q0 70 41.5 141t112.5 118.5t147 47.5zM287 387q-57 0 -104.5 -86.5
t-47.5 -162.5q0 -78 41 -78q34 0 72.5 72t53.5 149l19 96q-9 10 -34 10z" />
    <glyph glyph-name="Aogonek" unicode="&#x104;" horiz-adv-x="649" 
d="M342 285q28 0 71 3q4 0 4 4q-3 20 -16.5 103t-15.5 97l-116 -202q0 -2 1 -2q30 -3 72 -3zM391 610q11 19 26.5 36.5t26.5 17.5q6 0 10 -4l94 -524q7 -42 13 -73q3 -15 26 -25.5t33 -10.5q2 0 2 -5q0 -14 -6 -26q-93 6 -99 6q-52 0 -105.5 -46t-53.5 -86q0 -27 29 -27
q21 0 39.5 8t29 16t11.5 8q5 -1 1 -15t-7 -17q-59 -66 -114 -66q-23 0 -38.5 16t-15.5 40q0 65 124 179q34 29 34 54q0 10 -22 157q0 3 -5 5q-11 3 -95 3q-58 0 -92 -2q-5 0 -5 -3q-1 -1 -18.5 -30t-35 -62t-17.5 -41q-5 -17 -3 -25t8 -15.5t6 -8.5q0 -5 5 -9t10.5 -5.5
t11 -3.5t6.5 -2q0 -8 -1 -12q-7 -1 -22.5 -6.5t-27.5 -6.5q-71 2 -103 1h-60q0 12 2 14l32 24q58 42 73 67q2 3 19 31z" />
    <glyph glyph-name="aogonek" unicode="&#x105;" horiz-adv-x="465" 
d="M288 392q-33 0 -74 -46.5t-69 -110.5t-28 -111q0 -64 34 -64q32 0 75.5 69.5t55.5 136.5l17 94q0 2 1 9t1 9q0 14 -13 14zM311 442q30 0 57.5 -6t34.5 -12l-58 -306q-2 -10 -2 -20q0 -31 21 -31q11 0 34 33l24 32q3 0 11 -9t10 -17q-14 -34 -72 -94q-6 -6 -32 -30
t-38 -37t-24.5 -34t-12.5 -39q0 -29 29 -29q21 0 39.5 8t29 16t11.5 8q5 -1 1.5 -15t-6.5 -17q-23 -26 -54.5 -46t-60.5 -20q-23 0 -38.5 16t-15.5 39q0 65 96 165q-36 7 -44 61q-1 10 1 28l1 17l-2 2l-2 -2q-76 -111 -140 -111q-50 0 -71 27t-21 79q0 69 48.5 151
t118.5 137.5t127 55.5z" />
    <glyph glyph-name="Cacute" unicode="&#x106;" horiz-adv-x="610" 
d="M367 715q-4 0 -8.5 5t-4.5 10q0 6 39 39t66 49q10 5 24 5q26 0 45.5 -8t19.5 -23q0 -18 -80.5 -47.5t-100.5 -29.5zM404 667q85 0 210 -37q0 -6 -7 -67t-9 -69q-3 -15 -25 -15q-9 0 -13 3q-1 18 -6 36.5t-20 43.5t-50 40.5t-86 15.5q-100 0 -177.5 -109t-77.5 -256
q0 -93 44.5 -152t129.5 -59q83 0 136 34q21 14 38 35t25 35t9 14q4 0 13.5 -6t10.5 -12q-1 -2 -10.5 -27.5t-18.5 -47t-15 -27.5q-22 -21 -81 -33.5t-125 -12.5q-125 0 -199.5 78.5t-74.5 190.5q0 99 53.5 193t142 152.5t183.5 58.5z" />
    <glyph glyph-name="cacute" unicode="&#x107;" horiz-adv-x="348" 
d="M215 504q-3 0 -7 6t-4 10q0 6 42.5 55.5t67.5 70.5q8 4 20 4q18 0 32 -10.5t14 -23.5q0 -24 -75.5 -68t-89.5 -44zM264 442q59 0 100 -40q4 -16 4 -26q0 -22 -11 -37t-29 -15q-14 0 -24 11t-14.5 24t-14 24t-23.5 11q-26 0 -54 -32.5t-47 -86.5t-19 -109q0 -104 64 -104
q22 0 46 14t34.5 24.5l17.5 17.5q2 0 9 -9.5t7 -13.5q-13 -26 -60.5 -63.5t-91.5 -37.5q-63 0 -94.5 42t-31.5 115q0 68 33.5 136t88 111.5t110.5 43.5z" />
    <glyph glyph-name="Ccircumflex" unicode="&#x108;" horiz-adv-x="610" 
d="M519 728q-19 0 -106 60q-30 -18 -76 -39t-55 -21q-12 0 -6 19q1 1 29 20.5t55 40.5q33 25 55 47q11 9 14 9q8 0 13 -9q2 -4 13 -20t19 -26q14 -17 28.5 -31.5t22.5 -22t9 -8.5q-5 -19 -15 -19zM404 667q85 0 210 -37q0 -6 -7 -67t-9 -69q-3 -15 -25 -15q-9 0 -13 3
q-1 18 -6 36.5t-20 43.5t-50 40.5t-86 15.5q-100 0 -177.5 -109t-77.5 -256q0 -93 44.5 -152t129.5 -59q83 0 136 34q21 14 38 35t25 35t9 14q4 0 13.5 -6t10.5 -12q-1 -2 -10.5 -27.5t-18.5 -47t-15 -27.5q-22 -21 -81 -33.5t-125 -12.5q-125 0 -199.5 78.5t-74.5 190.5
q0 99 53.5 193t142 152.5t183.5 58.5z" />
    <glyph glyph-name="ccircumflex" unicode="&#x109;" horiz-adv-x="348" 
d="M343 504q-7 0 -37 23.5t-50 42.5q-25 -19 -64.5 -42.5t-46.5 -23.5q-4 0 -5.5 8t0.5 13q2 2 11.5 10t25 22.5t32.5 31.5q32 32 50 55q10 10 14 10q3 0 8 -10q17 -33 26 -48q11 -18 23 -35t18.5 -25.5t7.5 -10.5q-5 -21 -13 -21zM264 442q59 0 100 -40q4 -16 4 -26
q0 -22 -11 -37t-29 -15q-14 0 -24 11t-14.5 24t-14 24t-23.5 11q-26 0 -54 -32.5t-47 -86.5t-19 -109q0 -104 64 -104q22 0 46 14t34.5 24.5l17.5 17.5q2 0 9 -9.5t7 -13.5q-13 -26 -60.5 -63.5t-91.5 -37.5q-63 0 -94.5 42t-31.5 115q0 68 33.5 136t88 111.5t110.5 43.5z
" />
    <glyph glyph-name="Cdotaccent" unicode="&#x10a;" horiz-adv-x="610" 
d="M365 790q4 25 25 43.5t45 18.5t37.5 -18t8.5 -44q-4 -25 -25 -43.5t-45 -18.5t-37.5 18t-8.5 44zM404 667q85 0 210 -37q0 -6 -7 -67t-9 -69q-3 -15 -25 -15q-9 0 -13 3q-1 18 -6 36.5t-20 43.5t-50 40.5t-86 15.5q-100 0 -177.5 -109t-77.5 -256q0 -93 44.5 -152
t129.5 -59q83 0 136 34q21 14 38 35t25 35t9 14q4 0 13.5 -6t10.5 -12q-1 -2 -10.5 -27.5t-18.5 -47t-15 -27.5q-22 -21 -81 -33.5t-125 -12.5q-125 0 -199.5 78.5t-74.5 190.5q0 99 53.5 193t142 152.5t183.5 58.5z" />
    <glyph glyph-name="cdotaccent" unicode="&#x10b;" horiz-adv-x="348" 
d="M194 593q5 26 25 44.5t44 18.5t38 -18.5t9 -44.5q-4 -25 -25 -43.5t-45 -18.5t-37.5 18t-8.5 44zM264 442q59 0 100 -40q4 -16 4 -26q0 -22 -11 -37t-29 -15q-14 0 -24 11t-14.5 24t-14 24t-23.5 11q-26 0 -54 -32.5t-47 -86.5t-19 -109q0 -104 64 -104q22 0 46 14
t34.5 24.5l17.5 17.5q2 0 9 -9.5t7 -13.5q-13 -26 -60.5 -63.5t-91.5 -37.5q-63 0 -94.5 42t-31.5 115q0 68 33.5 136t88 111.5t110.5 43.5z" />
    <glyph glyph-name="Ccaron" unicode="&#x10c;" horiz-adv-x="610" 
d="M409 803q101 61 116 61q10 0 5 -20q-25 -16 -75 -62q-30 -27 -48 -45q-9 -9 -13 -9t-9 9q-8 16 -30 46q-16 22 -33.5 41t-17.5 20q7 20 13 20q8 0 40.5 -22t51.5 -39zM404 667q85 0 210 -37q0 -6 -7 -67t-9 -69q-3 -15 -25 -15q-9 0 -13 3q-1 18 -6 36.5t-20 43.5
t-50 40.5t-86 15.5q-100 0 -177.5 -109t-77.5 -256q0 -93 44.5 -152t129.5 -59q83 0 136 34q21 14 38 35t25 35t9 14q4 0 13.5 -6t10.5 -12q-1 -2 -10.5 -27.5t-18.5 -47t-15 -27.5q-22 -21 -81 -33.5t-125 -12.5q-125 0 -199.5 78.5t-74.5 190.5q0 99 53.5 193t142 152.5
t183.5 58.5z" />
    <glyph glyph-name="ccaron" unicode="&#x10d;" horiz-adv-x="348" 
d="M263 591q25 20 63 45t45 25q8 0 3 -23q-1 -1 -8 -7.5t-15 -14t-21.5 -21.5t-27.5 -29q-10 -11 -24 -29t-20 -25q-7 -9 -11 -9q-6 0 -9 9q-11 29 -25 55q-12 23 -42 71q6 23 13 23t35 -25t44 -45zM264 442q59 0 100 -40q4 -16 4 -26q0 -22 -11 -37t-29 -15q-14 0 -24 11
t-14.5 24t-14 24t-23.5 11q-26 0 -54 -32.5t-47 -86.5t-19 -109q0 -104 64 -104q22 0 46 14t34.5 24.5l17.5 17.5q2 0 9 -9.5t7 -13.5q-13 -26 -60.5 -63.5t-91.5 -37.5q-63 0 -94.5 42t-31.5 115q0 68 33.5 136t88 111.5t110.5 43.5z" />
    <glyph glyph-name="Dcaron" unicode="&#x10e;" horiz-adv-x="686" 
d="M398 803q101 61 116 61q10 0 5 -20q-25 -16 -75 -62q-30 -27 -48 -45q-9 -9 -13 -9t-9 9q-8 16 -30 46q-16 22 -33.5 41t-17.5 20q7 20 13 20q8 0 40.5 -22t51.5 -39zM403 658q131 0 198 -72t67 -182q0 -68 -26.5 -138.5t-74.5 -131t-125 -99t-169 -38.5q-18 0 -71 2.5
t-87 2.5l-121 -5q-2 2 -2 9q0 21 7 21q10 0 34.5 8.5t28.5 16.5q14 30 24 86l74 380q12 61 10 85q-1 8 -22.5 18.5t-31.5 10.5q-1 0 -1 4q0 20 6 26q57 -4 119 -4h163zM399 608q-95 0 -108 -16q-17 -19 -25 -70l-74 -384q-13 -65 -4 -74q13 -16 110 -16q101 0 168 91.5
t82 237.5q11 100 -26 165.5t-123 65.5z" />
    <glyph glyph-name="dcaron" unicode="&#x10f;" horiz-adv-x="464" 
d="M559 630q0 34 24.5 49t58.5 15q4 -8 4 -26q0 -21 -4 -41q-7 -37 -41 -80.5t-62 -59.5h-4q-4 0 -8.5 6t-4.5 11q0 1 12.5 12t25.5 29t13 37q0 7 -7 21.5t-7 26.5zM327 441h8l1 1l24 120q6 34 6 46q0 20 -55 20q-3 0 -3 7q0 13 8 21q31 2 77.5 13.5t69.5 20.5q8 -4 8 -20
q0 -5 -3 -20t-7.5 -34.5t-5.5 -27.5l-91 -471q-3 -9 -3 -24q0 -25 10 -25t27 13.5t27.5 24.5t15.5 16q2 0 9 -9.5t7 -13.5q-12 -24 -63 -65t-87 -41q-19 0 -31.5 14.5t-12.5 38.5q0 12 4 34q1 6 4 21q-9 -15 -19.5 -30t-27.5 -34.5t-37.5 -31t-40.5 -11.5q-51 0 -79 40
t-28 101q0 69 39.5 139t107.5 117.5t141 49.5zM318 350q3 16 -5 26.5t-22 10.5q-40 0 -76.5 -43.5t-56.5 -101t-20 -105.5q0 -77 41 -77q34 0 72 71t54 151z" />
    <glyph glyph-name="Dcroat" unicode="&#x110;" horiz-adv-x="690" 
d="M403 608q-94 0 -108 -16q-18 -22 -25 -70l-31 -156h115q6 0 6 -15q0 -13 -8 -30.5t-14 -22.5h-112l-30 -160q-13 -65 -4 -74q13 -16 110 -16q101 0 168 91.5t82 237.5q10 100 -27 165.5t-122 65.5zM407 658q131 0 198 -72t67 -182q0 -68 -26.5 -138.5t-74.5 -131
t-125 -99t-169 -38.5q-18 0 -71 2.5t-87 2.5l-121 -6q-2 2 -2 10q0 7 3 16.5t5 9.5q12 0 35 6t27 14q14 30 24 86l31 160h-68q-6 0 -6 14q0 13 8 31t14 23h65l30 152q12 61 10 85q-1 8 -22.5 16.5t-31.5 8.5q-1 0 -1 4q0 21 9 30q54 -4 116 -4h163z" />
    <glyph glyph-name="dcroat" unicode="&#x111;" horiz-adv-x="508" 
d="M18 102q0 71 42 150.5t105.5 133.5t120.5 54q22 0 42 -10l2 -1l2 -1q2 0 2 4q15 71 15 72q0 6 -3 6h-102l-3 1q-1 2 0 7q9 36 13 44l6 4h98q1 0 4 6q5 22 5 34q0 22 -49 22q-4 0 -4 6q0 7 4 14.5t6 7.5q27 0 79 14t71 23q2 1 4 1q8 0 8 -16q-20 -35 -30 -90
q-3 -14 -3 -16q0 -6 4 -6h51q5 0 4 -8q-7 -33 -10 -42q-1 -3 -3 -4.5t-3 -1.5h-1h-49q-4 0 -6 -6l-73 -378q-4 -16 -4 -25q0 -34 23 -34q11 0 34 33l22 32q3 0 11 -8.5t10 -16.5q-13 -35 -49.5 -75t-78.5 -40q-28 0 -45 19t-17 46q0 11 1 27l1 15q0 4 -2 4q-1 0 -3 -4
q-19 -29 -64 -68t-86 -39q-48 0 -75 29.5t-27 80.5zM277 395q-49 0 -101 -91t-52 -182q0 -62 40 -62q36 0 80 68.5t58 133.5l16 72q3 10 3 20q0 18 -12.5 29.5t-31.5 11.5z" />
    <glyph glyph-name="Emacron" unicode="&#x112;" horiz-adv-x="544" 
d="M220 739q0 9 8.5 28.5t14.5 19.5h250q6 0 4 -8q-3 -12 -6.5 -21t-8 -16.5t-5.5 -9.5h-250q-7 0 -7 7zM240 658q46 -1 149.5 2.5t148.5 3.5q-2 -22 -2 -65q0 -13 0.5 -38.5t0.5 -38.5q-5 -5 -20 -5q-12 0 -12 7q-12 89 -105 89h-45q-65 0 -69 -13q-16 -45 -20 -72
l-30 -165q0 -2 2.5 -3.5t8.5 -2t12.5 -1t14.5 -0.5h62q45 0 56.5 9t32.5 57q3 8 15 8q13 0 17 -6l-36 -190q-4 -4 -18 -4q-12 0 -13 8q-2 47 -14 59q-10 9 -86 9q-66 0 -68 -8l-29 -152q-9 -43 -9 -72q0 -17 8.5 -21t51.5 -4h35q73 0 115 21q16 8 40 34.5t42 61.5q3 6 14 6
q20 0 24 -6q-74 -143 -83 -169q-53 0 -165 2.5t-151 2.5l-121 -5q-2 2 -2 9q0 21 7 21q10 0 34.5 8.5t28.5 16.5q14 30 24 86l74 380q12 61 10 85q-1 8 -22.5 18.5t-31.5 10.5q-1 0 -1 4q0 20 6 26q57 -4 119 -4z" />
    <glyph glyph-name="emacron" unicode="&#x113;" horiz-adv-x="356" 
d="M130 513q12 48 22 48h212q7 0 4 -9q-5 -19 -15 -41l-8 -8h-212h-1.5t-1.5 2.5t0 7.5zM268 442q48 0 77.5 -24.5t29.5 -59.5q0 -47 -47.5 -90t-101.5 -65t-86 -22q-4 0 -4 -23q0 -96 64 -96q22 0 46 14t34.5 24.5l17.5 17.5q2 0 9 -9.5t7 -13.5q-13 -26 -60.5 -63.5
t-91.5 -37.5q-62 0 -94 41.5t-32 116.5q0 67 33.5 134.5t88 111.5t110.5 44zM258 394q-36 0 -74.5 -60.5t-38.5 -105.5q0 -4 4 -4q41 0 87 45.5t46 90.5q0 15 -6 24.5t-18 9.5z" />
    <glyph glyph-name="Ebreve" unicode="&#x114;" horiz-adv-x="544" 
d="M356 782q25 0 50 15t38 37q0 2 6 2q5 -1 10 -8.5t4 -11.5q0 -1 -1 -3.5t-1 -3.5q-20 -35 -52 -58t-64 -23q-33 0 -56 22.5t-29 58.5q0 1 -0.5 3.5t-0.5 3.5q0 4 9.5 11.5t14.5 8.5q3 0 3 -2q5 -22 24.5 -37t44.5 -15zM240 658q46 -1 149.5 2.5t148.5 3.5q-2 -22 -2 -65
q0 -13 0.5 -38.5t0.5 -38.5q-5 -5 -20 -5q-12 0 -12 7q-12 89 -105 89h-45q-65 0 -69 -13q-16 -45 -20 -72l-30 -165q0 -2 2.5 -3.5t8.5 -2t12.5 -1t14.5 -0.5h62q45 0 56.5 9t32.5 57q3 8 15 8q13 0 17 -6l-36 -190q-4 -4 -18 -4q-12 0 -13 8q-2 47 -14 59q-10 9 -86 9
q-66 0 -68 -8l-29 -152q-9 -43 -9 -72q0 -17 8.5 -21t51.5 -4h35q73 0 115 21q16 8 40 34.5t42 61.5q3 6 14 6q20 0 24 -6q-74 -143 -83 -169q-53 0 -165 2.5t-151 2.5l-121 -5q-2 2 -2 9q0 21 7 21q10 0 34.5 8.5t28.5 16.5q14 30 24 86l74 380q12 61 10 85
q-1 8 -22.5 18.5t-31.5 10.5q-1 0 -1 4q0 20 6 26q57 -4 119 -4z" />
    <glyph glyph-name="ebreve" unicode="&#x115;" horiz-adv-x="356" 
d="M261 555q26 0 50.5 17.5t37.5 47.5q0 4 4 4q5 0 12.5 -7t6.5 -11q0 -1 -1.5 -4t-1.5 -4q-17 -41 -50 -68.5t-69 -27.5q-37 0 -61 27.5t-24 69.5v7q1 4 11 11t15 7q4 0 4 -4q1 -29 20.5 -47t45.5 -18zM268 442q48 0 77.5 -24.5t29.5 -59.5q0 -47 -47.5 -90t-101.5 -65
t-86 -22q-4 0 -4 -23q0 -96 64 -96q22 0 46 14t34.5 24.5l17.5 17.5q2 0 9 -9.5t7 -13.5q-13 -26 -60.5 -63.5t-91.5 -37.5q-62 0 -94 41.5t-32 116.5q0 67 33.5 134.5t88 111.5t110.5 44zM258 394q-36 0 -74.5 -60.5t-38.5 -105.5q0 -4 4 -4q41 0 87 45.5t46 90.5
q0 15 -6 24.5t-18 9.5z" />
    <glyph glyph-name="Edotaccent" unicode="&#x116;" horiz-adv-x="544" 
d="M307 790q4 25 25 43.5t45 18.5t37.5 -18t8.5 -44q-4 -25 -25 -43.5t-45 -18.5t-37.5 18t-8.5 44zM240 658q46 -1 149.5 2.5t148.5 3.5q-2 -22 -2 -65q0 -13 0.5 -38.5t0.5 -38.5q-5 -5 -20 -5q-12 0 -12 7q-12 89 -105 89h-45q-65 0 -69 -13q-16 -45 -20 -72l-30 -165
q0 -2 2.5 -3.5t8.5 -2t12.5 -1t14.5 -0.5h62q45 0 56.5 9t32.5 57q3 8 15 8q13 0 17 -6l-36 -190q-4 -4 -18 -4q-12 0 -13 8q-2 47 -14 59q-10 9 -86 9q-66 0 -68 -8l-29 -152q-9 -43 -9 -72q0 -17 8.5 -21t51.5 -4h35q73 0 115 21q16 8 40 34.5t42 61.5q3 6 14 6
q20 0 24 -6q-74 -143 -83 -169q-53 0 -165 2.5t-151 2.5l-121 -5q-2 2 -2 9q0 21 7 21q10 0 34.5 8.5t28.5 16.5q14 30 24 86l74 380q12 61 10 85q-1 8 -22.5 18.5t-31.5 10.5q-1 0 -1 4q0 20 6 26q57 -4 119 -4z" />
    <glyph glyph-name="edotaccent" unicode="&#x117;" horiz-adv-x="356" 
d="M200 593q5 26 25 44.5t44 18.5t38 -18.5t9 -44.5q-4 -25 -25 -43.5t-45 -18.5t-37.5 18t-8.5 44zM268 442q48 0 77.5 -24.5t29.5 -59.5q0 -47 -47.5 -90t-101.5 -65t-86 -22q-4 0 -4 -23q0 -96 64 -96q22 0 46 14t34.5 24.5l17.5 17.5q2 0 9 -9.5t7 -13.5
q-13 -26 -60.5 -63.5t-91.5 -37.5q-62 0 -94 41.5t-32 116.5q0 67 33.5 134.5t88 111.5t110.5 44zM258 394q-36 0 -74.5 -60.5t-38.5 -105.5q0 -4 4 -4q41 0 87 45.5t46 90.5q0 15 -6 24.5t-18 9.5z" />
    <glyph glyph-name="Eogonek" unicode="&#x118;" horiz-adv-x="542" 
d="M429 -3q-60 0 -108.5 -43t-48.5 -84q0 -27 29 -27q21 0 39.5 8t29 16t11.5 8q5 -1 1 -15t-7 -17q-59 -66 -114 -66q-23 0 -38.5 15.5t-15.5 39.5q0 39 40 93t77 73q-33 0 -109.5 2t-107.5 2q-27 0 -49.5 -1t-40.5 -3t-25 -2q-1 1 -1 9q0 21 6 21q10 0 34 8.5t29 17.5
q13 26 25 90l73 376q11 74 11 85q-1 8 -22.5 17.5t-31.5 9.5q-2 0 -2 5q0 18 7 25q63 -3 119 -3q51 0 149 3.5t148 3.5q-1 -11 -1 -65v-77q-5 -5 -20 -5q-12 0 -12 7q-12 89 -105 89h-45q-65 0 -69 -13q-14 -40 -19 -72l-31 -165q0 -2 2.5 -3.5t8.5 -2t12.5 -1t14.5 -0.5h62
q45 0 56.5 9t32.5 57q3 8 16 8q12 0 16 -6l-36 -190q-4 -4 -18 -4q-12 0 -13 8q-2 47 -13 58q-13 10 -86 10q-66 0 -68 -8l-30 -152q-8 -40 -8 -72q0 -17 8.5 -21t51.5 -4h34q74 0 116 21q16 8 39.5 34.5t41.5 61.5q3 6 15 6q20 0 24 -6q-5 -10 -28.5 -53t-36 -69.5
t-19.5 -46.5z" />
    <glyph glyph-name="eogonek" unicode="&#x119;" horiz-adv-x="368" 
d="M122 -128q0 -29 30 -29q21 0 39.5 8t29 16t11.5 8q5 -1 1 -15t-7 -17q-23 -26 -54.5 -46t-60.5 -20q-23 0 -38.5 16t-15.5 39q0 65 94 163q-58 3 -94 50t-36 116q0 109 74.5 195t162.5 86q44 0 68 -27t24 -60q0 -44 -45.5 -86.5t-98 -65t-84.5 -22.5q-3 0 -3 -9
q0 -62 22.5 -88.5t54.5 -26.5q19 0 40 16.5t35 33.5t15 17q3 0 9.5 -8.5t6.5 -15.5q-2 -8 -20 -29.5t-41 -41.5q-119 -102 -119 -157zM236 395q-38 0 -82 -77q-12 -21 -21 -49.5t-9 -38.5q0 -5 6 -5q41 0 84.5 43t43.5 86q0 41 -22 41z" />
    <glyph glyph-name="Ecaron" unicode="&#x11a;" horiz-adv-x="544" 
d="M378 803q101 61 116 61q10 0 5 -20q-25 -16 -75 -62q-30 -27 -48 -45q-9 -9 -13 -9t-9 9q-8 16 -30 46q-16 22 -33.5 41t-17.5 20q7 20 13 20q8 0 40.5 -22t51.5 -39zM240 658q46 -1 149.5 2.5t148.5 3.5q-2 -22 -2 -65q0 -13 0.5 -38.5t0.5 -38.5q-5 -5 -20 -5
q-12 0 -12 7q-12 89 -105 89h-45q-65 0 -69 -13q-16 -45 -20 -72l-30 -165q0 -2 2.5 -3.5t8.5 -2t12.5 -1t14.5 -0.5h62q45 0 56.5 9t32.5 57q3 8 15 8q13 0 17 -6l-36 -190q-4 -4 -18 -4q-12 0 -13 8q-2 47 -14 59q-10 9 -86 9q-66 0 -68 -8l-29 -152q-9 -43 -9 -72
q0 -17 8.5 -21t51.5 -4h35q73 0 115 21q16 8 40 34.5t42 61.5q3 6 14 6q20 0 24 -6q-74 -143 -83 -169q-53 0 -165 2.5t-151 2.5l-121 -5q-2 2 -2 9q0 21 7 21q10 0 34.5 8.5t28.5 16.5q14 30 24 86l74 380q12 61 10 85q-1 8 -22.5 18.5t-31.5 10.5q-1 0 -1 4q0 20 6 26
q57 -4 119 -4z" />
    <glyph glyph-name="ecaron" unicode="&#x11b;" horiz-adv-x="356" 
d="M256 591q25 20 63 45t45 25q8 0 3 -23q-1 -1 -8 -7.5t-15 -14t-21.5 -21.5t-27.5 -29q-10 -11 -24 -29t-20 -25q-7 -9 -11 -9q-6 0 -9 9q-11 29 -25 55q-12 23 -42 71q6 23 13 23t35 -25t44 -45zM268 442q48 0 77.5 -24.5t29.5 -59.5q0 -47 -47.5 -90t-101.5 -65t-86 -22
q-4 0 -4 -23q0 -96 64 -96q22 0 46 14t34.5 24.5l17.5 17.5q2 0 9 -9.5t7 -13.5q-13 -26 -60.5 -63.5t-91.5 -37.5q-62 0 -94 41.5t-32 116.5q0 67 33.5 134.5t88 111.5t110.5 44zM258 394q-36 0 -74.5 -60.5t-38.5 -105.5q0 -4 4 -4q41 0 87 45.5t46 90.5q0 15 -6 24.5
t-18 9.5z" />
    <glyph glyph-name="Gcircumflex" unicode="&#x11c;" horiz-adv-x="645" 
d="M514 728q-19 0 -106 60q-30 -18 -76 -39t-55 -21q-12 0 -6 19q1 1 29 20.5t55 40.5q33 25 55 47q11 9 14 9q8 0 13 -9q2 -4 13 -20t19 -26q14 -17 28.5 -31.5t22.5 -22t9 -8.5q-5 -19 -15 -19zM406 667q85 0 210 -37q-3 -22 -6.5 -57.5t-6 -60t-3.5 -29.5q-2 -9 -20 -9
q-14 0 -20 6q0 14 -2.5 28t-12.5 35.5t-26 36.5t-47 26.5t-72 11.5q-52 0 -96.5 -28t-73 -70t-49 -92.5t-29.5 -93.5t-9 -74q0 -91 44.5 -154.5t127.5 -63.5q68 0 99 23q8 6 10 19q16 82 22 119q4 24 4 41q0 12 -28 19.5t-41 7.5q-2 0 -2 6q0 17 7 24q115 -5 132 -5
q20 0 115 5q0 -30 -7 -30q-27 0 -56 -17q-14 -9 -17 -24q-6 -34 -14 -84q-5 -32 -5 -44v-27q0 -19 -28 -31q-40 -18 -59 -25t-70.5 -17t-111.5 -10q-105 0 -172 80.5t-67 193.5q0 99 52.5 192t141.5 151t186 58z" />
    <glyph glyph-name="gcircumflex" unicode="&#x11d;" horiz-adv-x="449" 
d="M353 504q-7 0 -37 23.5t-50 42.5q-25 -19 -64.5 -42.5t-46.5 -23.5q-4 0 -5.5 8t0.5 13q2 2 11.5 10t25 22.5t32.5 31.5q32 32 50 55q10 10 14 10q3 0 8 -10q17 -33 26 -48q11 -18 23 -35t18.5 -25.5t7.5 -10.5q-5 -21 -13 -21zM308 -108q0 49 -141 82q-17 -7 -28 -12
t-26 -14.5t-23 -23t-8 -28.5q0 -76 114 -76q53 0 82.5 21t29.5 51zM264 393q-27 0 -47 -26.5t-29.5 -62.5t-9.5 -72q0 -32 13 -51.5t37 -19.5q27 0 47 26.5t29 60t9 64.5q0 34 -13 57.5t-36 23.5zM283 442q27 0 63 -13t71 -13h48q7 0 7 -11q1 -21 -10 -35h-53q-6 0 -6 -6
q0 -1 1 -9t2.5 -19.5t1.5 -23.5q0 -35 -10 -64.5t-26 -50t-29.5 -32t-27.5 -21.5q-16 -9 -49.5 -23.5t-54.5 -26t-21 -22.5q0 -7 21 -14t51.5 -15t60.5 -20t51 -34t21 -52q0 -65 -62 -114t-177 -49q-70 0 -115.5 28.5t-45.5 72.5q0 68 130 115q-10 2 -25 13q-25 18 -25 40
q0 17 35 40t73 36q-41 7 -70 41t-29 79q0 82 60 142.5t139 60.5z" />
    <glyph glyph-name="Gbreve" unicode="&#x11e;" horiz-adv-x="645" 
d="M407 782q25 0 50 15t38 37q0 2 6 2q5 -1 10 -8.5t4 -11.5q0 -1 -1 -3.5t-1 -3.5q-20 -35 -52 -58t-64 -23q-33 0 -56 22.5t-29 58.5q0 1 -0.5 3.5t-0.5 3.5q0 4 9.5 11.5t14.5 8.5q3 0 3 -2q5 -22 24.5 -37t44.5 -15zM406 667q85 0 210 -37q-3 -22 -6.5 -57.5t-6 -60
t-3.5 -29.5q-2 -9 -20 -9q-14 0 -20 6q0 14 -2.5 28t-12.5 35.5t-26 36.5t-47 26.5t-72 11.5q-52 0 -96.5 -28t-73 -70t-49 -92.5t-29.5 -93.5t-9 -74q0 -91 44.5 -154.5t127.5 -63.5q68 0 99 23q8 6 10 19q16 82 22 119q4 24 4 41q0 12 -28 19.5t-41 7.5q-2 0 -2 6
q0 17 7 24q115 -5 132 -5q20 0 115 5q0 -30 -7 -30q-27 0 -56 -17q-14 -9 -17 -24q-6 -34 -14 -84q-5 -32 -5 -44v-27q0 -19 -28 -31q-40 -18 -59 -25t-70.5 -17t-111.5 -10q-105 0 -172 80.5t-67 193.5q0 99 52.5 192t141.5 151t186 58z" />
    <glyph glyph-name="gbreve" unicode="&#x11f;" horiz-adv-x="449" 
d="M295 556q26 0 50.5 17.5t37.5 47.5q0 4 4 4q5 0 12.5 -7t6.5 -11q0 -1 -1.5 -4t-1.5 -4q-17 -41 -50 -68.5t-69 -27.5q-37 0 -61 27.5t-24 69.5v7q1 4 11 11t15 7q4 0 4 -4q1 -29 20.5 -47t45.5 -18zM308 -108q0 49 -141 82q-17 -7 -28 -12t-26 -14.5t-23 -23t-8 -28.5
q0 -76 114 -76q53 0 82.5 21t29.5 51zM264 393q-27 0 -47 -26.5t-29.5 -62.5t-9.5 -72q0 -32 13 -51.5t37 -19.5q27 0 47 26.5t29 60t9 64.5q0 34 -13 57.5t-36 23.5zM283 442q27 0 63 -13t71 -13h48q7 0 7 -11q1 -21 -10 -35h-53q-6 0 -6 -6q0 -1 1 -9t2.5 -19.5t1.5 -23.5
q0 -35 -10 -64.5t-26 -50t-29.5 -32t-27.5 -21.5q-16 -9 -49.5 -23.5t-54.5 -26t-21 -22.5q0 -7 21 -14t51.5 -15t60.5 -20t51 -34t21 -52q0 -65 -62 -114t-177 -49q-70 0 -115.5 28.5t-45.5 72.5q0 68 130 115q-10 2 -25 13q-25 18 -25 40q0 17 35 40t73 36q-41 7 -70 41
t-29 79q0 82 60 142.5t139 60.5z" />
    <glyph glyph-name="Gdotaccent" unicode="&#x120;" horiz-adv-x="645" 
d="M339 790q4 25 25 43.5t45 18.5t37.5 -18t8.5 -44q-4 -25 -25 -43.5t-45 -18.5t-37.5 18t-8.5 44zM406 667q85 0 210 -37q-3 -22 -6.5 -57.5t-6 -60t-3.5 -29.5q-2 -9 -20 -9q-14 0 -20 6q0 14 -2.5 28t-12.5 35.5t-26 36.5t-47 26.5t-72 11.5q-52 0 -96.5 -28t-73 -70
t-49 -92.5t-29.5 -93.5t-9 -74q0 -91 44.5 -154.5t127.5 -63.5q68 0 99 23q8 6 10 19q16 82 22 119q4 24 4 41q0 12 -28 19.5t-41 7.5q-2 0 -2 6q0 17 7 24q115 -5 132 -5q20 0 115 5q0 -30 -7 -30q-27 0 -56 -17q-14 -9 -17 -24q-6 -34 -14 -84q-5 -32 -5 -44v-27
q0 -19 -28 -31q-40 -18 -59 -25t-70.5 -17t-111.5 -10q-105 0 -172 80.5t-67 193.5q0 99 52.5 192t141.5 151t186 58z" />
    <glyph glyph-name="gdotaccent" unicode="&#x121;" horiz-adv-x="449" 
d="M224 593q5 26 25 44.5t44 18.5t38 -18.5t9 -44.5q-4 -25 -25 -43.5t-45 -18.5t-37.5 18t-8.5 44zM308 -108q0 49 -141 82q-17 -7 -28 -12t-26 -14.5t-23 -23t-8 -28.5q0 -76 114 -76q53 0 82.5 21t29.5 51zM264 393q-27 0 -47 -26.5t-29.5 -62.5t-9.5 -72q0 -32 13 -51.5
t37 -19.5q27 0 47 26.5t29 60t9 64.5q0 34 -13 57.5t-36 23.5zM283 442q27 0 63 -13t71 -13h48q7 0 7 -11q1 -21 -10 -35h-53q-6 0 -6 -6q0 -1 1 -9t2.5 -19.5t1.5 -23.5q0 -35 -10 -64.5t-26 -50t-29.5 -32t-27.5 -21.5q-16 -9 -49.5 -23.5t-54.5 -26t-21 -22.5
q0 -7 21 -14t51.5 -15t60.5 -20t51 -34t21 -52q0 -65 -62 -114t-177 -49q-70 0 -115.5 28.5t-45.5 72.5q0 68 130 115q-10 2 -25 13q-25 18 -25 40q0 17 35 40t73 36q-41 7 -70 41t-29 79q0 82 60 142.5t139 60.5z" />
    <glyph glyph-name="Gcommaaccent" unicode="&#x122;" horiz-adv-x="645" 
d="M239 -102q0 23 29 36t63 13q12 -14 12 -45q0 -38 -33.5 -76t-69.5 -53h-2q-3 -1 -4 -1q-6 0 -12.5 4t-6.5 7q0 1 13 10.5t26 24t13 28.5q0 17 -14 28t-14 24zM406 667q85 0 210 -37q-3 -22 -6.5 -57.5t-6 -60t-3.5 -29.5q-2 -9 -20 -9q-14 0 -20 6q0 14 -2.5 28
t-12.5 35.5t-26 36.5t-47 26.5t-72 11.5q-52 0 -96.5 -28t-73 -70t-49 -92.5t-29.5 -93.5t-9 -74q0 -91 44.5 -154.5t127.5 -63.5q68 0 99 23q8 6 10 19q16 82 22 119q4 24 4 41q0 12 -28 19.5t-41 7.5q-2 0 -2 6q0 17 7 24q115 -5 132 -5q20 0 115 5q0 -30 -7 -30
q-27 0 -56 -17q-14 -9 -17 -24q-6 -34 -14 -84q-5 -32 -5 -44v-27q0 -19 -28 -31q-40 -18 -59 -25t-70.5 -17t-111.5 -10q-105 0 -172 80.5t-67 193.5q0 99 52.5 192t141.5 151t186 58z" />
    <glyph glyph-name="gcommaaccent" unicode="&#x123;" horiz-adv-x="449" 
d="M348 558q0 -23 -29 -36t-63 -13q-12 14 -12 45q0 38 33.5 76t69.5 53l2 1h4q6 0 12.5 -4t6.5 -7q0 -1 -13 -10.5t-26 -24t-13 -28.5q0 -16 14 -27t14 -25zM308 -108q0 49 -141 82q-17 -7 -28 -12t-26 -14.5t-23 -23t-8 -28.5q0 -76 114 -76q53 0 82.5 21t29.5 51z
M264 393q-27 0 -47 -26.5t-29.5 -62.5t-9.5 -72q0 -32 13 -51.5t37 -19.5q27 0 47 26.5t29 60t9 64.5q0 34 -13 57.5t-36 23.5zM283 442q27 0 63 -13t71 -13h48q7 0 7 -11q1 -21 -10 -35h-53q-6 0 -6 -6q0 -1 1 -9t2.5 -19.5t1.5 -23.5q0 -35 -10 -64.5t-26 -50t-29.5 -32
t-27.5 -21.5q-16 -9 -49.5 -23.5t-54.5 -26t-21 -22.5q0 -7 21 -14t51.5 -15t60.5 -20t51 -34t21 -52q0 -65 -62 -114t-177 -49q-70 0 -115.5 28.5t-45.5 72.5q0 68 130 115q-10 2 -25 13q-25 18 -25 40q0 17 35 40t73 36q-41 7 -70 41t-29 79q0 82 60 142.5t139 60.5z" />
    <glyph glyph-name="Hcircumflex" unicode="&#x124;" horiz-adv-x="709" 
d="M544 728q-19 0 -106 60q-30 -18 -76 -39t-55 -21q-12 0 -6 19q1 1 29 20.5t55 40.5q33 25 55 47q11 9 14 9q8 0 13 -9q2 -4 13 -20t19 -26q14 -17 28.5 -31.5t22.5 -22t9 -8.5q-5 -19 -15 -19zM368 368q121 0 122 6l28 146q10 52 10 84q0 14 -19 21t-33 7q-2 0 -2 5
q0 17 8 25q105 -5 120 -5q19 0 114 5v-5q0 -25 -6 -25q-8 0 -32.5 -8.5t-28.5 -15.5q-13 -29 -25 -89l-74 -380q-12 -57 -12 -85q0 -11 21.5 -19t30.5 -8q2 0 2 -5q0 -13 -7 -25q-111 6 -115 6q-25 0 -67 -3t-51 -3q-2 2 -2 7q0 23 6 23q11 0 34 7t28 16q16 32 26 88l32 168
l1 1q0 7 -124 7q-80 0 -104.5 -1.5t-25.5 -8.5l-32 -165q-11 -61 -11 -85q0 -11 21.5 -19t30.5 -8q2 0 2 -5q0 -13 -7 -25q-111 6 -115 6q-25 0 -67 -3t-51 -3q-2 2 -2 7q0 23 6 23q12 0 34.5 6.5t27.5 15.5q16 31 26 89l74 382q10 52 10 82q0 13 -20 21.5t-32 8.5
q-2 0 -2 4q0 19 7 26q105 -5 115 -5q24 0 119 5v-4q0 -26 -7 -26q-8 0 -32.5 -8.5t-28.5 -15.5q-16 -35 -25 -89l-27 -143v-1q0 -7 131 -7z" />
    <glyph glyph-name="hcircumflex" unicode="&#x125;" horiz-adv-x="465" 
d="M300 728q-19 0 -106 60q-30 -18 -76 -39t-55 -21q-12 0 -6 19q1 1 29 20.5t55 40.5q33 25 55 47q11 9 14 9q8 0 13 -9q2 -4 13 -20t19 -26q14 -17 28.5 -31.5t22.5 -22t9 -8.5q-5 -19 -15 -19zM349 442q68 0 68 -88q0 -36 -15 -108l-26 -129q-3 -9 -3 -24q0 -25 10 -25
t27 13.5t27.5 24.5t14.5 16q3 0 9.5 -9.5t6.5 -13.5q-11 -24 -62 -65t-88 -41q-18 0 -30.5 14.5t-12.5 40.5q0 20 9 63l28 142q9 46 9 56q0 42 -24 42q-18 0 -50.5 -40.5t-63.5 -102.5t-41 -116l-20 -92q-16 -5 -43 -5t-47 5q111 577 111 581q3 25 -20 37q0 3 -2.5 5t-7 3.5
t-8 2.5t-8 2t-6.5 1q-1 7 3 14q14 4 44 14t43 16q11 0 28 1.5t23.5 2t16.5 -0.5q1 -4 0 -14t-3.5 -24t-2.5 -16t-8 -43t-16 -85t-9 -49q7 14 -1 -22q-4 -22 -18 -79q-6 -27 -7 -30q10 21 -1 -19q-8 -28 -8 -27q22 45 79 108t95 63z" />
    <glyph glyph-name="Hbar" unicode="&#x126;" horiz-adv-x="709" 
d="M382 467q-25 0 -72.5 -0.5t-55.5 -0.5l-21 -110v-2q0 -5 127 -5q126 0 127 5l21 112q-7 0 -54.5 0.5t-71.5 0.5zM238 654q6 0 120 6v-4q0 -7 -2.5 -16.5t-5.5 -9.5q-8 0 -32 -8t-28 -15q-13 -26 -26 -91q1 0 23 -0.5t52 -1t51 -0.5q25 0 73 1t54 1q11 59 11 89
q-1 12 -19.5 18.5t-32.5 6.5q-3 0 -3 6q0 17 7 24q15 -1 39 -2.5t44 -2.5t39 -1l114 6v-10q0 -20 -8 -20t-32 -8t-28 -15q-10 -19 -24 -91l49 1h2.5t3.5 -1.5t1 -5.5q-7 -29 -19 -41l-11 -4l-36 1l-64 -328q-10 -57 -10 -86q0 -9 21.5 -17.5t30.5 -8.5q1 0 1 -8
q0 -13 -7 -22q-111 6 -114 6q-25 0 -68.5 -3t-51.5 -3q-2 2 -2 6q0 24 6 24q11 0 35 7.5t29 15.5q9 18 24 85l30 155v3q0 4 -124 4q-127 0 -129 -7l-29 -151q-10 -57 -10 -86q0 -9 21.5 -17.5t30.5 -8.5q1 0 1 -4q0 -16 -6 -26q-111 6 -117 6q-25 0 -68.5 -3t-51.5 -3v11
q0 19 6 19q11 0 34 7t28 15q11 21 25 86l65 332l-50 -1h-2t-3 1.5t-1 5.5q7 29 18 40l11 5q31 -1 35 -1q12 64 12 87q-1 12 -21.5 19.5t-32.5 7.5v8q0 16 6 22q8 0 49.5 -3t66.5 -3z" />
    <glyph glyph-name="hbar" unicode="&#x127;" horiz-adv-x="472" 
d="M329 442q34 0 50 -24.5t16 -62.5q0 -32 -14 -97l-26 -141q-1 -3 -1 -17q0 -34 21 -34q11 0 35 33l23 33q3 0 10.5 -9t9.5 -17q-13 -33 -49 -73.5t-79 -40.5q-29 0 -47 21t-18 64q0 27 19.5 116t19.5 114q0 44 -24 44q-29 0 -81 -88.5t-73 -186.5l-16 -76q-17 -5 -42 -5
q-33 0 -48 5q97 503 97 504q0 5 -4 5h-50l-2 -1q-1 0 -2.5 2.5t-0.5 7.5q9 34 12 42l6 5h49q3 0 5 6q1 6 2.5 14t2.5 13.5t1 7.5q0 22 -49 22q-5 0 -5 6q0 7 3.5 14.5t6.5 7.5q27 0 79 14.5t71 23.5h5q7 0 7 -16q-19 -40 -29 -88q0 -2 -1 -9.5t-2 -9.5q0 -6 3 -6h100
q5 0 5 -4v-3q-1 -2 -1.5 -10t-2.5 -17.5t-6 -16.5q-1 -3 -3 -4t-4 -1h-1h-99q-4 0 -5 -5q-44 -227 -44 -228l1 -1l1 1q8 15 22.5 37.5t38.5 54t53 53t54 21.5z" />
    <glyph glyph-name="Itilde" unicode="&#x128;" horiz-adv-x="350" 
d="M83 738q-8 0 -3 19q5 21 24 44q43 46 86 46q33 0 79 -30.5t79 -30.5q17 0 44.5 25.5t29.5 25.5q7 0 3 -20q-2 -17 -25 -44q-39 -45 -84 -45q-34 0 -79 30.5t-79 30.5q-16 0 -44 -25.5t-31 -25.5zM264 519l-73 -380q-11 -61 -11 -85q0 -11 21.5 -19t30.5 -8q2 0 2 -5
q0 -13 -7 -25q-111 6 -115 6q-25 0 -67 -3t-51 -3q-2 2 -2 7q0 23 6 23q12 0 34.5 6.5t27.5 15.5q16 31 26 89l74 382q10 52 10 82q0 13 -20 21.5t-32 8.5q-2 0 -2 4q0 19 7 26q105 -5 115 -5q24 0 119 5v-4q0 -26 -7 -26q-8 0 -32.5 -8.5t-28.5 -15.5q-10 -22 -25 -89z" />
    <glyph glyph-name="itilde" unicode="&#x129;" horiz-adv-x="279" 
d="M114 600q28 0 66.5 -28.5t66.5 -28.5q14 0 38 23l24 23q6 0 6 -12q0 -19 -31 -53.5t-64 -34.5q-29 0 -67.5 28t-67.5 28q-13 0 -37 -24t-26 -24q-5 0 -5 13q0 25 32 57.5t65 32.5zM144 442q29 0 47.5 -20.5t18.5 -63.5q0 -26 -43 -241q-1 -4 -1 -17q0 -34 20 -34
q11 0 34 33l24 33q3 0 11 -9t10 -17q-13 -33 -49 -73.5t-79 -40.5q-31 0 -48 22t-17 63q0 24 5 49l36 184q3 15 3 22q0 36 -24 36q-10 0 -33 -33l-23 -33q-3 0 -10.5 9t-9.5 17q13 33 49 73.5t79 40.5z" />
    <glyph glyph-name="Imacron" unicode="&#x12a;" horiz-adv-x="350" 
d="M115 739q0 9 8.5 28.5t14.5 19.5h250q6 0 4 -8q-3 -12 -6.5 -21t-8 -16.5t-5.5 -9.5h-250q-7 0 -7 7zM264 519l-73 -380q-11 -61 -11 -85q0 -11 21.5 -19t30.5 -8q2 0 2 -5q0 -13 -7 -25q-111 6 -115 6q-25 0 -67 -3t-51 -3q-2 2 -2 7q0 23 6 23q12 0 34.5 6.5t27.5 15.5
q16 31 26 89l74 382q10 52 10 82q0 13 -20 21.5t-32 8.5q-2 0 -2 4q0 19 7 26q105 -5 115 -5q24 0 119 5v-4q0 -26 -7 -26q-8 0 -32.5 -8.5t-28.5 -15.5q-10 -22 -25 -89z" />
    <glyph glyph-name="imacron" unicode="&#x12b;" horiz-adv-x="279" 
d="M46 513q12 48 22 48h212q7 0 4 -9q-5 -19 -15 -41l-8 -8h-212h-1.5t-1.5 2.5t0 7.5zM144 442q29 0 47.5 -20.5t18.5 -63.5q0 -26 -43 -241q-1 -4 -1 -17q0 -34 20 -34q11 0 34 33l24 33q3 0 11 -9t10 -17q-13 -33 -49 -73.5t-79 -40.5q-31 0 -48 22t-17 63q0 24 5 49
l36 184q3 15 3 22q0 36 -24 36q-10 0 -33 -33l-23 -33q-3 0 -10.5 9t-9.5 17q13 33 49 73.5t79 40.5z" />
    <glyph glyph-name="Ibreve" unicode="&#x12c;" horiz-adv-x="350" 
d="M252 782q25 0 50 15t38 37q0 2 6 2q5 -1 10 -8.5t4 -11.5q0 -1 -1 -3.5t-1 -3.5q-20 -35 -52 -58t-64 -23q-33 0 -56 22.5t-29 58.5q0 1 -0.5 3.5t-0.5 3.5q0 4 9.5 11.5t14.5 8.5q3 0 3 -2q5 -22 24.5 -37t44.5 -15zM264 519l-73 -380q-11 -61 -11 -85q0 -11 21.5 -19
t30.5 -8q2 0 2 -5q0 -13 -7 -25q-111 6 -115 6q-25 0 -67 -3t-51 -3q-2 2 -2 7q0 23 6 23q12 0 34.5 6.5t27.5 15.5q16 31 26 89l74 382q10 52 10 82q0 13 -20 21.5t-32 8.5q-2 0 -2 4q0 19 7 26q105 -5 115 -5q24 0 119 5v-4q0 -26 -7 -26q-8 0 -32.5 -8.5t-28.5 -15.5
q-10 -22 -25 -89z" />
    <glyph glyph-name="ibreve" unicode="&#x12d;" horiz-adv-x="279" 
d="M166 555q26 0 50.5 17.5t37.5 47.5q0 4 4 4q5 0 12.5 -7t6.5 -11q0 -1 -1.5 -4t-1.5 -4q-17 -41 -50 -68.5t-69 -27.5q-37 0 -61 27.5t-24 69.5v7q1 4 11 11t15 7q4 0 4 -4q1 -29 20.5 -47t45.5 -18zM144 442q29 0 47.5 -20.5t18.5 -63.5q0 -26 -43 -241q-1 -4 -1 -17
q0 -34 20 -34q11 0 34 33l24 33q3 0 11 -9t10 -17q-13 -33 -49 -73.5t-79 -40.5q-31 0 -48 22t-17 63q0 24 5 49l36 184q3 15 3 22q0 36 -24 36q-10 0 -33 -33l-23 -33q-3 0 -10.5 9t-9.5 17q13 33 49 73.5t79 40.5z" />
    <glyph glyph-name="Iogonek" unicode="&#x12e;" horiz-adv-x="356" 
d="M269 517l-72 -378q-10 -55 -10 -85q0 -11 21.5 -19.5t29.5 -8.5q2 0 2 -4q0 -14 -7 -26q-30 0 -46 -2q-45 -8 -88 -49.5t-43 -74.5q0 -27 29 -27q21 0 39.5 8t29 16t11.5 8q5 -1 1.5 -15t-6.5 -17q-23 -26 -54.5 -46t-60.5 -20q-23 0 -38.5 15.5t-15.5 39.5
q0 42 42.5 98.5t80.5 71.5q-19 0 -38 -1t-40.5 -2.5t-35.5 -2.5q-1 1 -1 8q0 22 6 22q11 0 34 7t28 16q14 28 25 89l73 380q10 52 10 82q0 13 -20 21.5t-32 8.5q-2 0 -2 4q0 18 8 26q9 0 49 -3t65 -3q6 0 120 6v-4q0 -7 -2.5 -16.5t-5.5 -9.5q-8 0 -32 -8.5t-28 -15.5
q-12 -27 -26 -89z" />
    <glyph glyph-name="iogonek" unicode="&#x12f;" horiz-adv-x="286" 
d="M100 -128q0 -29 30 -29q21 0 39.5 8t29 16t11.5 8q5 -1 1 -15t-7 -17q-23 -26 -54.5 -46t-60.5 -20q-23 0 -38.5 16t-15.5 39q0 34 26.5 80t59.5 83q-50 10 -50 82q0 19 6 49l35 184q3 15 3 22q0 36 -24 36q-10 0 -33 -33l-22 -33q-3 0 -11 9t-10 17q13 33 49 73.5
t79 40.5q29 0 47.5 -20.5t18.5 -63.5q0 -17 -9 -68.5t-20.5 -107t-12.5 -64.5q-2 -12 -2 -18q0 -33 21 -33q11 0 34 33l24 32q3 0 10.5 -9t9.5 -17q-5 -15 -24 -41.5t-41 -46.5q-47 -43 -73 -77.5t-26 -68.5zM205 655q21 0 33.5 -14.5t12.5 -36.5q0 -29 -19.5 -51t-46.5 -22
q-20 0 -33 15.5t-13 37.5q0 28 19.5 49.5t46.5 21.5z" />
    <glyph glyph-name="Idotaccent" unicode="&#x130;" horiz-adv-x="350" 
d="M198 790q4 25 25 43.5t45 18.5t37.5 -18t8.5 -44q-4 -25 -25 -43.5t-45 -18.5t-37.5 18t-8.5 44zM264 519l-73 -380q-11 -61 -11 -85q0 -11 21.5 -19t30.5 -8q2 0 2 -5q0 -13 -7 -25q-111 6 -115 6q-25 0 -67 -3t-51 -3q-2 2 -2 7q0 23 6 23q12 0 34.5 6.5t27.5 15.5
q16 31 26 89l74 382q10 52 10 82q0 13 -20 21.5t-32 8.5q-2 0 -2 4q0 19 7 26q105 -5 115 -5q24 0 119 5v-4q0 -26 -7 -26q-8 0 -32.5 -8.5t-28.5 -15.5q-10 -22 -25 -89z" />
    <glyph glyph-name="dotlessi" unicode="&#x131;" horiz-adv-x="279" 
d="M144 442q29 0 47.5 -20.5t18.5 -63.5q0 -26 -43 -241q-1 -4 -1 -17q0 -34 20 -34q11 0 34 33l24 33q3 0 11 -9t10 -17q-13 -33 -49 -73.5t-79 -40.5q-31 0 -48 22t-17 63q0 24 5 49l36 184q3 15 3 22q0 36 -24 36q-10 0 -33 -33l-23 -33q-3 0 -10.5 9t-9.5 17
q13 33 49 73.5t79 40.5z" />
    <glyph glyph-name="IJ" unicode="&#x132;" horiz-adv-x="638" 
d="M364 94l82 426q10 52 10 82q0 13 -20 21.5t-32 8.5q-2 0 -2 4q0 18 8 26q105 -5 114 -5q25 0 120 5v-4q0 -7 -2.5 -16.5t-5.5 -9.5q-8 0 -32 -8.5t-28 -15.5q-12 -27 -26 -89l-78 -407q-12 -65 -39.5 -120.5t-56.5 -90.5t-65 -64t-59.5 -41.5t-44.5 -21.5q-13 5 -13 20
q0 12 2 16q133 102 168 284zM263 519l-73 -380q-11 -61 -11 -85q0 -11 21.5 -19t30.5 -8q2 0 2 -5q0 -13 -7 -25q-111 6 -115 6q-25 0 -67 -3t-51 -3q-2 2 -2 7q0 23 6 23q12 0 34.5 6.5t27.5 15.5q16 31 26 89l74 382q10 52 10 82q0 13 -20 21.5t-32 8.5q-2 0 -2 4
q0 19 7 26q105 -5 115 -5q24 0 119 5v-4q0 -26 -7 -26q-8 0 -32.5 -8.5t-28.5 -15.5q-10 -22 -25 -89z" />
    <glyph glyph-name="ij" unicode="&#x133;" horiz-adv-x="533" 
d="M452 442q19 0 31 -14.5t12 -39.5q0 -24 -8 -64l-47 -242q-24 -125 -76 -195q-28 -38 -74.5 -70.5t-76.5 -42.5q-3 1 -7 11.5t-4 16.5q59 44 91 102.5t51 156.5l50 249q3 22 3 32q0 24 -10 24q-12 0 -33 -19t-31 -31q-2 0 -9 10t-7 14q11 23 61 62.5t84 39.5zM488 668
q21 0 34.5 -15.5t13.5 -36.5q0 -29 -20 -50.5t-46 -21.5q-21 0 -33.5 15t-12.5 37q0 29 19 50.5t45 21.5zM190 442q18 0 30.5 -14.5t12.5 -39.5t-8 -64l-41 -207q-2 -9 -2 -24q0 -25 10 -25t27 13.5t27.5 24.5t15.5 16q2 0 9 -9.5t7 -13.5q-12 -24 -63 -65t-87 -41
q-19 0 -31.5 14.5t-12.5 40.5q0 22 8 63l39 199q4 21 4 32q0 24 -10 24q-12 0 -33 -19t-31 -31q-2 0 -9 10t-7 14q11 23 60.5 62.5t84.5 39.5zM220 666q20 0 33.5 -14.5t13.5 -35.5q0 -29 -19.5 -51t-46.5 -22q-20 0 -33 15.5t-13 37.5q0 28 19 49t46 21z" />
    <glyph glyph-name="Jcircumflex" unicode="&#x134;" horiz-adv-x="431" 
d="M436 728q-19 0 -106 60q-30 -18 -76 -39t-55 -21q-12 0 -6 19q1 1 29 20.5t55 40.5q33 25 55 47q11 9 14 9q8 0 13 -9q2 -4 13 -20t19 -26q14 -17 28.5 -31.5t22.5 -22t9 -8.5q-5 -19 -15 -19zM158 94l82 426q10 52 10 82q0 13 -20 21.5t-32 8.5q-2 0 -2 4q0 18 8 26
q105 -5 114 -5q25 0 120 5v-4q0 -7 -2.5 -16.5t-5.5 -9.5q-8 0 -32 -8.5t-28 -15.5q-12 -27 -26 -89l-78 -407q-12 -65 -39.5 -120.5t-56.5 -90.5t-65 -64t-59.5 -41.5t-44.5 -21.5q-13 5 -13 20q0 12 2 16q133 102 168 284z" />
    <glyph glyph-name="jcircumflex" unicode="&#x135;" horiz-adv-x="302" 
d="M310 504q-7 0 -37 23.5t-50 42.5q-25 -19 -64.5 -42.5t-46.5 -23.5q-4 0 -5.5 8t0.5 13q2 2 11.5 10t25 22.5t32.5 31.5q32 32 50 55q10 10 14 10q3 0 8 -10q17 -33 26 -48q11 -18 23 -35t18.5 -25.5t7.5 -10.5q-5 -21 -13 -21zM212 442q29 0 47.5 -20.5t18.5 -63.5
q0 -26 -50 -276q-25 -125 -76 -195q-28 -38 -75 -70.5t-76 -42.5q-12 9 -12 22q0 4 6 10q61 50 89 103t48 152l49 249q3 15 3 22q0 36 -24 36q-10 0 -33 -33l-23 -33q-3 0 -10.5 9t-9.5 17q13 33 49 73.5t79 40.5z" />
    <glyph glyph-name="Kcommaaccent" unicode="&#x136;" horiz-adv-x="691" 
d="M218 -102q0 23 29 36t63 13q12 -14 12 -45q0 -38 -33.5 -76t-69.5 -53h-2q-3 -1 -4 -1q-6 0 -12.5 4t-6.5 7q0 1 13 10.5t26 24t13 28.5q0 17 -14 28t-14 24zM264 519l-73 -380q-11 -61 -11 -85q0 -11 21.5 -19t30.5 -8q2 0 2 -5q0 -13 -7 -25q-111 6 -114 6
q-25 0 -67.5 -3t-51.5 -3q-2 2 -2 7q0 23 6 23q12 0 34.5 6.5t27.5 15.5q16 31 26 89l74 382q10 52 10 82q0 13 -20 21.5t-32 8.5q-2 0 -2 4q0 19 7 26q105 -5 115 -5q24 0 119 5v-4q0 -26 -7 -26q-8 0 -32.5 -8.5t-28.5 -15.5q-10 -22 -25 -89zM228 330q80 51 274 254
q21 21 21 32q0 16 -49 16q-5 0 -5 11t5 19q68 -4 113 -4q35 0 111 4q0 -30 -8 -30q-75 -8 -108 -42l-230 -235q-7 -7 -7 -16q0 -5 5 -13l179 -234q24 -33 56 -48t55 -15q2 0 2 -7q0 -10 -6 -22q-18 -3 -67 -3q-107 0 -149 63z" />
    <glyph glyph-name="kcommaaccent" unicode="&#x137;" horiz-adv-x="475" 
d="M136 -102q0 23 29 36t63 13q12 -14 12 -45q0 -38 -33.5 -76t-69.5 -53h-2q-3 -1 -4 -1q-6 0 -12.5 4t-6.5 7q0 1 13 10.5t26 24t13 28.5q0 17 -14 28t-14 24zM352 442q38 0 67.5 -22.5t29.5 -57.5q0 -63 -56.5 -106.5t-128.5 -53.5q42 -71 71.5 -106t49.5 -35
q18 0 38.5 17.5t28.5 30.5q3 0 12 -9t9 -12q-8 -23 -46 -57.5t-77 -34.5q-13 0 -25.5 4t-25 13.5t-23 19t-22.5 25.5t-20 26.5t-19 29.5t-16.5 28t-16 28t-12.5 24l-38 -194q-17 -6 -44 -6q-20 0 -46 6l106 552q10 44 10 56q0 20 -56 20q-2 0 -2 7q0 13 8 21q31 2 76.5 13.5
t69.5 20.5q7 -4 7 -20q0 -3 -15 -82l-48 -254q6 10 16.5 24t30.5 35t48.5 35t58.5 14zM312 382q-24 0 -55.5 -30t-52 -63.5t-20.5 -46.5q0 -6 18 -6q5 0 20.5 2.5t40 8.5t44.5 21t25 36q11 16 4.5 47t-24.5 31z" />
    <glyph glyph-name="kgreenlandic" unicode="&#x138;" horiz-adv-x="485" 
d="M183 331l5 8q64 103 142 103q41 0 71.5 -24t30.5 -62q0 -64 -52.5 -102.5t-126.5 -49.5q46 -75 74 -109t50 -34q9 0 18 6.5t14 13t11.5 17t7.5 11.5t7 1t12 -4t8 -9q-10 -31 -39 -65t-74 -34q-54 0 -111 67q-16 19 -35 51.5t-30 55.5l-11 22l-1 1q-1 0 -1 -2l-37 -193
q-18 -6 -44 -6q-24 0 -48 6l58 300q9 45 9 54q0 22 -48 22q-4 0 -4 6t3.5 14t5.5 8q26 0 80 14.5t71 23.5h4q7 0 7 -16q-18 -35 -29 -90q0 -5 2 -5zM295 382q-36 0 -82 -58.5t-46 -81.5q0 -7 18 -7q13 0 49 8.5t60 23.5q40 27 40 66q0 19 -10.5 34t-28.5 15z" />
    <glyph glyph-name="Lacute" unicode="&#x139;" horiz-adv-x="528" 
d="M183 715q-4 0 -8.5 5t-4.5 10q0 6 39 39t66 49q10 5 24 5q26 0 45.5 -8t19.5 -23q0 -18 -80.5 -47.5t-100.5 -29.5zM240 658q42 0 118 4v-4q0 -7 -2.5 -16.5t-5.5 -9.5q-8 0 -32 -8.5t-28 -15.5q-18 -39 -26 -89l-73 -380q-8 -37 -8 -65q0 -17 9 -21t52 -4h35
q73 0 115 21q16 8 40 34.5t42 61.5q3 6 14 6q20 0 24 -6q-74 -143 -83 -169q-53 0 -165 2.5t-151 2.5l-121 -5q-2 2 -2 9q0 21 7 21q10 0 34.5 8.5t28.5 16.5q14 30 24 86l74 380q12 61 10 85q-1 8 -22.5 18.5t-31.5 10.5q-1 0 -1 4q0 20 6 26q73 -4 119 -4z" />
    <glyph glyph-name="lacute" unicode="&#x13a;" horiz-adv-x="238" 
d="M143 715q-4 0 -8.5 5t-4.5 10q0 6 39 39t66 49q10 5 24 5q26 0 45.5 -8t19.5 -23q0 -18 -80.5 -47.5t-100.5 -29.5zM54 111l88 453q6 31 6 44q0 20 -55 20q-3 0 -3 7q0 13 8 21q31 2 77 13.5t70 20.5q8 -4 8 -20q0 -8 -15 -82l-92 -471q-2 -11 -2 -24q0 -25 10 -25
q9 0 26 13.5t27.5 24.5t15.5 16q2 0 9 -9.5t7 -13.5q-11 -24 -62.5 -65t-87.5 -41q-19 0 -31 14.5t-12 40.5q0 22 8 63z" />
    <glyph glyph-name="Lcommaaccent" unicode="&#x13b;" horiz-adv-x="528" 
d="M191 -102q0 23 29 36t63 13q12 -14 12 -45q0 -38 -33.5 -76t-69.5 -53h-2q-3 -1 -4 -1q-6 0 -12.5 4t-6.5 7q0 1 13 10.5t26 24t13 28.5q0 17 -14 28t-14 24zM240 658q42 0 118 4v-4q0 -7 -2.5 -16.5t-5.5 -9.5q-8 0 -32 -8.5t-28 -15.5q-18 -39 -26 -89l-73 -380
q-8 -37 -8 -65q0 -17 9 -21t52 -4h35q73 0 115 21q16 8 40 34.5t42 61.5q3 6 14 6q20 0 24 -6q-74 -143 -83 -169q-53 0 -165 2.5t-151 2.5l-121 -5q-2 2 -2 9q0 21 7 21q10 0 34.5 8.5t28.5 16.5q14 30 24 86l74 380q12 61 10 85q-1 8 -22.5 18.5t-31.5 10.5q-1 0 -1 4
q0 20 6 26q73 -4 119 -4z" />
    <glyph glyph-name="lcommaaccent" unicode="&#x13c;" horiz-adv-x="238" 
d="M21 -102q0 23 29 36t63 13q12 -14 12 -45q0 -38 -33.5 -76t-69.5 -53h-2q-3 -1 -4 -1q-6 0 -12.5 4t-6.5 7q0 1 13 10.5t26 24t13 28.5q0 17 -14 28t-14 24zM54 111l88 453q6 31 6 44q0 20 -55 20q-3 0 -3 7q0 13 8 21q31 2 77 13.5t70 20.5q8 -4 8 -20q0 -8 -15 -82
l-92 -471q-2 -11 -2 -24q0 -25 10 -25q9 0 26 13.5t27.5 24.5t15.5 16q2 0 9 -9.5t7 -13.5q-11 -24 -62.5 -65t-87.5 -41q-19 0 -31 14.5t-12 40.5q0 22 8 63z" />
    <glyph glyph-name="Lcaron" unicode="&#x13d;" horiz-adv-x="528" 
d="M533 630q0 34 24.5 49t58.5 15q4 -8 4 -26q0 -21 -4 -41q-7 -37 -41 -80.5t-62 -59.5h-4q-4 0 -8.5 6t-4.5 11q0 1 12.5 12t25.5 29t13 37q0 7 -7 21.5t-7 26.5zM240 658q42 0 118 4v-4q0 -7 -2.5 -16.5t-5.5 -9.5q-8 0 -32 -8.5t-28 -15.5q-18 -39 -26 -89l-73 -380
q-8 -37 -8 -65q0 -17 9 -21t52 -4h35q73 0 115 21q16 8 40 34.5t42 61.5q3 6 14 6q20 0 24 -6q-74 -143 -83 -169q-53 0 -165 2.5t-151 2.5l-121 -5q-2 2 -2 9q0 21 7 21q10 0 34.5 8.5t28.5 16.5q14 30 24 86l74 380q12 61 10 85q-1 8 -22.5 18.5t-31.5 10.5q-1 0 -1 4
q0 20 6 26q73 -4 119 -4z" />
    <glyph glyph-name="lcaron" unicode="&#x13e;" horiz-adv-x="238" 
d="M304 630q0 34 24.5 49t58.5 15q4 -8 4 -26q0 -21 -4 -41q-7 -37 -41 -80.5t-62 -59.5h-4q-4 0 -8.5 6t-4.5 11q0 1 12.5 12t25.5 29t13 37q0 7 -7 21.5t-7 26.5zM54 111l88 453q6 31 6 44q0 20 -55 20q-3 0 -3 7q0 13 8 21q31 2 77 13.5t70 20.5q8 -4 8 -20q0 -8 -15 -82
l-92 -471q-2 -11 -2 -24q0 -25 10 -25q9 0 26 13.5t27.5 24.5t15.5 16q2 0 9 -9.5t7 -13.5q-11 -24 -62.5 -65t-87.5 -41q-19 0 -31 14.5t-12 40.5q0 22 8 63z" />
    <glyph glyph-name="Ldot" unicode="&#x13f;" horiz-adv-x="528" 
d="M370 332q5 26 25 44.5t44 18.5t38 -18.5t9 -44.5q-4 -25 -25 -43.5t-45 -18.5t-37.5 18t-8.5 44zM240 658q42 0 118 4v-4q0 -7 -2.5 -16.5t-5.5 -9.5q-8 0 -32 -8.5t-28 -15.5q-18 -39 -26 -89l-73 -380q-8 -37 -8 -65q0 -17 9 -21t52 -4h35q73 0 115 21q16 8 40 34.5
t42 61.5q3 6 14 6q20 0 24 -6q-74 -143 -83 -169q-53 0 -165 2.5t-151 2.5l-121 -5q-2 2 -2 9q0 21 7 21q10 0 34.5 8.5t28.5 16.5q14 30 24 86l74 380q12 61 10 85q-1 8 -22.5 18.5t-31.5 10.5q-1 0 -1 4q0 20 6 26q73 -4 119 -4z" />
    <glyph glyph-name="ldot" unicode="&#x140;" horiz-adv-x="378" 
d="M248 305q5 26 25 44.5t44 18.5t38 -18.5t9 -44.5q-4 -25 -25 -43.5t-45 -18.5t-37.5 18t-8.5 44zM50 111l88 453q6 31 6 44q0 20 -55 20q-3 0 -3 7q0 13 8 21q31 2 77 13.5t70 20.5q8 -4 8 -20q0 -8 -15 -82l-92 -471q-2 -11 -2 -24q0 -25 10 -25q9 0 26 13.5t27.5 24.5
t15.5 16q2 0 9 -9.5t7 -13.5q-11 -24 -62.5 -65t-87.5 -41q-19 0 -31 14.5t-12 40.5q0 22 8 63z" />
    <glyph glyph-name="Lslash" unicode="&#x141;" horiz-adv-x="531" 
d="M245 654q7 0 121 6q0 -6 -2 -16q-2 -14 -6 -14q-8 0 -34.5 -8.5t-29.5 -15.5q-18 -40 -26 -87l-32 -173l170 112q5 0 10 -10q8 -19 8 -29q0 -7 -6 -11l-195 -125l-27 -141q-10 -51 -8 -80q1 -13 61 -13h34q73 0 115 21q17 8 41 35t41 61q3 6 14 6q20 0 24 -6
q-74 -143 -83 -169q-50 0 -158 2.5t-159 2.5l-124 -6q-3 3 -1 14q0 17 5 17q11 0 37 8t31 17q10 19 24 91l12 63l-53 -35q-3 0 -8 8t-6 15l-1 6q-2 5 -1.5 9.5t3.5 6.5l79 51l49 255q11 66 9 83q-2 8 -23.5 16.5t-31.5 8.5q-4 0 -2 13q2 12 7 17q15 -1 39 -2.5t44 -2.5
t39 -1z" />
    <glyph glyph-name="lslash" unicode="&#x142;" horiz-adv-x="274" 
d="M230 588l-38 -195l12 9q12 8 24.5 17t14.5 10q3 -3 11 -18q3 -7 3 -22q0 -1 -4 -5l-73 -52l-41 -215q-2 -8 -2 -17q0 -34 21 -34q11 0 34 33l24 33q3 0 10.5 -9t9.5 -17q-13 -33 -49 -73.5t-79 -40.5q-31 0 -48 22t-17 63q0 25 6 49l27 137l-51 -35q-2 0 -7 8.5t-6 15.5
l-1 6q-1 5 -0.5 9t3.5 6l74 51q44 217 44 228q2 11 4 24t3.5 20.5t1.5 9.5q0 22 -49 22q-4 0 -4 6t3.5 14t5.5 8q26 0 80 14.5t71 23.5h4q7 0 7 -16q-18 -35 -29 -90z" />
    <glyph glyph-name="Nacute" unicode="&#x143;" horiz-adv-x="763" 
d="M343 715q-4 0 -8.5 5t-4.5 10q0 6 39 39t66 49q10 5 24 5q26 0 45.5 -8t19.5 -23q0 -18 -80.5 -47.5t-100.5 -29.5zM243 658q53 0 93 4q3 -13 9 -29.5t15.5 -39t18 -42t23.5 -50t24.5 -50.5t28 -56.5t27.5 -54.5t29.5 -58t27.5 -55q5 13 10 41l48 250q10 58 10 74
t-30.5 28t-45.5 12q-2 0 -2 6q0 19 7 24q84 -4 117 -4q41 0 117 4q0 -30 -7 -30q-11 0 -41.5 -9.5t-42.5 -22.5q-15 -23 -26 -82l-75 -380q-7 -33 -14.5 -85t-8.5 -55q-4 -4 -18 -4q-11 0 -25 22q-213 426 -261 536l-82 -411q-10 -50 -10 -72q0 -20 30 -31t44 -11q2 0 2 -5
q0 -13 -6 -25q-93 5 -116 5q-11 0 -118 -5q-2 4 -2 8q0 5 1.5 10t3 8.5t2.5 3.5q15 0 46.5 9t41.5 24q11 19 25 84l76 382q8 40 8 75q0 14 -27.5 22.5t-42.5 8.5q-3 0 -3 6q0 19 7 24q80 -4 112 -4z" />
    <glyph glyph-name="nacute" unicode="&#x144;" horiz-adv-x="502" 
d="M245 504q-3 0 -7 6t-4 10q0 6 42.5 55.5t67.5 70.5q8 4 20 4q18 0 32 -10.5t14 -23.5q0 -24 -75.5 -68t-89.5 -44zM188 442q19 0 31.5 -14.5t12.5 -39.5q0 -19 -7 -59q-1 -4 -2 -10t-3.5 -19t-4 -21.5l-1.5 -8.5q22 45 78.5 108.5t94.5 63.5q68 0 68 -88q0 -36 -15 -108
l-26 -129q-3 -9 -3 -24q0 -25 10 -25t27 13.5t27.5 24.5t14.5 16q3 0 9.5 -9.5t6.5 -13.5q-11 -24 -62 -65t-88 -41q-18 0 -30.5 14.5t-12.5 40.5q0 20 9 63l29 142q8 41 8 56q0 42 -24 42q-18 0 -50.5 -40.5t-63.5 -102.5t-41 -116l-20 -92q-16 -5 -43 -5t-47 5l60 310
q4 22 4 32q0 24 -10 24q-12 0 -33.5 -19t-30.5 -31q-3 0 -9.5 10t-6.5 14q11 23 60.5 62.5t83.5 39.5z" />
    <glyph glyph-name="Ncommaaccent" unicode="&#x145;" horiz-adv-x="763" 
d="M282 -102q0 23 29 36t63 13q12 -14 12 -45q0 -38 -33.5 -76t-69.5 -53h-2q-3 -1 -4 -1q-6 0 -12.5 4t-6.5 7q0 1 13 10.5t26 24t13 28.5q0 17 -14 28t-14 24zM243 658q53 0 93 4q3 -13 9 -29.5t15.5 -39t18 -42t23.5 -50t24.5 -50.5t28 -56.5t27.5 -54.5t29.5 -58
t27.5 -55q5 13 10 41l48 250q10 58 10 74t-30.5 28t-45.5 12q-2 0 -2 6q0 19 7 24q84 -4 117 -4q41 0 117 4q0 -30 -7 -30q-11 0 -41.5 -9.5t-42.5 -22.5q-15 -23 -26 -82l-75 -380q-7 -33 -14.5 -85t-8.5 -55q-4 -4 -18 -4q-11 0 -25 22q-213 426 -261 536l-82 -411
q-10 -50 -10 -72q0 -20 30 -31t44 -11q2 0 2 -5q0 -13 -6 -25q-93 5 -116 5q-11 0 -118 -5q-2 4 -2 8q0 5 1.5 10t3 8.5t2.5 3.5q15 0 46.5 9t41.5 24q11 19 25 84l76 382q8 40 8 75q0 14 -27.5 22.5t-42.5 8.5q-3 0 -3 6q0 19 7 24q80 -4 112 -4z" />
    <glyph glyph-name="ncommaaccent" unicode="&#x146;" horiz-adv-x="502" 
d="M193 -102q0 23 29 36t63 13q12 -14 12 -45q0 -38 -33.5 -76t-69.5 -53h-2q-3 -1 -4 -1q-6 0 -12.5 4t-6.5 7q0 1 13 10.5t26 24t13 28.5q0 17 -14 28t-14 24zM188 442q19 0 31.5 -14.5t12.5 -39.5q0 -19 -7 -59q-1 -4 -2 -10t-3.5 -19t-4 -21.5l-1.5 -8.5
q22 45 78.5 108.5t94.5 63.5q68 0 68 -88q0 -36 -15 -108l-26 -129q-3 -9 -3 -24q0 -25 10 -25t27 13.5t27.5 24.5t14.5 16q3 0 9.5 -9.5t6.5 -13.5q-11 -24 -62 -65t-88 -41q-18 0 -30.5 14.5t-12.5 40.5q0 20 9 63l29 142q8 41 8 56q0 42 -24 42q-18 0 -50.5 -40.5
t-63.5 -102.5t-41 -116l-20 -92q-16 -5 -43 -5t-47 5l60 310q4 22 4 32q0 24 -10 24q-12 0 -33.5 -19t-30.5 -31q-3 0 -9.5 10t-6.5 14q11 23 60.5 62.5t83.5 39.5z" />
    <glyph glyph-name="Ncaron" unicode="&#x147;" horiz-adv-x="763" 
d="M459 803q101 61 116 61q10 0 5 -20q-25 -16 -75 -62q-30 -27 -48 -45q-9 -9 -13 -9t-9 9q-8 16 -30 46q-16 22 -33.5 41t-17.5 20q7 20 13 20q8 0 40.5 -22t51.5 -39zM243 658q53 0 93 4q3 -13 9 -29.5t15.5 -39t18 -42t23.5 -50t24.5 -50.5t28 -56.5t27.5 -54.5
t29.5 -58t27.5 -55q5 13 10 41l48 250q10 58 10 74t-30.5 28t-45.5 12q-2 0 -2 6q0 19 7 24q84 -4 117 -4q41 0 117 4q0 -30 -7 -30q-11 0 -41.5 -9.5t-42.5 -22.5q-15 -23 -26 -82l-75 -380q-7 -33 -14.5 -85t-8.5 -55q-4 -4 -18 -4q-11 0 -25 22q-213 426 -261 536
l-82 -411q-10 -50 -10 -72q0 -20 30 -31t44 -11q2 0 2 -5q0 -13 -6 -25q-93 5 -116 5q-11 0 -118 -5q-2 4 -2 8q0 5 1.5 10t3 8.5t2.5 3.5q15 0 46.5 9t41.5 24q11 19 25 84l76 382q8 40 8 75q0 14 -27.5 22.5t-42.5 8.5q-3 0 -3 6q0 19 7 24q80 -4 112 -4z" />
    <glyph glyph-name="ncaron" unicode="&#x148;" horiz-adv-x="502" 
d="M310 591q25 20 63 45t45 25q8 0 3 -23q-1 -1 -8 -7.5t-15 -14t-21.5 -21.5t-27.5 -29q-10 -11 -24 -29t-20 -25q-7 -9 -11 -9q-6 0 -9 9q-11 29 -25 55q-12 23 -42 71q6 23 13 23t35 -25t44 -45zM188 442q19 0 31.5 -14.5t12.5 -39.5q0 -19 -7 -59q-1 -4 -2 -10t-3.5 -19
t-4 -21.5l-1.5 -8.5q22 45 78.5 108.5t94.5 63.5q68 0 68 -88q0 -36 -15 -108l-26 -129q-3 -9 -3 -24q0 -25 10 -25t27 13.5t27.5 24.5t14.5 16q3 0 9.5 -9.5t6.5 -13.5q-11 -24 -62 -65t-88 -41q-18 0 -30.5 14.5t-12.5 40.5q0 20 9 63l29 142q8 41 8 56q0 42 -24 42
q-18 0 -50.5 -40.5t-63.5 -102.5t-41 -116l-20 -92q-16 -5 -43 -5t-47 5l60 310q4 22 4 32q0 24 -10 24q-12 0 -33.5 -19t-30.5 -31q-3 0 -9.5 10t-6.5 14q11 23 60.5 62.5t83.5 39.5z" />
    <glyph glyph-name="Eng" unicode="&#x14a;" horiz-adv-x="762" 
d="M484 71q-197 398 -234 481l-82 -411q-10 -50 -10 -72q0 -20 30 -31t44 -11q2 0 2 -5q0 -13 -6 -25q-92 5 -116 5q-10 0 -118 -5q-2 4 -2 8q0 5 1.5 10t3 8.5t2.5 3.5q15 0 46.5 9t41.5 24q11 19 25 84l76 382q8 40 8 75q0 14 -27.5 22.5t-42.5 8.5q-3 0 -3 6q0 19 7 24
q80 -4 112 -4q53 0 93 4q3 -13 9 -29.5t15.5 -39t18 -42t23.5 -50t24.5 -50.5t28 -56.5t27.5 -54.5t29.5 -58t27.5 -55q4 13 10 41l48 250q10 58 10 74t-30.5 28t-45.5 12q-2 0 -2 6q0 19 7 24q84 -4 117 -4q41 0 117 4q0 -30 -7 -30q-11 0 -41.5 -9.5t-42.5 -22.5
q-15 -23 -26 -82l-80 -406q-13 -65 -40 -120.5t-56.5 -90.5t-65 -63.5t-59 -41.5t-44.5 -22q-13 5 -13 20q0 12 2 16q73 56 108 98q58 71 80 163z" />
    <glyph glyph-name="eng" unicode="&#x14b;" horiz-adv-x="464" 
d="M297 61q43 199 43 245q0 24 -7.5 34.5t-25.5 10.5q-27 0 -77.5 -86.5t-64.5 -159.5l-20 -105q-20 -6 -45 -6q-22 0 -46 6l61 316q1 4 1 16q0 36 -23 36q-10 0 -33 -33l-23 -33q-3 0 -10.5 9t-9.5 17q13 33 49 73.5t79 40.5q32 0 49.5 -23t17.5 -60q0 -29 -12 -77v-1
q0 -1 2 -1v1q0 1 1 1q31 59 73.5 109.5t74.5 50.5q44 0 63.5 -31t19.5 -79q0 -31 -13 -99l-28 -151q-22 -122 -76 -195q-28 -38 -75 -70.5t-76 -42.5q-12 9 -12 22q0 4 6 10q63 51 91.5 104t45.5 151z" />
    <glyph glyph-name="Omacron" unicode="&#x14c;" horiz-adv-x="656" 
d="M259 739q0 9 8.5 28.5t14.5 19.5h250q6 0 4 -8q-3 -12 -6.5 -21t-8 -16.5t-5.5 -9.5h-250q-7 0 -7 7zM374 618q-94 0 -162 -109.5t-68 -256.5q0 -92 37 -152t109 -60q69 0 123.5 64t80.5 148t26 163q0 89 -36.5 146t-109.5 57zM398 667q104 0 172 -75.5t68 -187.5
q0 -106 -53 -202t-139.5 -154t-181.5 -58q-106 0 -172 76t-66 192q0 104 54.5 199.5t140.5 152.5t177 57z" />
    <glyph glyph-name="omacron" unicode="&#x14d;" horiz-adv-x="402" 
d="M141 513q12 48 22 48h212q7 0 4 -9q-5 -19 -15 -41l-8 -8h-212h-1.5t-1.5 2.5t0 7.5zM262 395q-31 0 -59.5 -42.5t-44.5 -102.5t-16 -116q1 -43 14 -67.5t36 -24.5q32 0 60 44.5t42.5 104t13.5 111.5q0 44 -12 68.5t-34 24.5zM273 442q68 0 101.5 -42.5t33.5 -115.5
q0 -71 -33 -138.5t-86.5 -109.5t-110.5 -42q-69 0 -102.5 42t-33.5 114q0 68 33 136t87 112t111 44z" />
    <glyph glyph-name="Obreve" unicode="&#x14e;" horiz-adv-x="656" 
d="M409 782q25 0 50 15t38 37q0 2 6 2q5 -1 10 -8.5t4 -11.5q0 -1 -1 -3.5t-1 -3.5q-20 -35 -52 -58t-64 -23q-33 0 -56 22.5t-29 58.5q0 1 -0.5 3.5t-0.5 3.5q0 4 9.5 11.5t14.5 8.5q3 0 3 -2q5 -22 24.5 -37t44.5 -15zM374 618q-94 0 -162 -109.5t-68 -256.5
q0 -92 37 -152t109 -60q69 0 123.5 64t80.5 148t26 163q0 89 -36.5 146t-109.5 57zM398 667q104 0 172 -75.5t68 -187.5q0 -106 -53 -202t-139.5 -154t-181.5 -58q-106 0 -172 76t-66 192q0 104 54.5 199.5t140.5 152.5t177 57z" />
    <glyph glyph-name="obreve" unicode="&#x14f;" horiz-adv-x="402" 
d="M282 555q26 0 50.5 17.5t37.5 47.5q0 4 4 4q5 0 12.5 -7t6.5 -11q0 -1 -1.5 -4t-1.5 -4q-17 -41 -50 -68.5t-69 -27.5q-37 0 -61 27.5t-24 69.5v7q1 4 11 11t15 7q4 0 4 -4q1 -29 20.5 -47t45.5 -18zM262 395q-31 0 -59.5 -42.5t-44.5 -102.5t-16 -116q1 -43 14 -67.5
t36 -24.5q32 0 60 44.5t42.5 104t13.5 111.5q0 44 -12 68.5t-34 24.5zM273 442q68 0 101.5 -42.5t33.5 -115.5q0 -71 -33 -138.5t-86.5 -109.5t-110.5 -42q-69 0 -102.5 42t-33.5 114q0 68 33 136t87 112t111 44z" />
    <glyph glyph-name="Ohungarumlaut" unicode="&#x150;" horiz-adv-x="656" 
d="M451 710q-4 0 -9 5t-5 10q0 6 39 39t66 49q10 5 25 5q26 0 45 -8t19 -23q0 -18 -80 -47.5t-100 -29.5zM286 710q-4 0 -8.5 5t-4.5 10q0 6 39 39t66 49q10 5 24 5q26 0 45 -8t19 -23q0 -18 -80 -47.5t-100 -29.5zM374 618q-94 0 -162 -109.5t-68 -256.5q0 -92 37 -152
t109 -60q69 0 123.5 64t80.5 148t26 163q0 89 -36.5 146t-109.5 57zM398 667q104 0 172 -75.5t68 -187.5q0 -106 -53 -202t-139.5 -154t-181.5 -58q-106 0 -172 76t-66 192q0 104 54.5 199.5t140.5 152.5t177 57z" />
    <glyph glyph-name="ohungarumlaut" unicode="&#x151;" horiz-adv-x="402" 
d="M308 504q-3 0 -7 6t-4 10q0 6 42.5 55.5t67.5 70.5q8 4 20 4q18 0 32 -10.5t14 -23.5q0 -24 -75.5 -68t-89.5 -44zM172 504q-3 0 -7 6t-4 10q0 6 42.5 55.5t67.5 70.5q8 4 20 4q18 0 32.5 -10.5t14.5 -23.5q0 -24 -76 -68t-90 -44zM262 395q-31 0 -59.5 -42.5
t-44.5 -102.5t-16 -116q1 -43 14 -67.5t36 -24.5q32 0 60 44.5t42.5 104t13.5 111.5q0 44 -12 68.5t-34 24.5zM273 442q68 0 101.5 -42.5t33.5 -115.5q0 -71 -33 -138.5t-86.5 -109.5t-110.5 -42q-69 0 -102.5 42t-33.5 114q0 68 33 136t87 112t111 44z" />
    <glyph glyph-name="OE" unicode="&#x152;" horiz-adv-x="943" 
d="M290 40q102 0 140 26q47 32 59 90l65 332q15 77 -15 96q-54 34 -165 34q-94 0 -162 -109.5t-68 -256.5q0 -92 37 -152t109 -60zM508 2q-62 0 -105 -2q-21 -1 -68 -5.5t-71 -4.5q-106 0 -172 76t-66 192q0 104 54 200t140 153t178 57q46 0 126 -5.5t117 -5.5
q51 0 148.5 3.5t147.5 3.5q-1 -11 -1 -65q0 -13 0.5 -38.5t0.5 -38.5q-5 -5 -20 -5q-12 0 -12 7q-12 89 -106 89h-44q-66 0 -70 -13q-12 -34 -18 -72l-32 -165q0 -2 2.5 -3.5t8.5 -2t12.5 -1t14.5 -0.5h62q45 0 57 9t33 57q3 8 15 8q13 0 17 -6l-37 -190q-4 -4 -17 -4t-14 8
q-2 48 -12 58q-13 10 -86 10q-67 0 -69 -8l-29 -152q-10 -48 -10 -72q0 -17 9.5 -21.5t52.5 -4.5h34q72 0 116 22q16 8 38.5 34.5t41.5 61.5q3 6 15 6q20 0 24 -6q-74 -143 -83 -169q-53 0 -168 2.5t-155 2.5z" />
    <glyph glyph-name="oe" unicode="&#x153;" horiz-adv-x="629" 
d="M239 394q-45 0 -82 -75t-37 -157q0 -120 55 -120q45 0 80.5 75t35.5 159q0 118 -52 118zM497 395q-29 0 -59.5 -42.5t-40.5 -79.5q-5 -9 -7.5 -25.5t-0.5 -20.5q18 -1 45.5 20.5t28.5 44.5q2 0 10.5 1.5t10.5 2t8.5 2.5t8 3.5t6 4.5t5.5 7.5t3.5 10t3 13t0.5 17.5
q0 41 -22 41zM518 442q44 0 68.5 -27t24.5 -60q0 -44 -45.5 -86.5t-98 -65t-84.5 -22.5q-4 0 -4 -9q0 -62 23 -89t55 -27q19 0 40 17t35 34t15 17q3 0 9 -8.5t6 -15.5q-5 -21 -51 -63.5t-93 -42.5q-75 0 -113 72q-67 -72 -152 -72q-60 0 -95 50t-35 118q0 109 70 194.5
t166 85.5q72 0 107 -75q70 75 152 75z" />
    <glyph glyph-name="Racute" unicode="&#x154;" horiz-adv-x="621" 
d="M308 715q-4 0 -8.5 5t-4.5 10q0 6 39 39t66 49q10 5 24 5q26 0 45.5 -8t19.5 -23q0 -18 -80.5 -47.5t-100.5 -29.5zM237 657q28 0 65.5 2.5t64.5 2.5q39 0 77.5 -12.5t70 -47t31.5 -83.5q0 -66 -45.5 -121.5t-97.5 -74.5q-8 -3 -4 -13q42 -131 122 -228
q20 -24 46.5 -38.5t47.5 -15.5q0 -14 -9 -30q-4 0 -20.5 -1t-24.5 -1q-73 0 -114 35t-85 119l-65 136q-9 16 -48 16q-14 0 -18.5 -0.5t-9 -4t-6.5 -11.5l-28 -147q-10 -55 -10 -85q0 -11 21 -19t30 -8q2 0 2 -5q0 -13 -7 -25q-7 0 -41 3t-60 3q-20 0 -41.5 -1t-48 -2.5
t-42.5 -2.5q-2 4 -2 11q0 5 2.5 12t4.5 7q14 0 35.5 5.5t26.5 17.5q9 18 24 88l79 400q7 35 7 62q0 13 -20.5 22.5t-30.5 9.5q-2 0 -2 6q0 18 8 24q105 -5 115 -5zM345 613q-42 0 -55 -5t-16 -20l-40 -210q0 -1 -0.5 -2t-0.5 -2q0 -24 74 -24q48 0 86.5 50.5t38.5 121.5
q0 45 -23 68t-64 23z" />
    <glyph glyph-name="racute" unicode="&#x155;" horiz-adv-x="405" 
d="M215 504q-3 0 -7 6t-4 10q0 6 42.5 55.5t67.5 70.5q8 4 20 4q18 0 32 -10.5t14 -23.5q0 -24 -75.5 -68t-89.5 -44zM192 442q19 0 31 -14.5t12 -39.5q0 -26 -5 -54q-12 -62 -13 -64q28 64 73 118t86 54q36 0 61 -36q0 -83 -49 -83q-12 0 -27 17.5t-29 17.5q-17 0 -48 -41
t-60 -103.5t-40 -116.5l-18 -97q-22 -4 -45 -4q-24 0 -47 4l60 310q3 22 3 32q0 24 -10 24q-12 0 -33 -19t-31 -31q-2 0 -9 10t-7 14q11 23 61 62.5t84 39.5z" />
    <glyph glyph-name="Rcommaaccent" unicode="&#x156;" horiz-adv-x="621" 
d="M239 -102q0 23 29 36t63 13q12 -14 12 -45q0 -38 -33.5 -76t-69.5 -53h-2q-3 -1 -4 -1q-6 0 -12.5 4t-6.5 7q0 1 13 10.5t26 24t13 28.5q0 17 -14 28t-14 24zM237 657q28 0 65.5 2.5t64.5 2.5q39 0 77.5 -12.5t70 -47t31.5 -83.5q0 -66 -45.5 -121.5t-97.5 -74.5
q-8 -3 -4 -13q42 -131 122 -228q20 -24 46.5 -38.5t47.5 -15.5q0 -14 -9 -30q-4 0 -20.5 -1t-24.5 -1q-73 0 -114 35t-85 119l-65 136q-9 16 -48 16q-14 0 -18.5 -0.5t-9 -4t-6.5 -11.5l-28 -147q-10 -55 -10 -85q0 -11 21 -19t30 -8q2 0 2 -5q0 -13 -7 -25q-7 0 -41 3
t-60 3q-20 0 -41.5 -1t-48 -2.5t-42.5 -2.5q-2 4 -2 11q0 5 2.5 12t4.5 7q14 0 35.5 5.5t26.5 17.5q9 18 24 88l79 400q7 35 7 62q0 13 -20.5 22.5t-30.5 9.5q-2 0 -2 6q0 18 8 24q105 -5 115 -5zM345 613q-42 0 -55 -5t-16 -20l-40 -210q0 -1 -0.5 -2t-0.5 -2q0 -24 74 -24
q48 0 86.5 50.5t38.5 121.5q0 45 -23 68t-64 23z" />
    <glyph glyph-name="rcommaaccent" unicode="&#x157;" horiz-adv-x="405" 
d="M55 -102q0 23 29 36t63 13q12 -14 12 -45q0 -38 -33.5 -76t-69.5 -53h-2q-3 -1 -4 -1q-6 0 -12.5 4t-6.5 7q0 1 13 10.5t26 24t13 28.5q0 17 -14 28t-14 24zM192 442q19 0 31 -14.5t12 -39.5q0 -26 -5 -54q-12 -62 -13 -64q28 64 73 118t86 54q36 0 61 -36q0 -83 -49 -83
q-12 0 -27 17.5t-29 17.5q-17 0 -48 -41t-60 -103.5t-40 -116.5l-18 -97q-22 -4 -45 -4q-24 0 -47 4l60 310q3 22 3 32q0 24 -10 24q-12 0 -33 -19t-31 -31q-2 0 -9 10t-7 14q11 23 61 62.5t84 39.5z" />
    <glyph glyph-name="Rcaron" unicode="&#x158;" horiz-adv-x="621" 
d="M323 803q101 61 116 61q10 0 5 -20q-25 -16 -75 -62q-30 -27 -48 -45q-9 -9 -13 -9t-9 9q-8 16 -30 46q-16 22 -33.5 41t-17.5 20q7 20 13 20q8 0 40.5 -22t51.5 -39zM237 657q28 0 65.5 2.5t64.5 2.5q39 0 77.5 -12.5t70 -47t31.5 -83.5q0 -66 -45.5 -121.5t-97.5 -74.5
q-8 -3 -4 -13q42 -131 122 -228q20 -24 46.5 -38.5t47.5 -15.5q0 -14 -9 -30q-4 0 -20.5 -1t-24.5 -1q-73 0 -114 35t-85 119l-65 136q-9 16 -48 16q-14 0 -18.5 -0.5t-9 -4t-6.5 -11.5l-28 -147q-10 -55 -10 -85q0 -11 21 -19t30 -8q2 0 2 -5q0 -13 -7 -25q-7 0 -41 3
t-60 3q-20 0 -41.5 -1t-48 -2.5t-42.5 -2.5q-2 4 -2 11q0 5 2.5 12t4.5 7q14 0 35.5 5.5t26.5 17.5q9 18 24 88l79 400q7 35 7 62q0 13 -20.5 22.5t-30.5 9.5q-2 0 -2 6q0 18 8 24q105 -5 115 -5zM345 613q-42 0 -55 -5t-16 -20l-40 -210q0 -1 -0.5 -2t-0.5 -2q0 -24 74 -24
q48 0 86.5 50.5t38.5 121.5q0 45 -23 68t-64 23z" />
    <glyph glyph-name="rcaron" unicode="&#x159;" horiz-adv-x="405" 
d="M248 591q25 20 63 45t45 25q8 0 3 -23q-1 -1 -8 -7.5t-15 -14t-21.5 -21.5t-27.5 -29q-10 -11 -24 -29t-20 -25q-7 -9 -11 -9q-6 0 -9 9q-11 29 -25 55q-12 23 -42 71q6 23 13 23t35 -25t44 -45zM192 442q19 0 31 -14.5t12 -39.5q0 -26 -5 -54q-12 -62 -13 -64
q28 64 73 118t86 54q36 0 61 -36q0 -83 -49 -83q-12 0 -27 17.5t-29 17.5q-17 0 -48 -41t-60 -103.5t-40 -116.5l-18 -97q-22 -4 -45 -4q-24 0 -47 4l60 310q3 22 3 32q0 24 -10 24q-12 0 -33 -19t-31 -31q-2 0 -9 10t-7 14q11 23 61 62.5t84 39.5z" />
    <glyph glyph-name="Sacute" unicode="&#x15a;" horiz-adv-x="455" 
d="M292 716q-4 0 -8.5 5t-4.5 10q0 6 39 39t66 49q10 5 24 5q26 0 45.5 -8t19.5 -23q0 -18 -80.5 -47.5t-100.5 -29.5zM314 668q30 0 76 -11.5t64 -14.5q-2 -18 -5.5 -45.5t-6 -45.5t-5 -36.5t-4.5 -27.5t-4 -9q-9 0 -18 3q-13 2 -13 15q0 43 -27.5 82.5t-70.5 39.5
q-52 0 -81 -35.5t-29 -75.5q0 -52 78 -113q10 -8 49 -36t53 -41t30 -42t16 -62q0 -89 -72 -155t-168 -66q-58 0 -162 25q5 80 5 85q0 17 -0.5 46.5t-0.5 30.5q0 8 21 8q12 0 21 -9q0 -49 29 -93t89 -44q56 0 91 42t35 87q0 14 -5.5 27.5t-12 23t-21.5 23t-22 19.5
t-26.5 20.5t-24.5 17.5q-27 21 -41 33t-32.5 32.5t-26.5 41.5t-8 46q0 92 71.5 153t158.5 61z" />
    <glyph glyph-name="sacute" unicode="&#x15b;" horiz-adv-x="322" 
d="M201 505q-3 0 -7 6t-4 10q0 6 42.5 55.5t67.5 70.5q8 4 20 4q18 0 32 -10.5t14 -23.5q0 -24 -75.5 -68t-89.5 -44zM238 444q60 0 94 -34q8 -12 8 -29q0 -23 -10.5 -37.5t-27.5 -14.5q-20 0 -43 34t-51 34q-20 0 -30 -12t-10 -33q0 -22 19 -52.5t42.5 -57t43 -61
t19.5 -63.5q0 -55 -45 -90t-111 -35q-60 0 -95 35q-7 10 -7 26q0 23 10.5 38.5t26.5 15.5q14 0 25.5 -11t18.5 -23.5t20.5 -23t30.5 -10.5q20 0 31 12t11 32q0 28 -31 68.5t-62 85t-31 81.5q0 48 45 86.5t109 38.5z" />
    <glyph glyph-name="Scircumflex" unicode="&#x15c;" horiz-adv-x="455" 
d="M423 729q-19 0 -106 60q-30 -18 -76 -39t-55 -21q-12 0 -6 19q1 1 29 20.5t55 40.5q33 25 55 47q11 9 14 9q8 0 13 -9q2 -4 13 -20t19 -26q14 -17 28.5 -31.5t22.5 -22t9 -8.5q-5 -19 -15 -19zM314 668q30 0 76 -11.5t64 -14.5q-2 -18 -5.5 -45.5t-6 -45.5t-5 -36.5
t-4.5 -27.5t-4 -9q-9 0 -18 3q-13 2 -13 15q0 43 -27.5 82.5t-70.5 39.5q-52 0 -81 -35.5t-29 -75.5q0 -52 78 -113q10 -8 49 -36t53 -41t30 -42t16 -62q0 -89 -72 -155t-168 -66q-58 0 -162 25q5 80 5 85q0 17 -0.5 46.5t-0.5 30.5q0 8 21 8q12 0 21 -9q0 -49 29 -93
t89 -44q56 0 91 42t35 87q0 14 -5.5 27.5t-12 23t-21.5 23t-22 19.5t-26.5 20.5t-24.5 17.5q-27 21 -41 33t-32.5 32.5t-26.5 41.5t-8 46q0 92 71.5 153t158.5 61z" />
    <glyph glyph-name="scircumflex" unicode="&#x15d;" horiz-adv-x="322" 
d="M321 505q-7 0 -37 23.5t-50 42.5q-25 -19 -64.5 -42.5t-46.5 -23.5q-4 0 -5.5 8t0.5 13q2 2 11.5 10t25 22.5t32.5 31.5q32 32 50 55q10 10 14 10q3 0 8 -10q17 -33 26 -48q11 -18 23 -35t18.5 -25.5t7.5 -10.5q-5 -21 -13 -21zM238 444q60 0 94 -34q8 -12 8 -29
q0 -23 -10.5 -37.5t-27.5 -14.5q-20 0 -43 34t-51 34q-20 0 -30 -12t-10 -33q0 -22 19 -52.5t42.5 -57t43 -61t19.5 -63.5q0 -55 -45 -90t-111 -35q-60 0 -95 35q-7 10 -7 26q0 23 10.5 38.5t26.5 15.5q14 0 25.5 -11t18.5 -23.5t20.5 -23t30.5 -10.5q20 0 31 12t11 32
q0 28 -31 68.5t-62 85t-31 81.5q0 48 45 86.5t109 38.5z" />
    <glyph glyph-name="Scedilla" unicode="&#x15e;" horiz-adv-x="455" 
d="M149 -31h24q22 0 34.5 -17t7.5 -41q-8 -41 -41.5 -66t-80.5 -25q-27 0 -42 15q0 6 2 18q4 16 14 16q4 0 18 -8t26 -8q22 0 35.5 10.5t16.5 25.5q3 16 -3.5 26.5t-18.5 10.5q-16 0 -33 -7q-2 0 -6.5 6.5t-2.5 9.5q8 11 25.5 36t18.5 27h29zM314 668q30 0 76 -11.5
t64 -14.5q-2 -18 -5.5 -45.5t-6 -45.5t-5 -36.5t-4.5 -27.5t-4 -9q-9 0 -18 3q-13 2 -13 15q0 43 -27.5 82.5t-70.5 39.5q-52 0 -81 -35.5t-29 -75.5q0 -52 78 -113q10 -8 49 -36t53 -41t30 -42t16 -62q0 -89 -72 -155t-168 -66q-58 0 -162 25q5 80 5 85q0 17 -0.5 46.5
t-0.5 30.5q0 8 21 8q12 0 21 -9q0 -49 29 -93t89 -44q56 0 91 42t35 87q0 14 -5.5 27.5t-12 23t-21.5 23t-22 19.5t-26.5 20.5t-24.5 17.5q-27 21 -41 33t-32.5 32.5t-26.5 41.5t-8 46q0 92 71.5 153t158.5 61z" />
    <glyph glyph-name="scedilla" unicode="&#x15f;" horiz-adv-x="322" 
d="M114 -2h27l-21 -27q18 1 22 1q18 0 29.5 -12.5t11.5 -31.5q0 -31 -30 -63t-86 -32q-28 0 -41 9q-2 6 -2 17q0 10 6 16t12 6q7 0 19.5 -8.5t22.5 -8.5q22 0 36 12.5t14 29.5q0 11 -6.5 18t-16.5 7q-11 0 -30 -7q-2 0 -6 6t-3 9q3 6 18.5 27t23.5 32zM238 444q60 0 94 -34
q8 -12 8 -29q0 -23 -10.5 -37.5t-27.5 -14.5q-20 0 -43 34t-51 34q-20 0 -30 -12t-10 -33q0 -22 19 -52.5t42.5 -57t43 -61t19.5 -63.5q0 -55 -45 -90t-111 -35q-60 0 -95 35q-7 10 -7 26q0 23 10.5 38.5t26.5 15.5q14 0 25.5 -11t18.5 -23.5t20.5 -23t30.5 -10.5
q20 0 31 12t11 32q0 28 -31 68.5t-62 85t-31 81.5q0 48 45 86.5t109 38.5z" />
    <glyph glyph-name="Scaron" unicode="&#x160;" horiz-adv-x="455" 
d="M344 804q101 61 116 61q10 0 5 -20q-25 -16 -75 -62q-30 -27 -48 -45q-9 -9 -13 -9t-9 9q-8 16 -30 46q-16 22 -33.5 41t-17.5 20q7 20 13 20q8 0 40.5 -22t51.5 -39zM314 668q30 0 76 -11.5t64 -14.5q-2 -18 -5.5 -45.5t-6 -45.5t-5 -36.5t-4.5 -27.5t-4 -9q-9 0 -18 3
q-13 2 -13 15q0 43 -27.5 82.5t-70.5 39.5q-52 0 -81 -35.5t-29 -75.5q0 -52 78 -113q10 -8 49 -36t53 -41t30 -42t16 -62q0 -89 -72 -155t-168 -66q-58 0 -162 25q5 80 5 85q0 17 -0.5 46.5t-0.5 30.5q0 8 21 8q12 0 21 -9q0 -49 29 -93t89 -44q56 0 91 42t35 87
q0 14 -5.5 27.5t-12 23t-21.5 23t-22 19.5t-26.5 20.5t-24.5 17.5q-27 21 -41 33t-32.5 32.5t-26.5 41.5t-8 46q0 92 71.5 153t158.5 61z" />
    <glyph glyph-name="scaron" unicode="&#x161;" horiz-adv-x="322" 
d="M242 593q25 20 63 45t45 25q8 0 3 -23q-1 -1 -8 -7.5t-15 -14t-21.5 -21.5t-27.5 -29q-10 -11 -24 -29t-20 -25q-7 -9 -11 -9q-6 0 -9 9q-11 29 -25 55q-12 23 -42 71q6 23 13 23t35 -25t44 -45zM238 444q60 0 94 -34q8 -12 8 -29q0 -23 -10.5 -37.5t-27.5 -14.5
q-20 0 -43 34t-51 34q-20 0 -30 -12t-10 -33q0 -22 19 -52.5t42.5 -57t43 -61t19.5 -63.5q0 -55 -45 -90t-111 -35q-60 0 -95 35q-7 10 -7 26q0 23 10.5 38.5t26.5 15.5q14 0 25.5 -11t18.5 -23.5t20.5 -23t30.5 -10.5q20 0 31 12t11 32q0 28 -31 68.5t-62 85t-31 81.5
q0 48 45 86.5t109 38.5z" />
    <glyph glyph-name="Tcommaaccent" unicode="&#x162;" horiz-adv-x="576" 
d="M155 138l70 359q13 63 13 88q0 10 -4 15t-23.5 8t-59.5 3q-46 0 -71.5 -19t-49.5 -74q-3 -6 -9 -6q-18 0 -23 8l47 152q35 -10 62 -10q40 0 102 -3.5t100 -3.5t102 3.5t104 3.5q26 0 66 10l-12 -153q-9 -7 -26 -7q-8 0 -8 5q-1 54 -21.5 74t-62.5 20q-86 0 -94 -17
q-12 -26 -26 -94l-70 -361q-10 -55 -10 -85q0 -11 20.5 -19t29.5 -8q2 0 2 -5q0 -15 -6 -25q-111 6 -116 6q-25 0 -67 -3t-51 -3q-1 1 -1 7q0 23 7 23q11 0 33.5 6.5t27.5 15.5q14 28 25 89zM110 -102q0 23 29 36t63 13q12 -14 12 -45q0 -38 -33.5 -76t-69.5 -53h-2
q-3 -1 -4 -1q-6 0 -12.5 4t-6.5 7q0 1 13 10.5t26 24t13 28.5q0 17 -14 28t-14 24z" />
    <glyph glyph-name="tcommaaccent" unicode="&#x163;" horiz-adv-x="277" 
d="M154 534q2 12 68 12q15 0 25 -2l-25 -120h90q7 0 7 -14q0 -19 -11 -36h-95l-50 -257q-3 -9 -3 -24q0 -25 10 -25t27 13.5t27.5 24.5t15.5 16q2 0 9 -9.5t7 -13.5q-11 -24 -62.5 -65t-87.5 -41q-19 0 -31.5 14.5t-12.5 40.5q0 22 9 63l51 263h-64q-3 0 -3 12q0 10 4.5 22
t8.5 16h64zM48 -102q0 23 29 36t63 13q12 -14 12 -45q0 -38 -33.5 -76t-69.5 -53h-2q-3 -1 -4 -1q-6 0 -12.5 4t-6.5 7q0 1 13 10.5t26 24t13 28.5q0 17 -14 28t-14 24z" />
    <glyph glyph-name="Tcaron" unicode="&#x164;" horiz-adv-x="576" 
d="M318 808q101 61 116 61q10 0 5 -20q-25 -16 -75 -62q-30 -27 -48 -45q-9 -9 -13 -9t-9 9q-8 16 -30 46q-16 22 -33.5 41t-17.5 20q7 20 13 20q8 0 40.5 -22t51.5 -39zM155 138l70 359q13 63 13 88q0 10 -4 15t-23.5 8t-59.5 3q-46 0 -71.5 -19t-49.5 -74q-3 -6 -9 -6
q-18 0 -23 8l47 152q35 -10 62 -10q40 0 102 -3.5t100 -3.5t102 3.5t104 3.5q26 0 66 10l-12 -153q-9 -7 -26 -7q-8 0 -8 5q-1 54 -21.5 74t-62.5 20q-86 0 -94 -17q-12 -26 -26 -94l-70 -361q-10 -55 -10 -85q0 -11 20.5 -19t29.5 -8q2 0 2 -5q0 -15 -6 -25q-111 6 -116 6
q-25 0 -67 -3t-51 -3q-1 1 -1 7q0 23 7 23q11 0 33.5 6.5t27.5 15.5q14 28 25 89z" />
    <glyph glyph-name="tcaron" unicode="&#x165;" horiz-adv-x="277" 
d="M311 630q0 34 24.5 49t58.5 15q4 -8 4 -26q0 -21 -4 -41q-7 -37 -41 -80.5t-62 -59.5h-4q-4 0 -8.5 6t-4.5 11q0 1 12.5 12t25.5 29t13 37q0 7 -7 21.5t-7 26.5zM154 534q2 12 68 12q15 0 25 -2l-25 -120h90q7 0 7 -14q0 -19 -11 -36h-95l-50 -257q-3 -9 -3 -24
q0 -25 10 -25t27 13.5t27.5 24.5t15.5 16q2 0 9 -9.5t7 -13.5q-11 -24 -62.5 -65t-87.5 -41q-19 0 -31.5 14.5t-12.5 40.5q0 22 9 63l51 263h-64q-3 0 -3 12q0 10 4.5 22t8.5 16h64z" />
    <glyph glyph-name="Tbar" unicode="&#x166;" horiz-adv-x="588" 
d="M320 657q39 0 103.5 2.5t102.5 2.5q27 0 67 10l-13 -153q-7 -7 -26 -7q-8 0 -8 5q-2 55 -20 74.5t-64 19.5q-87 0 -93 -17q-16 -35 -27 -94l-29 -152h102h1q2 1 2.5 0.5t1.5 -2t0 -5.5q-10 -33 -15 -43q-1 -3 -3 -4.5t-4 -1.5h-1h-96l-30 -153q-9 -46 -9 -85
q0 -10 23 -19t30 -9q2 0 2 -9t-6 -21q-111 6 -116 6q-19 0 -39.5 -1t-45 -2.5t-39.5 -2.5q-1 2 -1 12q0 18 7 18q10 0 36 9t30 17q13 31 23 86l30 154h-98l-3 9q7 30 14 43q1 3 3 4t3 0h1h91l28 149q17 84 12 97q-4 17 -85 17q-46 0 -71 -19t-49 -74q-3 -6 -11 -6
q-17 0 -22 8l46 152q35 -10 62 -10q38 0 101 -2.5t102 -2.5z" />
    <glyph glyph-name="tbar" unicode="&#x167;" horiz-adv-x="312" 
d="M139 522q3 12 69 12q19 0 25 -2l-24 -114h86q7 0 7 -15q0 -22 -10 -37h-94l-10 -52h92q7 0 6 -8q-3 -16 -12 -38q-1 -3 -3 -4.5t-3 -1.5h-1h-89l-29 -146q-1 -4 -1 -16q0 -34 21 -34q9 0 22.5 16.5t23.5 33t11 16.5q3 0 11.5 -9.5t9.5 -16.5q-58 -114 -130 -114
q-28 0 -45.5 22t-17.5 62q0 28 5 50l26 136h-59l-4 8q0 11 12 38q1 3 3 4.5t3 1.5h2h53l10 52h-63q-4 0 -4 11t5 24t9 17h66z" />
    <glyph glyph-name="Utilde" unicode="&#x168;" horiz-adv-x="667" 
d="M192 738q-8 0 -3 19q5 21 24 44q43 46 86 46q33 0 79 -30.5t79 -30.5q17 0 44.5 25.5t29.5 25.5q7 0 3 -20q-2 -17 -25 -44q-39 -45 -84 -45q-34 0 -79 30.5t-79 30.5q-16 0 -44 -25.5t-31 -25.5zM90 520q10 52 10 82q0 13 -20 21.5t-31 8.5q-1 0 -1 4q0 20 6 26
q105 -5 116 -5q23 0 118 5v-4q0 -26 -7 -26q-8 0 -32.5 -8.5t-28.5 -15.5q-6 -14 -24 -89l-44 -222q-10 -52 -10 -95q0 -140 122 -140q76 0 126.5 45t73.5 165l46 242q14 71 13 92q-1 12 -30 19t-45 7q-1 0 -1 6q0 17 7 24q84 -4 107 -4q38 0 114 4q0 -30 -7 -30
q-10 0 -42.5 -7t-36.5 -13q-8 -17 -25 -98l-46 -238q-30 -157 -100.5 -217.5t-187.5 -60.5q-90 0 -142 51.5t-52 153.5q0 38 12 101z" />
    <glyph glyph-name="utilde" unicode="&#x169;" horiz-adv-x="492" 
d="M233 600q28 0 66.5 -28.5t66.5 -28.5q14 0 38 23l24 23q6 0 6 -12q0 -19 -31 -53.5t-64 -34.5q-29 0 -67.5 28t-67.5 28q-13 0 -37 -24t-26 -24q-5 0 -5 13q0 25 32 57.5t65 32.5zM183 442q19 0 31 -14.5t12 -39.5q0 -29 -8 -64l-29 -142q-8 -43 -8 -56q0 -42 24 -42
q17 0 49 40.5t61.5 102.5t40.5 117l19 91q17 5 44 5q26 0 46 -5l-61 -318q-2 -11 -2 -24q0 -25 10 -25q9 0 26 13.5t27.5 24.5t15.5 16q2 0 9 -9.5t7 -13.5q-11 -24 -62.5 -65t-87.5 -41q-19 0 -31 14.5t-12 40.5q0 16 7 58q1 4 2 10t3.5 19t4 21.5l1.5 8.5
q-13 -26 -40.5 -64t-65 -73t-63.5 -35q-68 0 -68 87q0 37 15 108l24 122q4 18 4 32q0 24 -10 24q-12 0 -33 -19t-31 -31q-2 0 -9 10t-7 14q11 23 61 62.5t84 39.5z" />
    <glyph glyph-name="Umacron" unicode="&#x16a;" horiz-adv-x="667" 
d="M227 739q0 9 8.5 28.5t14.5 19.5h250q6 0 4 -8q-3 -12 -6.5 -21t-8 -16.5t-5.5 -9.5h-250q-7 0 -7 7zM90 520q10 52 10 82q0 13 -20 21.5t-31 8.5q-1 0 -1 4q0 20 6 26q105 -5 116 -5q23 0 118 5v-4q0 -26 -7 -26q-8 0 -32.5 -8.5t-28.5 -15.5q-6 -14 -24 -89l-44 -222
q-10 -52 -10 -95q0 -140 122 -140q76 0 126.5 45t73.5 165l46 242q14 71 13 92q-1 12 -30 19t-45 7q-1 0 -1 6q0 17 7 24q84 -4 107 -4q38 0 114 4q0 -30 -7 -30q-10 0 -42.5 -7t-36.5 -13q-8 -17 -25 -98l-46 -238q-30 -157 -100.5 -217.5t-187.5 -60.5q-90 0 -142 51.5
t-52 153.5q0 38 12 101z" />
    <glyph glyph-name="umacron" unicode="&#x16b;" horiz-adv-x="492" 
d="M159 513q12 48 22 48h212q7 0 4 -9q-5 -19 -15 -41l-8 -8h-212h-1.5t-1.5 2.5t0 7.5zM183 442q19 0 31 -14.5t12 -39.5q0 -29 -8 -64l-29 -142q-8 -43 -8 -56q0 -42 24 -42q17 0 49 40.5t61.5 102.5t40.5 117l19 91q17 5 44 5q26 0 46 -5l-61 -318q-2 -11 -2 -24
q0 -25 10 -25q9 0 26 13.5t27.5 24.5t15.5 16q2 0 9 -9.5t7 -13.5q-11 -24 -62.5 -65t-87.5 -41q-19 0 -31 14.5t-12 40.5q0 16 7 58q1 4 2 10t3.5 19t4 21.5l1.5 8.5q-13 -26 -40.5 -64t-65 -73t-63.5 -35q-68 0 -68 87q0 37 15 108l24 122q4 18 4 32q0 24 -10 24
q-12 0 -33 -19t-31 -31q-2 0 -9 10t-7 14q11 23 61 62.5t84 39.5z" />
    <glyph glyph-name="Ubreve" unicode="&#x16c;" horiz-adv-x="667" 
d="M378 782q25 0 50 15t38 37q0 2 6 2q5 -1 10 -8.5t4 -11.5q0 -1 -1 -3.5t-1 -3.5q-20 -35 -52 -58t-64 -23q-33 0 -56 22.5t-29 58.5q0 1 -0.5 3.5t-0.5 3.5q0 4 9.5 11.5t14.5 8.5q3 0 3 -2q5 -22 24.5 -37t44.5 -15zM90 520q10 52 10 82q0 13 -20 21.5t-31 8.5
q-1 0 -1 4q0 20 6 26q105 -5 116 -5q23 0 118 5v-4q0 -26 -7 -26q-8 0 -32.5 -8.5t-28.5 -15.5q-6 -14 -24 -89l-44 -222q-10 -52 -10 -95q0 -140 122 -140q76 0 126.5 45t73.5 165l46 242q14 71 13 92q-1 12 -30 19t-45 7q-1 0 -1 6q0 17 7 24q84 -4 107 -4q38 0 114 4
q0 -30 -7 -30q-10 0 -42.5 -7t-36.5 -13q-8 -17 -25 -98l-46 -238q-30 -157 -100.5 -217.5t-187.5 -60.5q-90 0 -142 51.5t-52 153.5q0 38 12 101z" />
    <glyph glyph-name="ubreve" unicode="&#x16d;" horiz-adv-x="492" 
d="M287 555q26 0 50.5 17.5t37.5 47.5q0 4 4 4q5 0 12.5 -7t6.5 -11q0 -1 -1.5 -4t-1.5 -4q-17 -41 -50 -68.5t-69 -27.5q-37 0 -61 27.5t-24 69.5v7q1 4 11 11t15 7q4 0 4 -4q1 -29 20.5 -47t45.5 -18zM183 442q19 0 31 -14.5t12 -39.5q0 -29 -8 -64l-29 -142
q-8 -43 -8 -56q0 -42 24 -42q17 0 49 40.5t61.5 102.5t40.5 117l19 91q17 5 44 5q26 0 46 -5l-61 -318q-2 -11 -2 -24q0 -25 10 -25q9 0 26 13.5t27.5 24.5t15.5 16q2 0 9 -9.5t7 -13.5q-11 -24 -62.5 -65t-87.5 -41q-19 0 -31 14.5t-12 40.5q0 16 7 58q1 4 2 10t3.5 19
t4 21.5l1.5 8.5q-13 -26 -40.5 -64t-65 -73t-63.5 -35q-68 0 -68 87q0 37 15 108l24 122q4 18 4 32q0 24 -10 24q-12 0 -33 -19t-31 -31q-2 0 -9 10t-7 14q11 23 61 62.5t84 39.5z" />
    <glyph glyph-name="Uring" unicode="&#x16e;" horiz-adv-x="667" 
d="M309 823q-5 -23 7 -39t33 -16t38 16t22 39t-6.5 38.5t-32.5 15.5t-38.5 -15.5t-22.5 -38.5zM271 823q7 39 38.5 66t67.5 27t55.5 -27t12.5 -66q-8 -39 -38 -67t-66 -28t-56.5 28t-13.5 67zM90 520q10 52 10 82q0 13 -20 21.5t-31 8.5q-1 0 -1 4q0 20 6 26q105 -5 116 -5
q23 0 118 5v-4q0 -26 -7 -26q-8 0 -32.5 -8.5t-28.5 -15.5q-6 -14 -24 -89l-44 -222q-10 -52 -10 -95q0 -140 122 -140q76 0 126.5 45t73.5 165l46 242q14 71 13 92q-1 12 -30 19t-45 7q-1 0 -1 6q0 17 7 24q84 -4 107 -4q38 0 114 4q0 -30 -7 -30q-10 0 -42.5 -7t-36.5 -13
q-8 -17 -25 -98l-46 -238q-30 -157 -100.5 -217.5t-187.5 -60.5q-90 0 -142 51.5t-52 153.5q0 38 12 101z" />
    <glyph glyph-name="uring" unicode="&#x16f;" horiz-adv-x="492" 
d="M312 660q-27 0 -46 -21.5t-19 -48.5q0 -20 11.5 -33t31.5 -13q26 0 45 21.5t19 48.5q0 20 -11 33t-31 13zM320 700q33 0 53.5 -22.5t20.5 -56.5q0 -46 -35 -82t-77 -36q-33 0 -54 23t-21 57q0 47 36 82t77 35zM183 442q19 0 31 -14.5t12 -39.5q0 -29 -8 -64l-29 -142
q-8 -43 -8 -56q0 -42 24 -42q17 0 49 40.5t61.5 102.5t40.5 117l19 91q17 5 44 5q26 0 46 -5l-61 -318q-2 -11 -2 -24q0 -25 10 -25q9 0 26 13.5t27.5 24.5t15.5 16q2 0 9 -9.5t7 -13.5q-11 -24 -62.5 -65t-87.5 -41q-19 0 -31 14.5t-12 40.5q0 16 7 58q1 4 2 10t3.5 19
t4 21.5l1.5 8.5q-13 -26 -40.5 -64t-65 -73t-63.5 -35q-68 0 -68 87q0 37 15 108l24 122q4 18 4 32q0 24 -10 24q-12 0 -33 -19t-31 -31q-2 0 -9 10t-7 14q11 23 61 62.5t84 39.5z" />
    <glyph glyph-name="Uhungarumlaut" unicode="&#x170;" horiz-adv-x="667" 
d="M405 710q-4 0 -9 5t-5 10q0 6 39 39t66 49q10 5 25 5q26 0 45 -8t19 -23q0 -18 -80 -47.5t-100 -29.5zM240 710q-4 0 -8.5 5t-4.5 10q0 6 39 39t66 49q10 5 24 5q26 0 45 -8t19 -23q0 -18 -80 -47.5t-100 -29.5zM90 520q10 52 10 82q0 13 -20 21.5t-31 8.5q-1 0 -1 4
q0 20 6 26q105 -5 116 -5q23 0 118 5v-4q0 -26 -7 -26q-8 0 -32.5 -8.5t-28.5 -15.5q-6 -14 -24 -89l-44 -222q-10 -52 -10 -95q0 -140 122 -140q76 0 126.5 45t73.5 165l46 242q14 71 13 92q-1 12 -30 19t-45 7q-1 0 -1 6q0 17 7 24q84 -4 107 -4q38 0 114 4q0 -30 -7 -30
q-10 0 -42.5 -7t-36.5 -13q-8 -17 -25 -98l-46 -238q-30 -157 -100.5 -217.5t-187.5 -60.5q-90 0 -142 51.5t-52 153.5q0 38 12 101z" />
    <glyph glyph-name="uhungarumlaut" unicode="&#x171;" horiz-adv-x="492" 
d="M319 504q-3 0 -7 6t-4 10q0 6 42.5 55.5t67.5 70.5q8 4 20 4q18 0 32 -10.5t14 -23.5q0 -24 -75.5 -68t-89.5 -44zM183 504q-3 0 -7 6t-4 10q0 6 42.5 55.5t67.5 70.5q8 4 20 4q18 0 32.5 -10.5t14.5 -23.5q0 -24 -76 -68t-90 -44zM183 442q19 0 31 -14.5t12 -39.5
q0 -29 -8 -64l-29 -142q-8 -43 -8 -56q0 -42 24 -42q17 0 49 40.5t61.5 102.5t40.5 117l19 91q17 5 44 5q26 0 46 -5l-61 -318q-2 -11 -2 -24q0 -25 10 -25q9 0 26 13.5t27.5 24.5t15.5 16q2 0 9 -9.5t7 -13.5q-11 -24 -62.5 -65t-87.5 -41q-19 0 -31 14.5t-12 40.5
q0 16 7 58q1 4 2 10t3.5 19t4 21.5l1.5 8.5q-13 -26 -40.5 -64t-65 -73t-63.5 -35q-68 0 -68 87q0 37 15 108l24 122q4 18 4 32q0 24 -10 24q-12 0 -33 -19t-31 -31q-2 0 -9 10t-7 14q11 23 61 62.5t84 39.5z" />
    <glyph glyph-name="Uogonek" unicode="&#x172;" horiz-adv-x="671" 
d="M243 -128q0 -29 29 -29q21 0 39.5 8t29 16t11.5 8q5 -1 1.5 -15t-6.5 -17q-23 -26 -54.5 -46t-60.5 -20q-22 0 -38 17t-16 40q0 34 35 84t76 83q-25 -3 -55 -3q-90 0 -142 51.5t-52 154.5q0 37 12 100l42 214q10 52 10 82q0 13 -20 21.5t-32 8.5q-2 0 -2 4q0 18 8 26
q9 0 49 -3t65 -3q6 0 120 6v-4q0 -7 -2.5 -16.5t-5.5 -9.5q-8 0 -32 -8.5t-28 -15.5q-12 -27 -26 -89l-42 -220q-10 -52 -10 -95q0 -140 122 -140q76 0 126.5 45t73.5 165l46 240q13 79 12 92q-1 12 -29.5 19t-44.5 7q-2 0 -2 6q0 18 8 24q10 0 49 -3t63 -3q19 0 36.5 1
t38 2.5t33.5 2.5q0 -30 -8 -30q-10 0 -42 -7t-36 -13q-7 -13 -24 -98l-46 -236q-33 -170 -122 -235q-157 -115 -157 -169z" />
    <glyph glyph-name="uogonek" unicode="&#x173;" horiz-adv-x="512" 
d="M173 128q0 -45 32 -45q27 0 74 88.5t61 158.5l22 106q20 6 44 6q22 0 46 -6l-61 -318q-1 -4 -1 -16q0 -16 6.5 -25.5t17.5 -9.5q10 0 32 33l22 32q4 0 12 -9t10 -17q-5 -15 -24.5 -41.5t-43.5 -47.5q-4 -4 -17.5 -16t-18.5 -16.5t-16 -15t-16 -16.5t-13.5 -15.5
t-12.5 -16.5t-8.5 -16t-6.5 -17t-2 -16q0 -29 30 -29q21 0 39.5 8t29 16t11.5 8q5 -1 1.5 -15t-6.5 -17q-23 -26 -55 -46t-61 -20q-23 0 -38.5 16t-15.5 39q0 63 96 163q-23 7 -35.5 29t-12.5 52q0 32 10 72q1 2 -1 2q-1 -1 -1 -2q-26 -59 -64.5 -107.5t-77.5 -48.5
q-81 0 -81 110q0 32 13 100l22 114q2 10 2 18q0 18 -7 26t-15 8q-11 0 -34 -33l-23 -33q-3 0 -11 9t-10 17q13 33 48.5 73.5t79.5 40.5q66 0 66 -85q0 -11 -18.5 -105t-18.5 -124z" />
    <glyph glyph-name="Wcircumflex" unicode="&#x174;" horiz-adv-x="994" 
d="M633 728q-19 0 -106 60q-30 -18 -76 -39t-55 -21q-12 0 -6 19q1 1 29 20.5t55 40.5q33 25 55 47q11 9 14 9q8 0 13 -9q2 -4 13 -20t19 -26q14 -17 28.5 -31.5t22.5 -22t9 -8.5q-5 -19 -15 -19zM183 654q4 0 118 6v-4q0 -8 -2 -18t-5 -10q-18 0 -33.5 -9t-17.5 -27
q0 -8 6 -34l115 -406q5 4 49 67t57 84l-67 241q-13 46 -22 59q-7 10 -22 17.5t-27 7.5q-2 0 -1 12q1 16 7 20q7 0 49 -3t68 -3q18 0 36.5 1t40.5 2.5t35 2.5v-4q0 -8 -2.5 -18t-5.5 -10q-19 0 -33.5 -9.5t-16.5 -24.5q-1 -11 6 -34l38 -139l74 117q25 41 27 56
q1 13 -12 21.5t-24.5 10.5t-17.5 2q-2 0 -2 8q0 18 7 24q87 -6 102 -6q21 0 39 1t37.5 2.5l32.5 2.5q1 -9 -1.5 -20.5t-5.5 -11.5q-15 0 -39.5 -10.5t-33.5 -20.5q-26 -26 -70 -93l-96 -146q55 -197 60 -206q1 0 56 90.5t115 187.5t68 109q24 40 25 55q1 12 -11.5 21
t-23.5 11t-18 2q-2 0 -2 10q0 16 8 22q87 -6 102 -6q21 0 39 1t37 2.5t33 2.5q0 -32 -7 -32q-16 0 -39.5 -10t-32.5 -20q-32 -31 -71 -94l-303 -485q-10 -16 -21.5 -24t-18.5 -8t-9 5l-69 247l-149 -220q-22 -32 -40 -32q-5 0 -8 5l-145 526q-16 57 -31 87q-6 10 -23 16.5
t-27 6.5q-3 0 -1 12q1 16 6 20q9 0 49 -3t65 -3z" />
    <glyph glyph-name="wcircumflex" unicode="&#x175;" horiz-adv-x="659" 
d="M440 504q-7 0 -37 23.5t-50 42.5q-25 -19 -64.5 -42.5t-46.5 -23.5q-4 0 -5.5 8t0.5 13q2 2 11.5 10t25 22.5t32.5 31.5q32 32 50 55q10 10 14 10q3 0 8 -10q17 -33 26 -48q11 -18 23 -35t18.5 -25.5t7.5 -10.5q-5 -21 -13 -21zM184 442q19 0 31.5 -14.5t12.5 -39.5
t-7 -59l-31 -158q-6 -30 -6 -50q0 -46 34 -46q24 0 52 22.5t52 62.5q18 158 34 220t52 62q47 0 47 -58q0 -63 -39 -188q-5 -32 -5 -48q0 -43 7 -58t28 -15q28 0 64 38t61 91t25 94q0 23 -17 49.5t-17 44.5q0 23 17 36.5t39 13.5q24 0 36 -10q12 -20 12 -58q0 -85 -47 -175
t-109 -145.5t-108 -55.5q-39 0 -63 23.5t-25 65.5q-79 -89 -140 -89q-38 0 -62 24.5t-24 65.5q0 27 4 48l34 174q4 16 4 32q0 24 -10 24q-12 0 -33 -19t-31 -31q-2 0 -9 10t-7 14q11 23 60.5 62.5t83.5 39.5z" />
    <glyph glyph-name="Ycircumflex" unicode="&#x176;" horiz-adv-x="592" 
d="M444 728q-19 0 -106 60q-30 -18 -76 -39t-55 -21q-12 0 -6 19q1 1 29 20.5t55 40.5q33 25 55 47q11 9 14 9q8 0 13 -9q2 -4 13 -20t19 -26q14 -17 28.5 -31.5t22.5 -22t9 -8.5q-5 -19 -15 -19zM197 654q15 0 129 6v-7q0 -8 -2.5 -16.5t-5.5 -8.5q-14 0 -35.5 -8
t-22.5 -24q-1 -9 3 -22l67 -195q6 8 35 46t44.5 58t37.5 49.5t32.5 46.5t10.5 23q1 11 -16.5 18.5t-41.5 7.5q-2 0 -2 8q0 18 7 24q93 -6 102 -6q15 0 113 6q1 -5 0 -12q-1 -20 -7 -20q-13 0 -39.5 -9t-41.5 -24q-20 -22 -121 -155.5t-103 -145.5l-30 -152q-10 -53 -10 -88
q1 -10 23.5 -18t29.5 -8q3 0 1 -11q-1 -13 -5 -21q-2 1 -47 4t-69 3q-25 0 -69.5 -3t-54.5 -4q-2 3 -1 12q2 20 7 20q11 0 36 8t29 16q13 24 24 86l30 156q1 5 -18.5 66.5t-39.5 121.5l-20 59q-17 53 -38 69q-9 6 -25.5 12t-25.5 6q-2 0 -2 7q0 19 8 25q10 0 53.5 -3
t70.5 -3z" />
    <glyph glyph-name="ycircumflex" unicode="&#x177;" horiz-adv-x="484" 
d="M443 506q-7 0 -37 23.5t-50 42.5q-25 -19 -64.5 -42.5t-46.5 -23.5q-4 0 -5.5 8t0.5 13q2 2 11.5 10t25 22.5t32.5 31.5q32 32 50 55q10 10 14 10q3 0 8 -10q17 -33 26 -48q11 -18 23 -35t18.5 -25.5t7.5 -10.5q-5 -21 -13 -21zM213 442q20 0 36.5 -26t27 -68.5
t17.5 -87.5t11 -94t5.5 -75.5t1.5 -43.5q28 34 65 106.5t37 125.5q0 59 -31 111q3 22 19.5 37t37.5 15q25 0 37.5 -21.5t12.5 -45.5q0 -76 -32.5 -164t-85 -163t-113 -138t-121 -99.5t-104.5 -36.5q-26 0 -43 12.5t-17 35.5q0 28 20 44q33 -12 72 -12q79 0 130 70
q22 30 22 111q0 86 -14.5 181t-42.5 136q-10 7 -39 -9q-5 0 -12 -2t-13.5 -5t-12 -5.5t-6.5 -2.5q2 5 24 32t55.5 54.5t55.5 27.5z" />
    <glyph glyph-name="Ydieresis" unicode="&#x178;" horiz-adv-x="592" 
d="M353 790q4 25 25 43.5t45 18.5t37.5 -18t8.5 -44q-4 -25 -25 -43.5t-45 -18.5t-37.5 18t-8.5 44zM163 790q5 26 25 44t44 18t38 -18t9 -44q-4 -25 -25.5 -43.5t-45.5 -18.5t-37 18t-8 44zM197 654q15 0 129 6v-7q0 -8 -2.5 -16.5t-5.5 -8.5q-14 0 -35.5 -8t-22.5 -24
q-1 -9 3 -22l67 -195q6 8 35 46t44.5 58t37.5 49.5t32.5 46.5t10.5 23q1 11 -16.5 18.5t-41.5 7.5q-2 0 -2 8q0 18 7 24q93 -6 102 -6q15 0 113 6q1 -5 0 -12q-1 -20 -7 -20q-13 0 -39.5 -9t-41.5 -24q-20 -22 -121 -155.5t-103 -145.5l-30 -152q-10 -53 -10 -88
q1 -10 23.5 -18t29.5 -8q3 0 1 -11q-1 -13 -5 -21q-2 1 -47 4t-69 3q-25 0 -69.5 -3t-54.5 -4q-2 3 -1 12q2 20 7 20q11 0 36 8t29 16q13 24 24 86l30 156q1 5 -18.5 66.5t-39.5 121.5l-20 59q-17 53 -38 69q-9 6 -25.5 12t-25.5 6q-2 0 -2 7q0 19 8 25q10 0 53.5 -3
t70.5 -3z" />
    <glyph glyph-name="Zacute" unicode="&#x179;" horiz-adv-x="581" 
d="M323 715q-4 0 -8.5 5t-4.5 10q0 6 39 39t66 49q10 5 24 5q26 0 45.5 -8t19.5 -23q0 -18 -80.5 -47.5t-100.5 -29.5zM314 656h104q66 0 204 10q3 -1 4 -14.5t0 -18.5q-2 -4 -114.5 -142.5t-224.5 -274.5l-113 -137q-8 -10 -8 -16q-1 -9 10 -9h179q108 0 161 109q3 7 20 7
t22 -6q-8 -17 -22.5 -48t-20.5 -45t-14 -34t-14 -37h-471q-5 9 -4 22q1 14 8 21l458 561h-100q-57 -1 -99.5 -17.5t-56.5 -40.5q-23 -1 -38 -10t-22.5 -19.5t-21.5 -35.5q-5 -1 -11.5 -1t-8.5 1q1 10 7 43t11 52q7 10 9 16.5t6.5 26.5t12.5 45q9 -3 69 -5.5t79 -2.5z" />
    <glyph glyph-name="zacute" unicode="&#x17a;" horiz-adv-x="419" 
d="M227 504q-3 0 -7 6t-4 10q0 6 42.5 55.5t67.5 70.5q8 4 20 4q18 0 32 -10.5t14 -23.5q0 -24 -75.5 -68t-89.5 -44zM188 442q23 0 76.5 -12t87.5 -12q15 0 36 12t35 12q15 0 15 -30q0 -3 -75 -82.5t-150.5 -157.5l-75.5 -78q3 0 18.5 7t25.5 7q26 0 65.5 -14.5t59.5 -14.5
q13 0 27.5 13.5t25.5 29t13 16.5q6 2 11 -6t7 -18q-6 -13 -15 -29.5t-24 -37.5t-35 -35t-40 -14q-22 0 -76 12.5t-88 12.5q-16 0 -40.5 -12.5t-35.5 -12.5q-8 0 -12.5 9t-5.5 17q0 4 75.5 84.5t151 159.5l75.5 79q-1 0 -8.5 -4t-15.5 -7t-14 -3q-25 0 -61 14.5t-56 14.5
q-14 0 -28.5 -13.5t-25 -29t-13.5 -17.5q-6 -2 -11.5 6t-8.5 17q13 34 46 75.5t64 41.5z" />
    <glyph glyph-name="Zdotaccent" unicode="&#x17b;" horiz-adv-x="581" 
d="M337 790q4 25 25 43.5t45 18.5t37.5 -18t8.5 -44q-4 -25 -25 -43.5t-45 -18.5t-37.5 18t-8.5 44zM314 656h104q66 0 204 10q3 -1 4 -14.5t0 -18.5q-2 -4 -114.5 -142.5t-224.5 -274.5l-113 -137q-8 -10 -8 -16q-1 -9 10 -9h179q108 0 161 109q3 7 20 7t22 -6
q-8 -17 -22.5 -48t-20.5 -45t-14 -34t-14 -37h-471q-5 9 -4 22q1 14 8 21l458 561h-100q-57 -1 -99.5 -17.5t-56.5 -40.5q-23 -1 -38 -10t-22.5 -19.5t-21.5 -35.5q-5 -1 -11.5 -1t-8.5 1q1 10 7 43t11 52q7 10 9 16.5t6.5 26.5t12.5 45q9 -3 69 -5.5t79 -2.5z" />
    <glyph glyph-name="zdotaccent" unicode="&#x17c;" horiz-adv-x="419" 
d="M199 593q5 26 25 44.5t44 18.5t38 -18.5t9 -44.5q-4 -25 -25 -43.5t-45 -18.5t-37.5 18t-8.5 44zM188 442q23 0 76.5 -12t87.5 -12q15 0 36 12t35 12q15 0 15 -30q0 -3 -75 -82.5t-150.5 -157.5l-75.5 -78q3 0 18.5 7t25.5 7q26 0 65.5 -14.5t59.5 -14.5q13 0 27.5 13.5
t25.5 29t13 16.5q6 2 11 -6t7 -18q-6 -13 -15 -29.5t-24 -37.5t-35 -35t-40 -14q-22 0 -76 12.5t-88 12.5q-16 0 -40.5 -12.5t-35.5 -12.5q-8 0 -12.5 9t-5.5 17q0 4 75.5 84.5t151 159.5l75.5 79q-1 0 -8.5 -4t-15.5 -7t-14 -3q-25 0 -61 14.5t-56 14.5q-14 0 -28.5 -13.5
t-25 -29t-13.5 -17.5q-6 -2 -11.5 6t-8.5 17q13 34 46 75.5t64 41.5z" />
    <glyph glyph-name="Zcaron" unicode="&#x17d;" horiz-adv-x="581" 
d="M394 803q101 61 116 61q10 0 5 -20q-25 -16 -75 -62q-30 -27 -48 -45q-9 -9 -13 -9t-9 9q-8 16 -30 46q-16 22 -33.5 41t-17.5 20q7 20 13 20q8 0 40.5 -22t51.5 -39zM314 656h104q66 0 204 10q3 -1 4 -14.5t0 -18.5q-2 -4 -114.5 -142.5t-224.5 -274.5l-113 -137
q-8 -10 -8 -16q-1 -9 10 -9h179q108 0 161 109q3 7 20 7t22 -6q-8 -17 -22.5 -48t-20.5 -45t-14 -34t-14 -37h-471q-5 9 -4 22q1 14 8 21l458 561h-100q-57 -1 -99.5 -17.5t-56.5 -40.5q-23 -1 -38 -10t-22.5 -19.5t-21.5 -35.5q-5 -1 -11.5 -1t-8.5 1q1 10 7 43t11 52
q7 10 9 16.5t6.5 26.5t12.5 45q9 -3 69 -5.5t79 -2.5z" />
    <glyph glyph-name="zcaron" unicode="&#x17e;" horiz-adv-x="419" 
d="M259 591q25 20 63 45t45 25q8 0 3 -23q-1 -1 -8 -7.5t-15 -14t-21.5 -21.5t-27.5 -29q-10 -11 -24 -29t-20 -25q-7 -9 -11 -9q-6 0 -9 9q-11 29 -25 55q-12 23 -42 71q6 23 13 23t35 -25t44 -45zM188 442q23 0 76.5 -12t87.5 -12q15 0 36 12t35 12q15 0 15 -30
q0 -3 -75 -82.5t-150.5 -157.5l-75.5 -78q3 0 18.5 7t25.5 7q26 0 65.5 -14.5t59.5 -14.5q13 0 27.5 13.5t25.5 29t13 16.5q6 2 11 -6t7 -18q-6 -13 -15 -29.5t-24 -37.5t-35 -35t-40 -14q-22 0 -76 12.5t-88 12.5q-16 0 -40.5 -12.5t-35.5 -12.5q-8 0 -12.5 9t-5.5 17
q0 4 75.5 84.5t151 159.5l75.5 79q-1 0 -8.5 -4t-15.5 -7t-14 -3q-25 0 -61 14.5t-56 14.5q-14 0 -28.5 -13.5t-25 -29t-13.5 -17.5q-6 -2 -11.5 6t-8.5 17q13 34 46 75.5t64 41.5z" />
    <glyph glyph-name="uni01CD" unicode="&#x1cd;" horiz-adv-x="648" 
d="M472 803q101 61 116 61q10 0 5 -20q-25 -16 -75 -62q-30 -27 -48 -45q-9 -9 -13 -9t-9 9q-8 16 -30 46q-16 22 -33.5 41t-17.5 20q7 20 13 20q8 0 40.5 -22t51.5 -39zM323 231q-37 0 -94 -3q-4 0 -6 -4q-5 -9 -27.5 -45t-29.5 -48q-31 -52 -31 -71q0 -16 24 -24.5
t36 -8.5q2 0 2 -5q0 -13 -6 -25q-11 1 -39.5 3.5t-52.5 2.5q-25 0 -60.5 -2.5t-48.5 -3.5q-2 4 -2 7q0 23 6 23q11 0 37.5 10t34.5 21q14 17 50 78l277 474q31 54 52 54q6 0 10 -4l94 -524q3 -16 14 -73q3 -15 23.5 -25.5t30.5 -10.5q2 0 2 -6q0 -16 -4 -24q-111 6 -114 6
q-11 0 -125 -6q-1 1 -1 6q0 24 6 24q10 0 30 7.5t25 15.5q6 12 6 30q0 9 -20 143q0 5 -5 5q-18 3 -94 3zM335 285q29 0 72 3q4 0 4 4q-3 20 -17 103t-16 97l-115 -202v-2q30 -3 72 -3z" />
    <glyph glyph-name="uni01CE" unicode="&#x1ce;" horiz-adv-x="450" 
d="M342 591q25 20 63 45t45 25q8 0 3 -23q-1 -1 -8 -7.5t-15 -14t-21.5 -21.5t-27.5 -29q-10 -11 -24 -29t-20 -25q-7 -9 -11 -9q-6 0 -9 9q-11 29 -25 55q-12 23 -42 71q6 23 13 23t35 -25t44 -45zM337 442q49 0 83 -18l-59 -307q-3 -9 -3 -24q0 -25 10 -25t27 13.5
t27.5 24.5t15.5 16q2 0 9 -9.5t7 -13.5q-11 -24 -62.5 -65t-87.5 -41q-19 0 -31.5 14.5t-12.5 38.5q0 11 4 33q3 16 4 21q-9 -16 -20.5 -31.5t-28 -34t-37 -29.5t-40.5 -11q-49 0 -77.5 40t-28.5 101q0 70 41.5 141t112.5 118.5t147 47.5zM287 387q-57 0 -104.5 -86.5
t-47.5 -162.5q0 -78 41 -78q34 0 72.5 72t53.5 149l19 96q-9 10 -34 10z" />
    <glyph glyph-name="uni01CF" unicode="&#x1cf;" horiz-adv-x="350" 
d="M268 803q101 61 116 61q10 0 5 -20q-25 -16 -75 -62q-30 -27 -48 -45q-9 -9 -13 -9t-9 9q-8 16 -30 46q-16 22 -33.5 41t-17.5 20q7 20 13 20q8 0 40.5 -22t51.5 -39zM264 519l-73 -380q-11 -61 -11 -85q0 -11 21.5 -19t30.5 -8q2 0 2 -5q0 -13 -7 -25q-111 6 -115 6
q-25 0 -67 -3t-51 -3q-2 2 -2 7q0 23 6 23q12 0 34.5 6.5t27.5 15.5q16 31 26 89l74 382q10 52 10 82q0 13 -20 21.5t-32 8.5q-2 0 -2 4q0 19 7 26q105 -5 115 -5q24 0 119 5v-4q0 -26 -7 -26q-8 0 -32.5 -8.5t-28.5 -15.5q-10 -22 -25 -89z" />
    <glyph glyph-name="uni01D0" unicode="&#x1d0;" horiz-adv-x="279" 
d="M148 591q25 20 63 45t45 25q8 0 3 -23q-1 -1 -8 -7.5t-15 -14t-21.5 -21.5t-27.5 -29q-10 -11 -24 -29t-20 -25q-7 -9 -11 -9q-6 0 -9 9q-11 29 -25 55q-12 23 -42 71q6 23 13 23t35 -25t44 -45zM144 442q29 0 47.5 -20.5t18.5 -63.5q0 -26 -43 -241q-1 -4 -1 -17
q0 -34 20 -34q11 0 34 33l24 33q3 0 11 -9t10 -17q-13 -33 -49 -73.5t-79 -40.5q-31 0 -48 22t-17 63q0 24 5 49l36 184q3 15 3 22q0 36 -24 36q-10 0 -33 -33l-23 -33q-3 0 -10.5 9t-9.5 17q13 33 49 73.5t79 40.5z" />
    <glyph glyph-name="uni01D1" unicode="&#x1d1;" horiz-adv-x="656" 
d="M425 803q101 61 116 61q10 0 5 -20q-25 -16 -75 -62q-30 -27 -48 -45q-9 -9 -13 -9t-9 9q-8 16 -30 46q-16 22 -33.5 41t-17.5 20q7 20 13 20q8 0 40.5 -22t51.5 -39zM374 618q-94 0 -162 -109.5t-68 -256.5q0 -92 37 -152t109 -60q69 0 123.5 64t80.5 148t26 163
q0 89 -36.5 146t-109.5 57zM398 667q104 0 172 -75.5t68 -187.5q0 -106 -53 -202t-139.5 -154t-181.5 -58q-106 0 -172 76t-66 192q0 104 54.5 199.5t140.5 152.5t177 57z" />
    <glyph glyph-name="uni01D2" unicode="&#x1d2;" horiz-adv-x="402" 
d="M290 591q25 20 63 45t45 25q8 0 3 -23q-1 -1 -8 -7.5t-15 -14t-21.5 -21.5t-27.5 -29q-10 -11 -24 -29t-20 -25q-7 -9 -11 -9q-6 0 -9 9q-11 29 -25 55q-12 23 -42 71q6 23 13 23t35 -25t44 -45zM262 395q-31 0 -59.5 -42.5t-44.5 -102.5t-16 -116q1 -43 14 -67.5
t36 -24.5q32 0 60 44.5t42.5 104t13.5 111.5q0 44 -12 68.5t-34 24.5zM273 442q68 0 101.5 -42.5t33.5 -115.5q0 -71 -33 -138.5t-86.5 -109.5t-110.5 -42q-69 0 -102.5 42t-33.5 114q0 68 33 136t87 112t111 44z" />
    <glyph glyph-name="uni01D3" unicode="&#x1d3;" horiz-adv-x="667" 
d="M392 803q101 61 116 61q10 0 5 -20q-25 -16 -75 -62q-30 -27 -48 -45q-9 -9 -13 -9t-9 9q-8 16 -30 46q-16 22 -33.5 41t-17.5 20q7 20 13 20q8 0 40.5 -22t51.5 -39zM90 520q10 52 10 82q0 13 -20 21.5t-31 8.5q-1 0 -1 4q0 20 6 26q105 -5 116 -5q23 0 118 5v-4
q0 -26 -7 -26q-8 0 -32.5 -8.5t-28.5 -15.5q-6 -14 -24 -89l-44 -222q-10 -52 -10 -95q0 -140 122 -140q76 0 126.5 45t73.5 165l46 242q14 71 13 92q-1 12 -30 19t-45 7q-1 0 -1 6q0 17 7 24q84 -4 107 -4q38 0 114 4q0 -30 -7 -30q-10 0 -42.5 -7t-36.5 -13
q-8 -17 -25 -98l-46 -238q-30 -157 -100.5 -217.5t-187.5 -60.5q-90 0 -142 51.5t-52 153.5q0 38 12 101z" />
    <glyph glyph-name="uni01D4" unicode="&#x1d4;" horiz-adv-x="492" 
d="M303 591q25 20 63 45t45 25q8 0 3 -23q-1 -1 -8 -7.5t-15 -14t-21.5 -21.5t-27.5 -29q-10 -11 -24 -29t-20 -25q-7 -9 -11 -9q-6 0 -9 9q-11 29 -25 55q-12 23 -42 71q6 23 13 23t35 -25t44 -45zM183 442q19 0 31 -14.5t12 -39.5q0 -29 -8 -64l-29 -142q-8 -43 -8 -56
q0 -42 24 -42q17 0 49 40.5t61.5 102.5t40.5 117l19 91q17 5 44 5q26 0 46 -5l-61 -318q-2 -11 -2 -24q0 -25 10 -25q9 0 26 13.5t27.5 24.5t15.5 16q2 0 9 -9.5t7 -13.5q-11 -24 -62.5 -65t-87.5 -41q-19 0 -31 14.5t-12 40.5q0 16 7 58q1 4 2 10t3.5 19t4 21.5l1.5 8.5
q-13 -26 -40.5 -64t-65 -73t-63.5 -35q-68 0 -68 87q0 37 15 108l24 122q4 18 4 32q0 24 -10 24q-12 0 -33 -19t-31 -31q-2 0 -9 10t-7 14q11 23 61 62.5t84 39.5z" />
    <glyph glyph-name="uni01D5" unicode="&#x1d5;" horiz-adv-x="667" 
d="M255 920q0 9 8.5 28.5t14.5 19.5h250q6 0 4 -8q-3 -12 -6.5 -21t-8 -16.5t-5.5 -9.5h-250q-7 0 -7 7zM402 790q4 25 25 43.5t45 18.5t37.5 -18t8.5 -44q-4 -25 -25 -43.5t-45 -18.5t-37.5 18t-8.5 44zM212 790q5 26 25 44t44 18t38 -18t9 -44q-4 -25 -25.5 -43.5
t-45.5 -18.5t-37 18t-8 44zM90 520q10 52 10 82q0 13 -20 21.5t-31 8.5q-1 0 -1 4q0 20 6 26q105 -5 116 -5q23 0 118 5v-4q0 -26 -7 -26q-8 0 -32.5 -8.5t-28.5 -15.5q-6 -14 -24 -89l-44 -222q-10 -52 -10 -95q0 -140 122 -140q76 0 126.5 45t73.5 165l46 242q14 71 13 92
q-1 12 -30 19t-45 7q-1 0 -1 6q0 17 7 24q84 -4 107 -4q38 0 114 4q0 -30 -7 -30q-10 0 -42.5 -7t-36.5 -13q-8 -17 -25 -98l-46 -238q-30 -157 -100.5 -217.5t-187.5 -60.5q-90 0 -142 51.5t-52 153.5q0 38 12 101z" />
    <glyph glyph-name="uni01D6" unicode="&#x1d6;" horiz-adv-x="492" 
d="M178 699q12 48 22 48h212q7 0 4 -9q-5 -19 -15 -41l-8 -8h-212h-1.5t-1.5 2.5t0 7.5zM374 628q20 0 33 -16.5t13 -37.5q0 -29 -20 -50t-48 -21q-19 0 -30.5 16t-11.5 37q0 29 18 50.5t46 21.5zM184 628q20 0 33 -16.5t13 -37.5q0 -29 -20 -50t-48 -21q-19 0 -30.5 16
t-11.5 37q0 29 18 50.5t46 21.5zM183 442q19 0 31 -14.5t12 -39.5q0 -29 -8 -64l-29 -142q-8 -43 -8 -56q0 -42 24 -42q17 0 49 40.5t61.5 102.5t40.5 117l19 91q17 5 44 5q26 0 46 -5l-61 -318q-2 -11 -2 -24q0 -25 10 -25q9 0 26 13.5t27.5 24.5t15.5 16q2 0 9 -9.5
t7 -13.5q-11 -24 -62.5 -65t-87.5 -41q-19 0 -31 14.5t-12 40.5q0 16 7 58q1 4 2 10t3.5 19t4 21.5l1.5 8.5q-13 -26 -40.5 -64t-65 -73t-63.5 -35q-68 0 -68 87q0 37 15 108l24 122q4 18 4 32q0 24 -10 24q-12 0 -33 -19t-31 -31q-2 0 -9 10t-7 14q11 23 61 62.5t84 39.5z
" />
    <glyph glyph-name="uni01D7" unicode="&#x1d7;" horiz-adv-x="667" 
d="M389 913q-4 0 -8.5 5t-4.5 10q0 6 39 39t66 49q10 5 24 5q26 0 45.5 -8t19.5 -23q0 -18 -80.5 -47.5t-100.5 -29.5zM402 790q4 25 25 43.5t45 18.5t37.5 -18t8.5 -44q-4 -25 -25 -43.5t-45 -18.5t-37.5 18t-8.5 44zM212 790q5 26 25 44t44 18t38 -18t9 -44
q-4 -25 -25.5 -43.5t-45.5 -18.5t-37 18t-8 44zM90 520q10 52 10 82q0 13 -20 21.5t-31 8.5q-1 0 -1 4q0 20 6 26q105 -5 116 -5q23 0 118 5v-4q0 -26 -7 -26q-8 0 -32.5 -8.5t-28.5 -15.5q-6 -14 -24 -89l-44 -222q-10 -52 -10 -95q0 -140 122 -140q76 0 126.5 45t73.5 165
l46 242q14 71 13 92q-1 12 -30 19t-45 7q-1 0 -1 6q0 17 7 24q84 -4 107 -4q38 0 114 4q0 -30 -7 -30q-10 0 -42.5 -7t-36.5 -13q-8 -17 -25 -98l-46 -238q-30 -157 -100.5 -217.5t-187.5 -60.5q-90 0 -142 51.5t-52 153.5q0 38 12 101z" />
    <glyph glyph-name="uni01D8" unicode="&#x1d8;" horiz-adv-x="492" 
d="M291 689q-3 0 -7 6t-4 10q0 6 42.5 55.5t67.5 70.5q8 4 20 4q18 0 32 -10.5t14 -23.5q0 -24 -75.5 -68t-89.5 -44zM374 628q20 0 33 -16.5t13 -37.5q0 -29 -20 -50t-48 -21q-19 0 -30.5 16t-11.5 37q0 29 18 50.5t46 21.5zM184 628q20 0 33 -16.5t13 -37.5q0 -29 -20 -50
t-48 -21q-19 0 -30.5 16t-11.5 37q0 29 18 50.5t46 21.5zM183 442q19 0 31 -14.5t12 -39.5q0 -29 -8 -64l-29 -142q-8 -43 -8 -56q0 -42 24 -42q17 0 49 40.5t61.5 102.5t40.5 117l19 91q17 5 44 5q26 0 46 -5l-61 -318q-2 -11 -2 -24q0 -25 10 -25q9 0 26 13.5t27.5 24.5
t15.5 16q2 0 9 -9.5t7 -13.5q-11 -24 -62.5 -65t-87.5 -41q-19 0 -31 14.5t-12 40.5q0 16 7 58q1 4 2 10t3.5 19t4 21.5l1.5 8.5q-13 -26 -40.5 -64t-65 -73t-63.5 -35q-68 0 -68 87q0 37 15 108l24 122q4 18 4 32q0 24 -10 24q-12 0 -33 -19t-31 -31q-2 0 -9 10t-7 14
q11 23 61 62.5t84 39.5z" />
    <glyph glyph-name="uni01D9" unicode="&#x1d9;" horiz-adv-x="667" 
d="M403 988q101 61 116 61q10 0 5 -20q-25 -16 -75 -62q-30 -27 -48 -45q-9 -9 -13 -9t-9 9q-8 16 -30 46q-16 22 -33.5 41t-17.5 20q7 20 13 20q8 0 40.5 -22t51.5 -39zM402 790q4 25 25 43.5t45 18.5t37.5 -18t8.5 -44q-4 -25 -25 -43.5t-45 -18.5t-37.5 18t-8.5 44z
M212 790q5 26 25 44t44 18t38 -18t9 -44q-4 -25 -25.5 -43.5t-45.5 -18.5t-37 18t-8 44zM90 520q10 52 10 82q0 13 -20 21.5t-31 8.5q-1 0 -1 4q0 20 6 26q105 -5 116 -5q23 0 118 5v-4q0 -26 -7 -26q-8 0 -32.5 -8.5t-28.5 -15.5q-6 -14 -24 -89l-44 -222q-10 -52 -10 -95
q0 -140 122 -140q76 0 126.5 45t73.5 165l46 242q14 71 13 92q-1 12 -30 19t-45 7q-1 0 -1 6q0 17 7 24q84 -4 107 -4q38 0 114 4q0 -30 -7 -30q-10 0 -42.5 -7t-36.5 -13q-8 -17 -25 -98l-46 -238q-30 -157 -100.5 -217.5t-187.5 -60.5q-90 0 -142 51.5t-52 153.5
q0 38 12 101z" />
    <glyph glyph-name="uni01DA" unicode="&#x1da;" horiz-adv-x="492" 
d="M308 777q25 20 63 45t45 25q8 0 3 -23q-1 -1 -8 -7.5t-15 -14t-21.5 -21.5t-27.5 -29q-10 -11 -24 -29t-20 -25q-7 -9 -11 -9q-6 0 -9 9q-11 29 -25 55q-12 23 -42 71q6 23 13 23t35 -25t44 -45zM374 628q20 0 33 -16.5t13 -37.5q0 -29 -20 -50t-48 -21q-19 0 -30.5 16
t-11.5 37q0 29 18 50.5t46 21.5zM184 628q20 0 33 -16.5t13 -37.5q0 -29 -20 -50t-48 -21q-19 0 -30.5 16t-11.5 37q0 29 18 50.5t46 21.5zM183 442q19 0 31 -14.5t12 -39.5q0 -29 -8 -64l-29 -142q-8 -43 -8 -56q0 -42 24 -42q17 0 49 40.5t61.5 102.5t40.5 117l19 91
q17 5 44 5q26 0 46 -5l-61 -318q-2 -11 -2 -24q0 -25 10 -25q9 0 26 13.5t27.5 24.5t15.5 16q2 0 9 -9.5t7 -13.5q-11 -24 -62.5 -65t-87.5 -41q-19 0 -31 14.5t-12 40.5q0 16 7 58q1 4 2 10t3.5 19t4 21.5l1.5 8.5q-13 -26 -40.5 -64t-65 -73t-63.5 -35q-68 0 -68 87
q0 37 15 108l24 122q4 18 4 32q0 24 -10 24q-12 0 -33 -19t-31 -31q-2 0 -9 10t-7 14q11 23 61 62.5t84 39.5z" />
    <glyph glyph-name="uni01DB" unicode="&#x1db;" horiz-adv-x="667" 
d="M389 913q-20 0 -100 29.5t-80 47.5q0 15 19 23t45 8q15 0 25 -5q26 -16 65 -49.5t39 -39.5q0 -5 -4.5 -9.5t-8.5 -4.5zM402 790q4 25 25 43.5t45 18.5t37.5 -18t8.5 -44q-4 -25 -25 -43.5t-45 -18.5t-37.5 18t-8.5 44zM212 790q5 26 25 44t44 18t38 -18t9 -44
q-4 -25 -25.5 -43.5t-45.5 -18.5t-37 18t-8 44zM90 520q10 52 10 82q0 13 -20 21.5t-31 8.5q-1 0 -1 4q0 20 6 26q105 -5 116 -5q23 0 118 5v-4q0 -26 -7 -26q-8 0 -32.5 -8.5t-28.5 -15.5q-6 -14 -24 -89l-44 -222q-10 -52 -10 -95q0 -140 122 -140q76 0 126.5 45t73.5 165
l46 242q14 71 13 92q-1 12 -30 19t-45 7q-1 0 -1 6q0 17 7 24q84 -4 107 -4q38 0 114 4q0 -30 -7 -30q-10 0 -42.5 -7t-36.5 -13q-8 -17 -25 -98l-46 -238q-30 -157 -100.5 -217.5t-187.5 -60.5q-90 0 -142 51.5t-52 153.5q0 38 12 101z" />
    <glyph glyph-name="uni01DC" unicode="&#x1dc;" horiz-adv-x="492" 
d="M291 689q-16 0 -89 43t-73 67q0 14 17.5 25.5t35.5 11.5q10 0 17 -5q17 -16 61 -66.5t44 -55.5q0 -6 -4.5 -13t-8.5 -7zM374 628q20 0 33 -16.5t13 -37.5q0 -29 -20 -50t-48 -21q-19 0 -30.5 16t-11.5 37q0 29 18 50.5t46 21.5zM184 628q20 0 33 -16.5t13 -37.5
q0 -29 -20 -50t-48 -21q-19 0 -30.5 16t-11.5 37q0 29 18 50.5t46 21.5zM183 442q19 0 31 -14.5t12 -39.5q0 -29 -8 -64l-29 -142q-8 -43 -8 -56q0 -42 24 -42q17 0 49 40.5t61.5 102.5t40.5 117l19 91q17 5 44 5q26 0 46 -5l-61 -318q-2 -11 -2 -24q0 -25 10 -25
q9 0 26 13.5t27.5 24.5t15.5 16q2 0 9 -9.5t7 -13.5q-11 -24 -62.5 -65t-87.5 -41q-19 0 -31 14.5t-12 40.5q0 16 7 58q1 4 2 10t3.5 19t4 21.5l1.5 8.5q-13 -26 -40.5 -64t-65 -73t-63.5 -35q-68 0 -68 87q0 37 15 108l24 122q4 18 4 32q0 24 -10 24q-12 0 -33 -19t-31 -31
q-2 0 -9 10t-7 14q11 23 61 62.5t84 39.5z" />
    <glyph glyph-name="Scommaaccent" unicode="&#x218;" horiz-adv-x="455" 
d="M110 -102q0 23 29 36t63 13q12 -14 12 -45q0 -38 -33.5 -76t-69.5 -53h-2q-3 -1 -4 -1q-6 0 -12.5 4t-6.5 7q0 1 13 10.5t26 24t13 28.5q0 17 -14 28t-14 24zM314 668q30 0 76 -11.5t64 -14.5q-2 -18 -5.5 -45.5t-6 -45.5t-5 -36.5t-4.5 -27.5t-4 -9q-9 0 -18 3
q-13 2 -13 15q0 43 -27.5 82.5t-70.5 39.5q-52 0 -81 -35.5t-29 -75.5q0 -52 78 -113q10 -8 49 -36t53 -41t30 -42t16 -62q0 -89 -72 -155t-168 -66q-58 0 -162 25q5 80 5 85q0 17 -0.5 46.5t-0.5 30.5q0 8 21 8q12 0 21 -9q0 -49 29 -93t89 -44q56 0 91 42t35 87
q0 14 -5.5 27.5t-12 23t-21.5 23t-22 19.5t-26.5 20.5t-24.5 17.5q-27 21 -41 33t-32.5 32.5t-26.5 41.5t-8 46q0 92 71.5 153t158.5 61z" />
    <glyph glyph-name="scommaaccent" unicode="&#x219;" horiz-adv-x="322" 
d="M66 -102q0 23 29 36t63 13q12 -14 12 -45q0 -38 -33.5 -76t-69.5 -53h-2q-3 -1 -4 -1q-6 0 -12.5 4t-6.5 7q0 1 13 10.5t26 24t13 28.5q0 17 -14 28t-14 24zM238 444q60 0 94 -34q8 -12 8 -29q0 -23 -10.5 -37.5t-27.5 -14.5q-20 0 -43 34t-51 34q-20 0 -30 -12t-10 -33
q0 -22 19 -52.5t42.5 -57t43 -61t19.5 -63.5q0 -55 -45 -90t-111 -35q-60 0 -95 35q-7 10 -7 26q0 23 10.5 38.5t26.5 15.5q14 0 25.5 -11t18.5 -23.5t20.5 -23t30.5 -10.5q20 0 31 12t11 32q0 28 -31 68.5t-62 85t-31 81.5q0 48 45 86.5t109 38.5z" />
    <glyph glyph-name="uni021A" unicode="&#x21a;" horiz-adv-x="576" 
d="M110 -102q0 23 29 36t63 13q12 -14 12 -45q0 -38 -33.5 -76t-69.5 -53h-2q-3 -1 -4 -1q-6 0 -12.5 4t-6.5 7q0 1 13 10.5t26 24t13 28.5q0 17 -14 28t-14 24zM155 138l70 359q13 63 13 88q0 10 -4 15t-23.5 8t-59.5 3q-46 0 -71.5 -19t-49.5 -74q-3 -6 -9 -6q-18 0 -23 8
l47 152q35 -10 62 -10q40 0 102 -3.5t100 -3.5t102 3.5t104 3.5q26 0 66 10l-12 -153q-9 -7 -26 -7q-8 0 -8 5q-1 54 -21.5 74t-62.5 20q-86 0 -94 -17q-12 -26 -26 -94l-70 -361q-10 -55 -10 -85q0 -11 20.5 -19t29.5 -8q2 0 2 -5q0 -15 -6 -25q-111 6 -116 6q-25 0 -67 -3
t-51 -3q-1 1 -1 7q0 23 7 23q11 0 33.5 6.5t27.5 15.5q14 28 25 89z" />
    <glyph glyph-name="uni021B" unicode="&#x21b;" horiz-adv-x="277" 
d="M48 -102q0 23 29 36t63 13q12 -14 12 -45q0 -38 -33.5 -76t-69.5 -53h-2q-3 -1 -4 -1q-6 0 -12.5 4t-6.5 7q0 1 13 10.5t26 24t13 28.5q0 17 -14 28t-14 24zM154 534q2 12 68 12q15 0 25 -2l-25 -120h90q7 0 7 -14q0 -19 -11 -36h-95l-50 -257q-3 -9 -3 -24q0 -25 10 -25
t27 13.5t27.5 24.5t15.5 16q2 0 9 -9.5t7 -13.5q-11 -24 -62.5 -65t-87.5 -41q-19 0 -31.5 14.5t-12.5 40.5q0 22 9 63l51 263h-64q-3 0 -3 12q0 10 4.5 22t8.5 16h64z" />
    <glyph glyph-name="uni0237" unicode="&#x237;" horiz-adv-x="302" 
d="M212 442q29 0 47.5 -20.5t18.5 -63.5q0 -26 -50 -276q-25 -125 -76 -195q-28 -38 -75 -70.5t-76 -42.5q-12 9 -12 22q0 4 6 10q61 50 89 103t48 152l49 249q3 15 3 22q0 36 -24 36q-10 0 -33 -33l-23 -33q-3 0 -10.5 9t-9.5 17q13 33 49 73.5t79 40.5z" />
    <glyph glyph-name="gravecomb" unicode="&#x300;" horiz-adv-x="270" 
d="M215 518q-16 0 -89 43t-73 67q0 14 17.5 25.5t35.5 11.5q10 0 17 -5q17 -16 61 -66.5t44 -55.5q0 -6 -4.5 -13t-8.5 -7z" />
    <glyph glyph-name="acutecomb" unicode="&#x301;" horiz-adv-x="270" 
d="M68 518q-3 0 -7 6t-4 10q0 6 42.5 55.5t67.5 70.5q8 4 20 4q18 0 32 -10.5t14 -23.5q0 -24 -75.5 -68t-89.5 -44z" />
    <glyph glyph-name="uni0302" unicode="&#x302;" horiz-adv-x="312" 
d="M258 600q-7 0 -37 23.5t-50 42.5q-25 -19 -64.5 -42.5t-46.5 -23.5q-4 0 -5.5 8t0.5 13q2 2 11.5 10t25 22.5t32.5 31.5q32 32 50 55q10 10 14 10q3 0 8 -10q17 -33 26 -48q11 -18 23 -35t18.5 -25.5t7.5 -10.5q-5 -21 -13 -21z" />
    <glyph glyph-name="tildecomb" unicode="&#x303;" horiz-adv-x="392" 
d="M153 727q28 0 66.5 -28.5t66.5 -28.5q14 0 38 23l24 23q6 0 6 -12q0 -19 -31 -53.5t-64 -34.5q-29 0 -67.5 28t-67.5 28q-13 0 -37 -24t-26 -24q-5 0 -5 13q0 25 32 57.5t65 32.5z" />
    <glyph glyph-name="uni0304" unicode="&#x304;" horiz-adv-x="344" 
d="M59 550q12 48 22 48h212q7 0 4 -9q-5 -19 -15 -41l-8 -8h-212h-1.5t-1.5 2.5t0 7.5z" />
    <glyph glyph-name="uni0305" unicode="&#x305;" horiz-adv-x="714" 
d="M74 746q0 5 9 31.5t15 26.5h541q5 0 3 -9q-5 -29 -16 -51q-1 -3 -3.5 -5t-4.5 -3h-2h-538z" />
    <glyph glyph-name="uni0306" unicode="&#x306;" horiz-adv-x="307" 
d="M155 573q26 0 50.5 17.5t37.5 47.5q0 4 4 4q5 0 12.5 -7t6.5 -11q0 -1 -1.5 -4t-1.5 -4q-17 -41 -50 -68.5t-69 -27.5q-37 0 -61 27.5t-24 69.5v7q1 4 11 11t15 7q4 0 4 -4q1 -29 20.5 -47t45.5 -18z" />
    <glyph glyph-name="uni0307" unicode="&#x307;" horiz-adv-x="218" 
d="M58 580q5 26 25 44.5t44 18.5t38 -18.5t9 -44.5q-4 -25 -25 -43.5t-45 -18.5t-37.5 18t-8.5 44z" />
    <glyph glyph-name="uni0308" unicode="&#x308;" horiz-adv-x="381" 
d="M294 584q22 0 34 -17t7 -41t-24 -41t-41 -17t-35 17t-8 41q4 24 24 41t43 17zM120 584q22 0 34.5 -17t7.5 -41t-23.5 -41t-40.5 -17q-23 0 -35.5 17t-8.5 41t23.5 41t42.5 17z" />
    <glyph glyph-name="hookabovecomb" unicode="&#x309;" horiz-adv-x="249" 
d="M162 665q26 0 38.5 -15t7.5 -40q-4 -24 -21.5 -43t-38.5 -27q-31 -12 -33 -26q-1 -7 1 -14q-1 -3 -11 -7t-17 -4q-5 2 -10.5 9.5t-4.5 15.5q4 23 51 46q32 15 38 40q4 31 -18 31q-30 0 -36 -36q-4 -21 -38 -21q-6 0 -10.5 3.5t-3.5 9.5q6 31 39.5 54.5t66.5 23.5z" />
    <glyph glyph-name="uni030A" unicode="&#x30a;" horiz-adv-x="278" 
d="M97 600q-4 -22 7.5 -38t32.5 -16t38.5 15.5t22.5 38.5t-6.5 39t-32.5 16t-39 -16t-23 -39zM61 600q7 39 38.5 66.5t67.5 27.5t56 -27.5t12 -66.5q-7 -39 -38.5 -66.5t-67.5 -27.5t-56 27.5t-12 66.5z" />
    <glyph glyph-name="uni030B" unicode="&#x30b;" horiz-adv-x="406" 
d="M204 518q-3 0 -7 6t-4 10q0 6 42.5 55.5t67.5 70.5q8 4 20 4q18 0 32 -10.5t14 -23.5q0 -24 -75.5 -68t-89.5 -44zM68 518q-3 0 -7 6t-4 10q0 6 42.5 55.5t67.5 70.5q8 4 20 4q18 0 32.5 -10.5t14.5 -23.5q0 -24 -76 -68t-90 -44z" />
    <glyph glyph-name="uni030C" unicode="&#x30c;" horiz-adv-x="294" 
d="M146 581q25 20 63 45t45 25q8 0 3 -23q-1 -1 -8 -7.5t-15 -14t-21.5 -21.5t-27.5 -29q-10 -11 -24 -29t-20 -25q-7 -9 -11 -9q-6 0 -9 9q-11 29 -25 55q-12 23 -42 71q6 23 13 23t35 -25t44 -45z" />
    <glyph glyph-name="uni0312" unicode="&#x312;" horiz-adv-x="248" 
d="M259 518q0 -23 -29 -36t-63 -13q-12 14 -12 45q0 38 33.5 76t69.5 53l2 1h4q6 0 12.5 -4t6.5 -7q0 -1 -13 -10.5t-26 -24t-13 -28.5q0 -16 14 -27t14 -25z" />
    <glyph glyph-name="uni0315" unicode="&#x315;" horiz-adv-x="139" 
d="M154 603q0 34 24.5 49t58.5 15q4 -8 4 -26q0 -21 -4 -41q-7 -37 -41 -80.5t-62 -59.5h-4q-4 0 -8.5 6t-4.5 11q0 1 12.5 12t25.5 29t13 37q0 7 -7 21.5t-7 26.5z" />
    <glyph glyph-name="dotbelowcomb" unicode="&#x323;" horiz-adv-x="254" 
d="M64 -100q4 25 25 43.5t45 18.5t37.5 -18t8.5 -44q-4 -25 -25.5 -43.5t-45.5 -18.5t-37 18t-8 44z" />
    <glyph glyph-name="uni0326" unicode="&#x326;" horiz-adv-x="248" 
d="M77 -45q0 23 29 36t63 13q12 -14 12 -45q0 -38 -33.5 -76t-69.5 -53h-2q-3 -1 -4 -1q-6 0 -12.5 4t-6.5 7q0 1 13 10.5t26 24t13 28.5q0 17 -14 28t-14 24z" />
    <glyph glyph-name="uni0327" unicode="&#x327;" horiz-adv-x="241" 
d="M124 -28q17 1 21 1q19 0 29.5 -15t6.5 -35q-7 -35 -36 -56t-68 -21q-26 0 -36 12v16q1 5 5.5 9.5t7.5 4.5t15 -7t22 -7q19 0 31 9t14 22q3 14 -2.5 22.5t-16.5 8.5q-13 0 -28 -6q-2 0 -6 5.5t-2 8.5l38 53h24z" />
    <glyph glyph-name="mu" unicode="&#x3bc;" horiz-adv-x="447" 
d="M169 442q9 0 29 -14.5t18 -23.5q-9 -46 -49 -148l-11 -33q-13 -59 -8 -102.5t28 -43.5q70 0 130 136q0 2 13 56t25 107l12 53q14 13 31 13q19 -2 36.5 -15t14.5 -23q-6 -38 -53 -158l-9 -23q-16 -61 -13.5 -106t31.5 -45q15 0 33 10.5t27 20.5q2 0 7 -11q2 -8 -1 -16
q-15 -33 -44 -56.5t-56 -23.5q-29 1 -39.5 39t-6.5 93q-37 -62 -74.5 -99.5t-79.5 -37.5q-7 0 -12 1.5t-9 5.5t-6.5 7.5t-5 10t-4 10.5t-3 13t-2 12.5t-1.5 13t-1 11.5q0 -3 -8.5 -42t-15 -76t-5 -82t16.5 -68q-3 -9 -20 -20.5t-29 -11.5q-21 0 -34 27t-13 67q0 64 83 334
q3 14 9 51t6 43q7 27 25 124q5 6 17.5 13t20.5 7z" />
    <glyph glyph-name="uni2010" unicode="&#x2010;" horiz-adv-x="357" 
d="M70 264l226 12q7 0 7 -12q0 -11 -9 -33.5t-16 -23.5l-226 -11q-5 0 -5 15q0 10 8 31t15 22z" />
    <glyph glyph-name="uni2011" unicode="&#x2011;" horiz-adv-x="357" 
d="M70 264l226 12q7 0 7 -12q0 -11 -9 -33.5t-16 -23.5l-226 -11q-5 0 -5 15q0 10 8 31t15 22z" />
    <glyph glyph-name="figuredash" unicode="&#x2012;" horiz-adv-x="509" 
d="M447 265q7 0 7 -15q0 -13 -8 -30.5t-14 -22.5h-378q-7 0 -7 15q0 13 8 30.5t14 22.5h378z" />
    <glyph glyph-name="endash" unicode="&#x2013;" horiz-adv-x="531" 
d="M470 265q6 0 6 -15q0 -13 -8 -30.5t-14 -22.5h-400q-7 0 -7 15q0 13 8 30.5t14 22.5h401z" />
    <glyph glyph-name="emdash" unicode="&#x2014;" horiz-adv-x="826" 
d="M764 265q7 0 7 -15q0 -13 -8 -30.5t-14 -22.5h-695q-7 0 -7 15q0 13 8 30.5t14 22.5h695z" />
    <glyph glyph-name="afii00208" unicode="&#x2015;" horiz-adv-x="1053" 
d="M992 265q6 0 6 -15q0 -13 -8 -30.5t-14 -22.5h-922q-7 0 -7 15q0 13 8 30.5t14 22.5h923z" />
    <glyph glyph-name="quoteleft" unicode="&#x2018;" horiz-adv-x="241" 
d="M57 555q8 42 40 79.5t58.5 54.5t33.5 17q6 0 13.5 -7t8.5 -15q-28 -16 -48.5 -37t-27 -33.5t-8.5 -19.5q-2 -13 13 -35.5t12 -36.5q-4 -18 -25 -31t-44 -13q-15 0 -25 7q-11 24 -1 70z" />
    <glyph glyph-name="quoteright" unicode="&#x2019;" horiz-adv-x="238" 
d="M197 630q-8 -42 -39.5 -79.5t-57.5 -54.5t-33 -17q-6 0 -13.5 7t-8.5 15q28 16 48.5 37.5t26.5 33.5t8 20q2 13 -13 35.5t-12 36.5q4 18 25.5 30.5t44.5 12.5q13 0 24 -7q10 -22 0 -70z" />
    <glyph glyph-name="quotesinglbase" unicode="&#x201a;" horiz-adv-x="245" 
d="M186 48q-8 -42 -40 -79.5t-58.5 -54t-33.5 -16.5q-6 0 -13.5 6.5t-8.5 14.5q28 16 48.5 37.5t27 34t8.5 19.5q2 13 -13.5 35.5t-12.5 36.5q4 18 25.5 31t44.5 13q12 0 24 -8q12 -25 2 -70z" />
    </font>
</defs>
</svg>
